# Original mesh reconstructed from user-supplied concept reference.
mtllib TwinShieldDrone.mtl
o TwinShieldPanel
usemtl industrial_armour
v -0.2484000 -0.8372000 -0.1600000
v -0.2484000 0.8372000 -0.1600000
v -0.1840000 0.9752000 -0.1600000
v 0.1840000 0.9752000 -0.1600000
v 0.2484000 0.8372000 -0.1600000
v 0.2484000 -0.8372000 -0.1600000
v 0.1840000 -0.9752000 -0.1600000
v -0.1840000 -0.9752000 -0.1600000
vt 0.5200000 0.9651415
vt 0.5200000 0.7848585
vt 0.5472222 0.7700000
vt 0.7027778 0.7700000
vt 0.7300000 0.7848585
vt 0.7300000 0.9651415
vt 0.7027778 0.9800000
vt 0.5472222 0.9800000
vn 0.0000000 0.0000000 -1.0000000
vn 0.0000000 0.0000000 -1.0000000
vn 0.0000000 0.0000000 -1.0000000
vn 0.0000000 0.0000000 -1.0000000
vn 0.0000000 0.0000000 -1.0000000
vn 0.0000000 0.0000000 -1.0000000
vn 0.0000000 0.0000000 -1.0000000
vn 0.0000000 0.0000000 -1.0000000
f 1/1/1 2/2/2 3/3/3
f 1/1/1 3/3/3 4/4/4
f 1/1/1 4/4/4 5/5/5
f 1/1/1 5/5/5 6/6/6
f 1/1/1 6/6/6 7/7/7
f 1/1/1 7/7/7 8/8/8
v -0.1800000 -0.9540000 0.1500000
v 0.1800000 -0.9540000 0.1500000
v 0.2430000 -0.8190000 0.1500000
v 0.2430000 0.8190000 0.1500000
v 0.1800000 0.9540000 0.1500000
v -0.1800000 0.9540000 0.1500000
v -0.2430000 0.8190000 0.1500000
v -0.2430000 -0.8190000 0.1500000
vt 0.0472222 0.9800000
vt 0.2027778 0.9800000
vt 0.2300000 0.9651415
vt 0.2300000 0.7848585
vt 0.2027778 0.7700000
vt 0.0472222 0.7700000
vt 0.0200000 0.7848585
vt 0.0200000 0.9651415
vn 0.0000000 0.0000000 1.0000000
vn 0.0000000 0.0000000 1.0000000
vn 0.0000000 0.0000000 1.0000000
vn 0.0000000 0.0000000 1.0000000
vn 0.0000000 0.0000000 1.0000000
vn 0.0000000 0.0000000 1.0000000
vn 0.0000000 0.0000000 1.0000000
vn 0.0000000 0.0000000 1.0000000
f 9/9/9 10/10/10 11/11/11
f 9/9/9 11/11/11 12/12/12
f 9/9/9 12/12/12 13/13/13
f 9/9/9 13/13/13 14/14/14
f 9/9/9 14/14/14 15/15/15
f 9/9/9 15/15/15 16/16/16
v -0.1840000 -0.9752000 -0.1600000
v 0.1840000 -0.9752000 -0.1600000
v 0.2000000 -1.0600000 -0.1200000
v -0.2000000 -1.0600000 -0.1200000
vt 0.0284000 0.5200000
vt 0.2216000 0.5200000
vt 0.2300000 0.7300000
vt 0.0200000 0.7300000
vn 0.0000000 -0.4266187 -0.9044316
vn 0.0000000 -0.4266187 -0.9044316
vn 0.0000000 -0.4266187 -0.9044316
vn 0.0000000 -0.4266187 -0.9044316
f 17/17/17 18/18/18 19/19/19
f 17/17/17 19/19/19 20/20/20
v 0.1840000 -0.9752000 -0.1600000
v 0.2484000 -0.8372000 -0.1600000
v 0.2700000 -0.9100000 -0.1200000
v 0.2000000 -1.0600000 -0.1200000
vt 0.0999282 0.7300000
vt 0.2300000 0.5727442
vt 0.1613824 0.5200000
vt 0.0200000 0.6909302
vn 0.5636129 -0.2630194 -0.7830462
vn 0.5636129 -0.2630194 -0.7830462
vn 0.5636129 -0.2630194 -0.7830462
vn 0.5636129 -0.2630194 -0.7830462
f 21/21/21 22/22/22 23/23/23
f 21/21/21 23/23/23 24/24/24
v 0.2484000 -0.8372000 -0.1600000
v 0.2484000 0.8372000 -0.1600000
v 0.2700000 0.9100000 -0.1200000
v 0.2700000 -0.9100000 -0.1200000
vt 0.0284000 0.7300000
vt 0.2216000 0.7300000
vt 0.2300000 0.5200000
vt 0.0200000 0.5200000
vn 0.8799054 0.0000000 -0.4751489
vn 0.8799054 0.0000000 -0.4751489
vn 0.8799054 0.0000000 -0.4751489
vn 0.8799054 0.0000000 -0.4751489
f 25/25/25 26/26/26 27/27/27
f 25/25/25 27/27/27 28/28/28
v 0.2484000 0.8372000 -0.1600000
v 0.1840000 0.9752000 -0.1600000
v 0.2000000 1.0600000 -0.1200000
v 0.2700000 0.9100000 -0.1200000
vt 0.0200000 0.5727442
vt 0.1500718 0.7300000
vt 0.2300000 0.6909302
vt 0.0886176 0.5200000
vn 0.5636129 0.2630194 -0.7830462
vn 0.5636129 0.2630194 -0.7830462
vn 0.5636129 0.2630194 -0.7830462
vn 0.5636129 0.2630194 -0.7830462
f 29/29/29 30/30/30 31/31/31
f 29/29/29 31/31/31 32/32/32
v 0.1840000 0.9752000 -0.1600000
v -0.1840000 0.9752000 -0.1600000
v -0.2000000 1.0600000 -0.1200000
v 0.2000000 1.0600000 -0.1200000
vt 0.2216000 0.7300000
vt 0.0284000 0.7300000
vt 0.0200000 0.5200000
vt 0.2300000 0.5200000
vn 0.0000000 0.4266187 -0.9044316
vn 0.0000000 0.4266187 -0.9044316
vn 0.0000000 0.4266187 -0.9044316
vn 0.0000000 0.4266187 -0.9044316
f 33/33/33 34/34/34 35/35/35
f 33/33/33 35/35/35 36/36/36
v -0.1840000 0.9752000 -0.1600000
v -0.2484000 0.8372000 -0.1600000
v -0.2700000 0.9100000 -0.1200000
v -0.2000000 1.0600000 -0.1200000
vt 0.1500718 0.5200000
vt 0.0200000 0.6772558
vt 0.0886176 0.7300000
vt 0.2300000 0.5590698
vn -0.5636129 0.2630194 -0.7830462
vn -0.5636129 0.2630194 -0.7830462
vn -0.5636129 0.2630194 -0.7830462
vn -0.5636129 0.2630194 -0.7830462
f 37/37/37 38/38/38 39/39/39
f 37/37/37 39/39/39 40/40/40
v -0.2484000 0.8372000 -0.1600000
v -0.2484000 -0.8372000 -0.1600000
v -0.2700000 -0.9100000 -0.1200000
v -0.2700000 0.9100000 -0.1200000
vt 0.2216000 0.7300000
vt 0.0284000 0.7300000
vt 0.0200000 0.5200000
vt 0.2300000 0.5200000
vn -0.8799054 -0.0000000 -0.4751489
vn -0.8799054 -0.0000000 -0.4751489
vn -0.8799054 -0.0000000 -0.4751489
vn -0.8799054 -0.0000000 -0.4751489
f 41/41/41 42/42/42 43/43/43
f 41/41/41 43/43/43 44/44/44
v -0.2484000 -0.8372000 -0.1600000
v -0.1840000 -0.9752000 -0.1600000
v -0.2000000 -1.0600000 -0.1200000
v -0.2700000 -0.9100000 -0.1200000
vt 0.2300000 0.6772558
vt 0.0999282 0.5200000
vt 0.0200000 0.5590698
vt 0.1613824 0.7300000
vn -0.5636129 -0.2630194 -0.7830462
vn -0.5636129 -0.2630194 -0.7830462
vn -0.5636129 -0.2630194 -0.7830462
vn -0.5636129 -0.2630194 -0.7830462
f 45/45/45 46/46/46 47/47/47
f 45/45/45 47/47/47 48/48/48
v -0.2000000 -1.0600000 -0.1200000
v 0.2000000 -1.0600000 -0.1200000
v 0.2000000 -1.0600000 0.1000000
v -0.2000000 -1.0600000 0.1000000
vt 0.0200000 0.7300000
vt 0.2300000 0.7300000
vt 0.2300000 0.5200000
vt 0.0200000 0.5200000
vn 0.0000000 -1.0000000 0.0000000
vn 0.0000000 -1.0000000 0.0000000
vn 0.0000000 -1.0000000 0.0000000
vn 0.0000000 -1.0000000 0.0000000
f 49/49/49 50/50/50 51/51/51
f 49/49/49 51/51/51 52/52/52
v 0.2000000 -1.0600000 -0.1200000
v 0.2700000 -0.9100000 -0.1200000
v 0.2700000 -0.9100000 0.1000000
v 0.2000000 -1.0600000 0.1000000
vt 0.0200000 0.7300000
vt 0.0200000 0.5200000
vt 0.2300000 0.5200000
vt 0.2300000 0.7300000
vn 0.9061831 -0.4228855 0.0000000
vn 0.9061831 -0.4228855 0.0000000
vn 0.9061831 -0.4228855 0.0000000
vn 0.9061831 -0.4228855 0.0000000
f 53/53/53 54/54/54 55/55/55
f 53/53/53 55/55/55 56/56/56
v 0.2700000 -0.9100000 -0.1200000
v 0.2700000 0.9100000 -0.1200000
v 0.2700000 0.9100000 0.1000000
v 0.2700000 -0.9100000 0.1000000
vt 0.0200000 0.7300000
vt 0.2300000 0.7300000
vt 0.2300000 0.5200000
vt 0.0200000 0.5200000
vn 1.0000000 0.0000000 0.0000000
vn 1.0000000 0.0000000 0.0000000
vn 1.0000000 0.0000000 0.0000000
vn 1.0000000 0.0000000 0.0000000
f 57/57/57 58/58/58 59/59/59
f 57/57/57 59/59/59 60/60/60
v 0.2700000 0.9100000 -0.1200000
v 0.2000000 1.0600000 -0.1200000
v 0.2000000 1.0600000 0.1000000
v 0.2700000 0.9100000 0.1000000
vt 0.0200000 0.7300000
vt 0.0200000 0.5200000
vt 0.2300000 0.5200000
vt 0.2300000 0.7300000
vn 0.9061831 0.4228855 0.0000000
vn 0.9061831 0.4228855 0.0000000
vn 0.9061831 0.4228855 0.0000000
vn 0.9061831 0.4228855 0.0000000
f 61/61/61 62/62/62 63/63/63
f 61/61/61 63/63/63 64/64/64
v 0.2000000 1.0600000 -0.1200000
v -0.2000000 1.0600000 -0.1200000
v -0.2000000 1.0600000 0.1000000
v 0.2000000 1.0600000 0.1000000
vt 0.2300000 0.7300000
vt 0.0200000 0.7300000
vt 0.0200000 0.5200000
vt 0.2300000 0.5200000
vn 0.0000000 1.0000000 0.0000000
vn 0.0000000 1.0000000 0.0000000
vn 0.0000000 1.0000000 0.0000000
vn 0.0000000 1.0000000 0.0000000
f 65/65/65 66/66/66 67/67/67
f 65/65/65 67/67/67 68/68/68
v -0.2000000 1.0600000 -0.1200000
v -0.2700000 0.9100000 -0.1200000
v -0.2700000 0.9100000 0.1000000
v -0.2000000 1.0600000 0.1000000
vt 0.0200000 0.5200000
vt 0.0200000 0.7300000
vt 0.2300000 0.7300000
vt 0.2300000 0.5200000
vn -0.9061831 0.4228855 0.0000000
vn -0.9061831 0.4228855 0.0000000
vn -0.9061831 0.4228855 0.0000000
vn -0.9061831 0.4228855 0.0000000
f 69/69/69 70/70/70 71/71/71
f 69/69/69 71/71/71 72/72/72
v -0.2700000 0.9100000 -0.1200000
v -0.2700000 -0.9100000 -0.1200000
v -0.2700000 -0.9100000 0.1000000
v -0.2700000 0.9100000 0.1000000
vt 0.2300000 0.7300000
vt 0.0200000 0.7300000
vt 0.0200000 0.5200000
vt 0.2300000 0.5200000
vn -1.0000000 0.0000000 0.0000000
vn -1.0000000 0.0000000 0.0000000
vn -1.0000000 0.0000000 0.0000000
vn -1.0000000 0.0000000 0.0000000
f 73/73/73 74/74/74 75/75/75
f 73/73/73 75/75/75 76/76/76
v -0.2700000 -0.9100000 -0.1200000
v -0.2000000 -1.0600000 -0.1200000
v -0.2000000 -1.0600000 0.1000000
v -0.2700000 -0.9100000 0.1000000
vt 0.0200000 0.5200000
vt 0.0200000 0.7300000
vt 0.2300000 0.7300000
vt 0.2300000 0.5200000
vn -0.9061831 -0.4228855 0.0000000
vn -0.9061831 -0.4228855 0.0000000
vn -0.9061831 -0.4228855 0.0000000
vn -0.9061831 -0.4228855 0.0000000
f 77/77/77 78/78/78 79/79/79
f 77/77/77 79/79/79 80/80/80
v -0.2000000 -1.0600000 0.1000000
v 0.2000000 -1.0600000 0.1000000
v 0.1800000 -0.9540000 0.1500000
v -0.1800000 -0.9540000 0.1500000
vt 0.0200000 0.7300000
vt 0.2300000 0.7300000
vt 0.2195000 0.5200000
vt 0.0305000 0.5200000
vn 0.0000000 -0.4266187 0.9044316
vn 0.0000000 -0.4266187 0.9044316
vn 0.0000000 -0.4266187 0.9044316
vn 0.0000000 -0.4266187 0.9044316
f 81/81/81 82/82/82 83/83/83
f 81/81/81 83/83/83 84/84/84
v 0.2000000 -1.0600000 0.1000000
v 0.2700000 -0.9100000 0.1000000
v 0.2430000 -0.8190000 0.1500000
v 0.1800000 -0.9540000 0.1500000
vt 0.0200000 0.6833333
vt 0.1507054 0.5200000
vt 0.2300000 0.5830000
vt 0.1123651 0.7300000
vn 0.5636129 -0.2630194 0.7830462
vn 0.5636129 -0.2630194 0.7830462
vn 0.5636129 -0.2630194 0.7830462
vn 0.5636129 -0.2630194 0.7830462
f 85/85/85 86/86/86 87/87/87
f 85/85/85 87/87/87 88/88/88
v 0.2700000 -0.9100000 0.1000000
v 0.2700000 0.9100000 0.1000000
v 0.2430000 0.8190000 0.1500000
v 0.2430000 -0.8190000 0.1500000
vt 0.0200000 0.7300000
vt 0.2300000 0.7300000
vt 0.2195000 0.5200000
vt 0.0305000 0.5200000
vn 0.8799054 -0.0000000 0.4751489
vn 0.8799054 -0.0000000 0.4751489
vn 0.8799054 -0.0000000 0.4751489
vn 0.8799054 -0.0000000 0.4751489
f 89/89/89 90/90/90 91/91/91
f 89/89/89 91/91/91 92/92/92
v 0.2700000 0.9100000 0.1000000
v 0.2000000 1.0600000 0.1000000
v 0.1800000 0.9540000 0.1500000
v 0.2430000 0.8190000 0.1500000
vt 0.0992946 0.5200000
vt 0.2300000 0.6833333
vt 0.1376349 0.7300000
vt 0.0200000 0.5830000
vn 0.5636129 0.2630194 0.7830462
vn 0.5636129 0.2630194 0.7830462
vn 0.5636129 0.2630194 0.7830462
vn 0.5636129 0.2630194 0.7830462
f 93/93/93 94/94/94 95/95/95
f 93/93/93 95/95/95 96/96/96
v 0.2000000 1.0600000 0.1000000
v -0.2000000 1.0600000 0.1000000
v -0.1800000 0.9540000 0.1500000
v 0.1800000 0.9540000 0.1500000
vt 0.2300000 0.5200000
vt 0.0200000 0.5200000
vt 0.0305000 0.7300000
vt 0.2195000 0.7300000
vn 0.0000000 0.4266187 0.9044316
vn 0.0000000 0.4266187 0.9044316
vn 0.0000000 0.4266187 0.9044316
vn 0.0000000 0.4266187 0.9044316
f 97/97/97 98/98/98 99/99/99
f 97/97/97 99/99/99 100/100/100
v -0.2000000 1.0600000 0.1000000
v -0.2700000 0.9100000 0.1000000
v -0.2430000 0.8190000 0.1500000
v -0.1800000 0.9540000 0.1500000
vt 0.2300000 0.5666667
vt 0.0992946 0.7300000
vt 0.0200000 0.6670000
vt 0.1376349 0.5200000
vn -0.5636129 0.2630194 0.7830462
vn -0.5636129 0.2630194 0.7830462
vn -0.5636129 0.2630194 0.7830462
vn -0.5636129 0.2630194 0.7830462
f 101/101/101 102/102/102 103/103/103
f 101/101/101 103/103/103 104/104/104
v -0.2700000 0.9100000 0.1000000
v -0.2700000 -0.9100000 0.1000000
v -0.2430000 -0.8190000 0.1500000
v -0.2430000 0.8190000 0.1500000
vt 0.2300000 0.7300000
vt 0.0200000 0.7300000
vt 0.0305000 0.5200000
vt 0.2195000 0.5200000
vn -0.8799054 0.0000000 0.4751489
vn -0.8799054 0.0000000 0.4751489
vn -0.8799054 0.0000000 0.4751489
vn -0.8799054 0.0000000 0.4751489
f 105/105/105 106/106/106 107/107/107
f 105/105/105 107/107/107 108/108/108
v -0.2700000 -0.9100000 0.1000000
v -0.2000000 -1.0600000 0.1000000
v -0.1800000 -0.9540000 0.1500000
v -0.2430000 -0.8190000 0.1500000
vt 0.1507054 0.7300000
vt 0.0200000 0.5666667
vt 0.1123651 0.5200000
vt 0.2300000 0.6670000
vn -0.5636129 -0.2630194 0.7830462
vn -0.5636129 -0.2630194 0.7830462
vn -0.5636129 -0.2630194 0.7830462
vn -0.5636129 -0.2630194 0.7830462
f 109/109/109 110/110/110 111/111/111
f 109/109/109 111/111/111 112/112/112
v -0.2700000 -1.4000000 0.1000000
v -0.1900000 -1.6000000 0.1000000
v -0.0900000 -1.4000000 0.1000000
v -0.1300000 -1.2800000 0.1000000
vt 0.5200000 0.8487500
vt 0.6133333 0.9800000
vt 0.7300000 0.8487500
vt 0.6833333 0.7700000
vn -0.0000000 0.0000000 1.0000000
vn -0.0000000 0.0000000 1.0000000
vn -0.0000000 0.0000000 1.0000000
vn -0.0000000 0.0000000 1.0000000
f 113/113/113 114/114/114 115/115/115
f 113/113/113 115/115/115 116/116/116
v -0.1900000 -1.6000000 -0.1300000
v -0.2700000 -1.4000000 -0.1300000
v -0.1300000 -1.2800000 -0.1300000
v -0.0900000 -1.4000000 -0.1300000
vt 0.6133333 0.9800000
vt 0.5200000 0.8487500
vt 0.6833333 0.7700000
vt 0.7300000 0.8487500
vn 0.0000000 0.0000000 -1.0000000
vn 0.0000000 0.0000000 -1.0000000
vn 0.0000000 0.0000000 -1.0000000
vn 0.0000000 0.0000000 -1.0000000
f 117/117/117 118/118/118 119/119/119
f 117/117/117 119/119/119 120/120/120
v -0.2700000 -1.4000000 -0.1300000
v -0.1900000 -1.6000000 -0.1300000
v -0.1900000 -1.6000000 0.1000000
v -0.2700000 -1.4000000 0.1000000
vt 0.0200000 0.5200000
vt 0.0200000 0.7300000
vt 0.2300000 0.7300000
vt 0.2300000 0.5200000
vn -0.9284767 -0.3713907 0.0000000
vn -0.9284767 -0.3713907 0.0000000
vn -0.9284767 -0.3713907 0.0000000
vn -0.9284767 -0.3713907 0.0000000
f 121/121/121 122/122/122 123/123/123
f 121/121/121 123/123/123 124/124/124
v -0.1300000 -1.2800000 0.1000000
v -0.0900000 -1.4000000 0.1000000
v -0.0900000 -1.4000000 -0.1300000
v -0.1300000 -1.2800000 -0.1300000
vt 0.9800000 0.7700000
vt 0.9800000 0.9800000
vt 0.7700000 0.9800000
vt 0.7700000 0.7700000
vn 0.9486833 0.3162278 0.0000000
vn 0.9486833 0.3162278 0.0000000
vn 0.9486833 0.3162278 0.0000000
vn 0.9486833 0.3162278 0.0000000
f 125/125/125 126/126/126 127/127/127
f 125/125/125 127/127/127 128/128/128
v -0.1900000 -1.6000000 0.1000000
v 0.1300000 -1.6000000 0.1000000
v 0.0750000 -1.4000000 0.1000000
v -0.0900000 -1.4000000 0.1000000
vt 0.5200000 0.9800000
vt 0.7300000 0.9800000
vt 0.6939062 0.7700000
vt 0.5856250 0.7700000
vn 0.0000000 0.0000000 1.0000000
vn 0.0000000 0.0000000 1.0000000
vn 0.0000000 0.0000000 1.0000000
vn 0.0000000 0.0000000 1.0000000
f 129/129/129 130/130/130 131/131/131
f 129/129/129 131/131/131 132/132/132
v 0.1300000 -1.6000000 -0.1300000
v -0.1900000 -1.6000000 -0.1300000
v -0.0900000 -1.4000000 -0.1300000
v 0.0750000 -1.4000000 -0.1300000
vt 0.7300000 0.9800000
vt 0.5200000 0.9800000
vt 0.5856250 0.7700000
vt 0.6939062 0.7700000
vn 0.0000000 0.0000000 -1.0000000
vn 0.0000000 0.0000000 -1.0000000
vn 0.0000000 0.0000000 -1.0000000
vn 0.0000000 0.0000000 -1.0000000
f 133/133/133 134/134/134 135/135/135
f 133/133/133 135/135/135 136/136/136
v -0.1900000 -1.6000000 -0.1300000
v 0.1300000 -1.6000000 -0.1300000
v 0.1300000 -1.6000000 0.1000000
v -0.1900000 -1.6000000 0.1000000
vt 0.0200000 0.7300000
vt 0.2300000 0.7300000
vt 0.2300000 0.5200000
vt 0.0200000 0.5200000
vn 0.0000000 -1.0000000 0.0000000
vn 0.0000000 -1.0000000 0.0000000
vn 0.0000000 -1.0000000 0.0000000
vn 0.0000000 -1.0000000 0.0000000
f 137/137/137 138/138/138 139/139/139
f 137/137/137 139/139/139 140/140/140
v -0.0900000 -1.4000000 0.1000000
v 0.0750000 -1.4000000 0.1000000
v 0.0750000 -1.4000000 -0.1300000
v -0.0900000 -1.4000000 -0.1300000
vt 0.7700000 0.7700000
vt 0.9800000 0.7700000
vt 0.9800000 0.9800000
vt 0.7700000 0.9800000
vn -0.0000000 1.0000000 0.0000000
vn -0.0000000 1.0000000 0.0000000
vn -0.0000000 1.0000000 0.0000000
vn -0.0000000 1.0000000 0.0000000
f 141/141/141 142/142/142 143/143/143
f 141/141/141 143/143/143 144/144/144
v 0.1300000 -1.6000000 0.1000000
v 0.2300000 -1.4900000 0.1000000
v 0.1200000 -1.3200000 0.1000000
v 0.0750000 -1.4000000 0.1000000
vt 0.5945161 0.9800000
vt 0.7300000 0.8975000
vt 0.5809677 0.7700000
vt 0.5200000 0.8300000
vn 0.0000000 -0.0000000 1.0000000
vn 0.0000000 -0.0000000 1.0000000
vn 0.0000000 -0.0000000 1.0000000
vn 0.0000000 -0.0000000 1.0000000
f 145/145/145 146/146/146 147/147/147
f 145/145/145 147/147/147 148/148/148
v 0.2300000 -1.4900000 -0.1300000
v 0.1300000 -1.6000000 -0.1300000
v 0.0750000 -1.4000000 -0.1300000
v 0.1200000 -1.3200000 -0.1300000
vt 0.7300000 0.8975000
vt 0.5945161 0.9800000
vt 0.5200000 0.8300000
vt 0.5809677 0.7700000
vn -0.0000000 0.0000000 -1.0000000
vn -0.0000000 0.0000000 -1.0000000
vn -0.0000000 0.0000000 -1.0000000
vn -0.0000000 0.0000000 -1.0000000
f 149/149/149 150/150/150 151/151/151
f 149/149/149 151/151/151 152/152/152
v 0.1300000 -1.6000000 -0.1300000
v 0.2300000 -1.4900000 -0.1300000
v 0.2300000 -1.4900000 0.1000000
v 0.1300000 -1.6000000 0.1000000
vt 0.0200000 0.7300000
vt 0.0200000 0.5200000
vt 0.2300000 0.5200000
vt 0.2300000 0.7300000
vn 0.7399401 -0.6726728 0.0000000
vn 0.7399401 -0.6726728 0.0000000
vn 0.7399401 -0.6726728 0.0000000
vn 0.7399401 -0.6726728 0.0000000
f 153/153/153 154/154/154 155/155/155
f 153/153/153 155/155/155 156/156/156
v 0.0750000 -1.4000000 0.1000000
v 0.1200000 -1.3200000 0.1000000
v 0.1200000 -1.3200000 -0.1300000
v 0.0750000 -1.4000000 -0.1300000
vt 0.9800000 0.9800000
vt 0.9800000 0.7700000
vt 0.7700000 0.7700000
vt 0.7700000 0.9800000
vn -0.8715755 0.4902612 0.0000000
vn -0.8715755 0.4902612 0.0000000
vn -0.8715755 0.4902612 0.0000000
vn -0.8715755 0.4902612 0.0000000
f 157/157/157 158/158/158 159/159/159
f 157/157/157 159/159/159 160/160/160
v 0.2300000 -1.4900000 0.1000000
v 0.2700000 -0.9400000 0.1000000
v 0.1300000 -1.0500000 0.1000000
v 0.1200000 -1.3200000 0.1000000
vt 0.6740000 0.9800000
vt 0.7300000 0.7700000
vt 0.5340000 0.8120000
vt 0.5200000 0.9150909
vn 0.0000000 -0.0000000 1.0000000
vn 0.0000000 -0.0000000 1.0000000
vn 0.0000000 -0.0000000 1.0000000
vn 0.0000000 -0.0000000 1.0000000
f 161/161/161 162/162/162 163/163/163
f 161/161/161 163/163/163 164/164/164
v 0.2700000 -0.9400000 -0.1300000
v 0.2300000 -1.4900000 -0.1300000
v 0.1200000 -1.3200000 -0.1300000
v 0.1300000 -1.0500000 -0.1300000
vt 0.7300000 0.7700000
vt 0.6740000 0.9800000
vt 0.5200000 0.9150909
vt 0.5340000 0.8120000
vn 0.0000000 0.0000000 -1.0000000
vn 0.0000000 0.0000000 -1.0000000
vn 0.0000000 0.0000000 -1.0000000
vn 0.0000000 0.0000000 -1.0000000
f 165/165/165 166/166/166 167/167/167
f 165/165/165 167/167/167 168/168/168
v 0.2300000 -1.4900000 -0.1300000
v 0.2700000 -0.9400000 -0.1300000
v 0.2700000 -0.9400000 0.1000000
v 0.2300000 -1.4900000 0.1000000
vt 0.0200000 0.7300000
vt 0.0200000 0.5200000
vt 0.2300000 0.5200000
vt 0.2300000 0.7300000
vn 0.9973658 -0.0725357 0.0000000
vn 0.9973658 -0.0725357 0.0000000
vn 0.9973658 -0.0725357 0.0000000
vn 0.9973658 -0.0725357 0.0000000
f 169/169/169 170/170/170 171/171/171
f 169/169/169 171/171/171 172/172/172
v 0.1200000 -1.3200000 0.1000000
v 0.1300000 -1.0500000 0.1000000
v 0.1300000 -1.0500000 -0.1300000
v 0.1200000 -1.3200000 -0.1300000
vt 0.9800000 0.9800000
vt 0.9800000 0.7700000
vt 0.7700000 0.7700000
vt 0.7700000 0.9800000
vn -0.9993148 0.0370117 0.0000000
vn -0.9993148 0.0370117 0.0000000
vn -0.9993148 0.0370117 0.0000000
vn -0.9993148 0.0370117 0.0000000
f 173/173/173 174/174/174 175/175/175
f 173/173/173 175/175/175 176/176/176
v 0.2700000 -0.9400000 0.1000000
v -0.2700000 -0.9400000 0.1000000
v -0.1300000 -1.0500000 0.1000000
v 0.1300000 -1.0500000 0.1000000
vt 0.7300000 0.7700000
vt 0.5200000 0.7700000
vt 0.5744444 0.9800000
vt 0.6755556 0.9800000
vn 0.0000000 0.0000000 1.0000000
vn 0.0000000 0.0000000 1.0000000
vn 0.0000000 0.0000000 1.0000000
vn 0.0000000 0.0000000 1.0000000
f 177/177/177 178/178/178 179/179/179
f 177/177/177 179/179/179 180/180/180
v -0.2700000 -0.9400000 -0.1300000
v 0.2700000 -0.9400000 -0.1300000
v 0.1300000 -1.0500000 -0.1300000
v -0.1300000 -1.0500000 -0.1300000
vt 0.5200000 0.7700000
vt 0.7300000 0.7700000
vt 0.6755556 0.9800000
vt 0.5744444 0.9800000
vn 0.0000000 0.0000000 -1.0000000
vn 0.0000000 0.0000000 -1.0000000
vn 0.0000000 0.0000000 -1.0000000
vn 0.0000000 0.0000000 -1.0000000
f 181/181/181 182/182/182 183/183/183
f 181/181/181 183/183/183 184/184/184
v 0.2700000 -0.9400000 -0.1300000
v -0.2700000 -0.9400000 -0.1300000
v -0.2700000 -0.9400000 0.1000000
v 0.2700000 -0.9400000 0.1000000
vt 0.2300000 0.7300000
vt 0.0200000 0.7300000
vt 0.0200000 0.5200000
vt 0.2300000 0.5200000
vn 0.0000000 1.0000000 0.0000000
vn 0.0000000 1.0000000 0.0000000
vn 0.0000000 1.0000000 0.0000000
vn 0.0000000 1.0000000 0.0000000
f 185/185/185 186/186/186 187/187/187
f 185/185/185 187/187/187 188/188/188
v 0.1300000 -1.0500000 0.1000000
v -0.1300000 -1.0500000 0.1000000
v -0.1300000 -1.0500000 -0.1300000
v 0.1300000 -1.0500000 -0.1300000
vt 0.9800000 0.7700000
vt 0.7700000 0.7700000
vt 0.7700000 0.9800000
vt 0.9800000 0.9800000
vn -0.0000000 -1.0000000 0.0000000
vn -0.0000000 -1.0000000 0.0000000
vn -0.0000000 -1.0000000 0.0000000
vn -0.0000000 -1.0000000 0.0000000
f 189/189/189 190/190/190 191/191/191
f 189/189/189 191/191/191 192/192/192
v -0.2700000 -0.9400000 0.1000000
v -0.2700000 -1.4000000 0.1000000
v -0.1300000 -1.2800000 0.1000000
v -0.1300000 -1.0500000 0.1000000
vt 0.5200000 0.7700000
vt 0.5200000 0.9800000
vt 0.7300000 0.9252174
vt 0.7300000 0.8202174
vn 0.0000000 0.0000000 1.0000000
vn 0.0000000 0.0000000 1.0000000
vn 0.0000000 0.0000000 1.0000000
vn 0.0000000 0.0000000 1.0000000
f 193/193/193 194/194/194 195/195/195
f 193/193/193 195/195/195 196/196/196
v -0.2700000 -1.4000000 -0.1300000
v -0.2700000 -0.9400000 -0.1300000
v -0.1300000 -1.0500000 -0.1300000
v -0.1300000 -1.2800000 -0.1300000
vt 0.5200000 0.9800000
vt 0.5200000 0.7700000
vt 0.7300000 0.8202174
vt 0.7300000 0.9252174
vn 0.0000000 0.0000000 -1.0000000
vn 0.0000000 0.0000000 -1.0000000
vn 0.0000000 0.0000000 -1.0000000
vn 0.0000000 0.0000000 -1.0000000
f 197/197/197 198/198/198 199/199/199
f 197/197/197 199/199/199 200/200/200
v -0.2700000 -0.9400000 -0.1300000
v -0.2700000 -1.4000000 -0.1300000
v -0.2700000 -1.4000000 0.1000000
v -0.2700000 -0.9400000 0.1000000
vt 0.2300000 0.7300000
vt 0.0200000 0.7300000
vt 0.0200000 0.5200000
vt 0.2300000 0.5200000
vn -1.0000000 0.0000000 0.0000000
vn -1.0000000 0.0000000 0.0000000
vn -1.0000000 0.0000000 0.0000000
vn -1.0000000 0.0000000 0.0000000
f 201/201/201 202/202/202 203/203/203
f 201/201/201 203/203/203 204/204/204
v -0.1300000 -1.0500000 0.1000000
v -0.1300000 -1.2800000 0.1000000
v -0.1300000 -1.2800000 -0.1300000
v -0.1300000 -1.0500000 -0.1300000
vt 0.9800000 0.7700000
vt 0.7700000 0.7700000
vt 0.7700000 0.9800000
vt 0.9800000 0.9800000
vn 1.0000000 0.0000000 0.0000000
vn 1.0000000 0.0000000 0.0000000
vn 1.0000000 0.0000000 0.0000000
vn 1.0000000 0.0000000 0.0000000
f 205/205/205 206/206/206 207/207/207
f 205/205/205 207/207/207 208/208/208
v -0.2700000 0.9400000 0.1000000
v 0.2700000 0.9400000 0.1000000
v 0.1300000 1.0500000 0.1000000
v -0.1300000 1.0500000 0.1000000
vt 0.5200000 0.9800000
vt 0.7300000 0.9800000
vt 0.6755556 0.7700000
vt 0.5744444 0.7700000
vn 0.0000000 0.0000000 1.0000000
vn 0.0000000 0.0000000 1.0000000
vn 0.0000000 0.0000000 1.0000000
vn 0.0000000 0.0000000 1.0000000
f 209/209/209 210/210/210 211/211/211
f 209/209/209 211/211/211 212/212/212
v 0.2700000 0.9400000 -0.1300000
v -0.2700000 0.9400000 -0.1300000
v -0.1300000 1.0500000 -0.1300000
v 0.1300000 1.0500000 -0.1300000
vt 0.7300000 0.9800000
vt 0.5200000 0.9800000
vt 0.5744444 0.7700000
vt 0.6755556 0.7700000
vn 0.0000000 0.0000000 -1.0000000
vn 0.0000000 0.0000000 -1.0000000
vn 0.0000000 0.0000000 -1.0000000
vn 0.0000000 0.0000000 -1.0000000
f 213/213/213 214/214/214 215/215/215
f 213/213/213 215/215/215 216/216/216
v -0.2700000 0.9400000 -0.1300000
v 0.2700000 0.9400000 -0.1300000
v 0.2700000 0.9400000 0.1000000
v -0.2700000 0.9400000 0.1000000
vt 0.0200000 0.7300000
vt 0.2300000 0.7300000
vt 0.2300000 0.5200000
vt 0.0200000 0.5200000
vn 0.0000000 -1.0000000 0.0000000
vn 0.0000000 -1.0000000 0.0000000
vn 0.0000000 -1.0000000 0.0000000
vn 0.0000000 -1.0000000 0.0000000
f 217/217/217 218/218/218 219/219/219
f 217/217/217 219/219/219 220/220/220
v -0.1300000 1.0500000 0.1000000
v 0.1300000 1.0500000 0.1000000
v 0.1300000 1.0500000 -0.1300000
v -0.1300000 1.0500000 -0.1300000
vt 0.7700000 0.7700000
vt 0.9800000 0.7700000
vt 0.9800000 0.9800000
vt 0.7700000 0.9800000
vn -0.0000000 1.0000000 0.0000000
vn -0.0000000 1.0000000 0.0000000
vn -0.0000000 1.0000000 0.0000000
vn -0.0000000 1.0000000 0.0000000
f 221/221/221 222/222/222 223/223/223
f 221/221/221 223/223/223 224/224/224
v 0.2700000 0.9400000 0.1000000
v 0.2300000 1.4900000 0.1000000
v 0.1200000 1.3200000 0.1000000
v 0.1300000 1.0500000 0.1000000
vt 0.7300000 0.9800000
vt 0.6740000 0.7700000
vt 0.5200000 0.8349091
vt 0.5340000 0.9380000
vn 0.0000000 0.0000000 1.0000000
vn 0.0000000 0.0000000 1.0000000
vn 0.0000000 0.0000000 1.0000000
vn 0.0000000 0.0000000 1.0000000
f 225/225/225 226/226/226 227/227/227
f 225/225/225 227/227/227 228/228/228
v 0.2300000 1.4900000 -0.1300000
v 0.2700000 0.9400000 -0.1300000
v 0.1300000 1.0500000 -0.1300000
v 0.1200000 1.3200000 -0.1300000
vt 0.6740000 0.7700000
vt 0.7300000 0.9800000
vt 0.5340000 0.9380000
vt 0.5200000 0.8349091
vn 0.0000000 -0.0000000 -1.0000000
vn 0.0000000 -0.0000000 -1.0000000
vn 0.0000000 -0.0000000 -1.0000000
vn 0.0000000 -0.0000000 -1.0000000
f 229/229/229 230/230/230 231/231/231
f 229/229/229 231/231/231 232/232/232
v 0.2700000 0.9400000 -0.1300000
v 0.2300000 1.4900000 -0.1300000
v 0.2300000 1.4900000 0.1000000
v 0.2700000 0.9400000 0.1000000
vt 0.0200000 0.7300000
vt 0.0200000 0.5200000
vt 0.2300000 0.5200000
vt 0.2300000 0.7300000
vn 0.9973658 0.0725357 0.0000000
vn 0.9973658 0.0725357 0.0000000
vn 0.9973658 0.0725357 0.0000000
vn 0.9973658 0.0725357 0.0000000
f 233/233/233 234/234/234 235/235/235
f 233/233/233 235/235/235 236/236/236
v 0.1300000 1.0500000 0.1000000
v 0.1200000 1.3200000 0.1000000
v 0.1200000 1.3200000 -0.1300000
v 0.1300000 1.0500000 -0.1300000
vt 0.9800000 0.9800000
vt 0.9800000 0.7700000
vt 0.7700000 0.7700000
vt 0.7700000 0.9800000
vn -0.9993148 -0.0370117 0.0000000
vn -0.9993148 -0.0370117 0.0000000
vn -0.9993148 -0.0370117 0.0000000
vn -0.9993148 -0.0370117 0.0000000
f 237/237/237 238/238/238 239/239/239
f 237/237/237 239/239/239 240/240/240
v 0.2300000 1.4900000 0.1000000
v 0.1300000 1.6000000 0.1000000
v 0.0750000 1.4000000 0.1000000
v 0.1200000 1.3200000 0.1000000
vt 0.7300000 0.8525000
vt 0.5945161 0.7700000
vt 0.5200000 0.9200000
vt 0.5809677 0.9800000
vn 0.0000000 0.0000000 1.0000000
vn 0.0000000 0.0000000 1.0000000
vn 0.0000000 0.0000000 1.0000000
vn 0.0000000 0.0000000 1.0000000
f 241/241/241 242/242/242 243/243/243
f 241/241/241 243/243/243 244/244/244
v 0.1300000 1.6000000 -0.1300000
v 0.2300000 1.4900000 -0.1300000
v 0.1200000 1.3200000 -0.1300000
v 0.0750000 1.4000000 -0.1300000
vt 0.5945161 0.7700000
vt 0.7300000 0.8525000
vt 0.5809677 0.9800000
vt 0.5200000 0.9200000
vn 0.0000000 -0.0000000 -1.0000000
vn 0.0000000 -0.0000000 -1.0000000
vn 0.0000000 -0.0000000 -1.0000000
vn 0.0000000 -0.0000000 -1.0000000
f 245/245/245 246/246/246 247/247/247
f 245/245/245 247/247/247 248/248/248
v 0.2300000 1.4900000 -0.1300000
v 0.1300000 1.6000000 -0.1300000
v 0.1300000 1.6000000 0.1000000
v 0.2300000 1.4900000 0.1000000
vt 0.0200000 0.7300000
vt 0.0200000 0.5200000
vt 0.2300000 0.5200000
vt 0.2300000 0.7300000
vn 0.7399401 0.6726728 0.0000000
vn 0.7399401 0.6726728 0.0000000
vn 0.7399401 0.6726728 0.0000000
vn 0.7399401 0.6726728 0.0000000
f 249/249/249 250/250/250 251/251/251
f 249/249/249 251/251/251 252/252/252
v 0.1200000 1.3200000 0.1000000
v 0.0750000 1.4000000 0.1000000
v 0.0750000 1.4000000 -0.1300000
v 0.1200000 1.3200000 -0.1300000
vt 0.9800000 0.9800000
vt 0.9800000 0.7700000
vt 0.7700000 0.7700000
vt 0.7700000 0.9800000
vn -0.8715755 -0.4902612 0.0000000
vn -0.8715755 -0.4902612 0.0000000
vn -0.8715755 -0.4902612 0.0000000
vn -0.8715755 -0.4902612 0.0000000
f 253/253/253 254/254/254 255/255/255
f 253/253/253 255/255/255 256/256/256
v 0.1300000 1.6000000 0.1000000
v -0.1900000 1.6000000 0.1000000
v -0.0900000 1.4000000 0.1000000
v 0.0750000 1.4000000 0.1000000
vt 0.7300000 0.7700000
vt 0.5200000 0.7700000
vt 0.5856250 0.9800000
vt 0.6939062 0.9800000
vn 0.0000000 0.0000000 1.0000000
vn 0.0000000 0.0000000 1.0000000
vn 0.0000000 0.0000000 1.0000000
vn 0.0000000 0.0000000 1.0000000
f 257/257/257 258/258/258 259/259/259
f 257/257/257 259/259/259 260/260/260
v -0.1900000 1.6000000 -0.1300000
v 0.1300000 1.6000000 -0.1300000
v 0.0750000 1.4000000 -0.1300000
v -0.0900000 1.4000000 -0.1300000
vt 0.5200000 0.7700000
vt 0.7300000 0.7700000
vt 0.6939062 0.9800000
vt 0.5856250 0.9800000
vn 0.0000000 0.0000000 -1.0000000
vn 0.0000000 0.0000000 -1.0000000
vn 0.0000000 0.0000000 -1.0000000
vn 0.0000000 0.0000000 -1.0000000
f 261/261/261 262/262/262 263/263/263
f 261/261/261 263/263/263 264/264/264
v 0.1300000 1.6000000 -0.1300000
v -0.1900000 1.6000000 -0.1300000
v -0.1900000 1.6000000 0.1000000
v 0.1300000 1.6000000 0.1000000
vt 0.2300000 0.7300000
vt 0.0200000 0.7300000
vt 0.0200000 0.5200000
vt 0.2300000 0.5200000
vn 0.0000000 1.0000000 0.0000000
vn 0.0000000 1.0000000 0.0000000
vn 0.0000000 1.0000000 0.0000000
vn 0.0000000 1.0000000 0.0000000
f 265/265/265 266/266/266 267/267/267
f 265/265/265 267/267/267 268/268/268
v 0.0750000 1.4000000 0.1000000
v -0.0900000 1.4000000 0.1000000
v -0.0900000 1.4000000 -0.1300000
v 0.0750000 1.4000000 -0.1300000
vt 0.9800000 0.7700000
vt 0.7700000 0.7700000
vt 0.7700000 0.9800000
vt 0.9800000 0.9800000
vn -0.0000000 -1.0000000 0.0000000
vn -0.0000000 -1.0000000 0.0000000
vn -0.0000000 -1.0000000 0.0000000
vn -0.0000000 -1.0000000 0.0000000
f 269/269/269 270/270/270 271/271/271
f 269/269/269 271/271/271 272/272/272
v -0.1900000 1.6000000 0.1000000
v -0.2700000 1.4000000 0.1000000
v -0.1300000 1.2800000 0.1000000
v -0.0900000 1.4000000 0.1000000
vt 0.6133333 0.7700000
vt 0.5200000 0.9012500
vt 0.6833333 0.9800000
vt 0.7300000 0.9012500
vn 0.0000000 0.0000000 1.0000000
vn 0.0000000 0.0000000 1.0000000
vn 0.0000000 0.0000000 1.0000000
vn 0.0000000 0.0000000 1.0000000
f 273/273/273 274/274/274 275/275/275
f 273/273/273 275/275/275 276/276/276
v -0.2700000 1.4000000 -0.1300000
v -0.1900000 1.6000000 -0.1300000
v -0.0900000 1.4000000 -0.1300000
v -0.1300000 1.2800000 -0.1300000
vt 0.5200000 0.9012500
vt 0.6133333 0.7700000
vt 0.7300000 0.9012500
vt 0.6833333 0.9800000
vn 0.0000000 0.0000000 -1.0000000
vn 0.0000000 0.0000000 -1.0000000
vn 0.0000000 0.0000000 -1.0000000
vn 0.0000000 0.0000000 -1.0000000
f 277/277/277 278/278/278 279/279/279
f 277/277/277 279/279/279 280/280/280
v -0.1900000 1.6000000 -0.1300000
v -0.2700000 1.4000000 -0.1300000
v -0.2700000 1.4000000 0.1000000
v -0.1900000 1.6000000 0.1000000
vt 0.0200000 0.5200000
vt 0.0200000 0.7300000
vt 0.2300000 0.7300000
vt 0.2300000 0.5200000
vn -0.9284767 0.3713907 0.0000000
vn -0.9284767 0.3713907 0.0000000
vn -0.9284767 0.3713907 0.0000000
vn -0.9284767 0.3713907 0.0000000
f 281/281/281 282/282/282 283/283/283
f 281/281/281 283/283/283 284/284/284
v -0.0900000 1.4000000 0.1000000
v -0.1300000 1.2800000 0.1000000
v -0.1300000 1.2800000 -0.1300000
v -0.0900000 1.4000000 -0.1300000
vt 0.9800000 0.7700000
vt 0.9800000 0.9800000
vt 0.7700000 0.9800000
vt 0.7700000 0.7700000
vn 0.9486833 -0.3162278 0.0000000
vn 0.9486833 -0.3162278 0.0000000
vn 0.9486833 -0.3162278 0.0000000
vn 0.9486833 -0.3162278 0.0000000
f 285/285/285 286/286/286 287/287/287
f 285/285/285 287/287/287 288/288/288
v -0.2700000 1.4000000 0.1000000
v -0.2700000 0.9400000 0.1000000
v -0.1300000 1.0500000 0.1000000
v -0.1300000 1.2800000 0.1000000
vt 0.5200000 0.7700000
vt 0.5200000 0.9800000
vt 0.7300000 0.9297826
vt 0.7300000 0.8247826
vn 0.0000000 0.0000000 1.0000000
vn 0.0000000 0.0000000 1.0000000
vn 0.0000000 0.0000000 1.0000000
vn 0.0000000 0.0000000 1.0000000
f 289/289/289 290/290/290 291/291/291
f 289/289/289 291/291/291 292/292/292
v -0.2700000 0.9400000 -0.1300000
v -0.2700000 1.4000000 -0.1300000
v -0.1300000 1.2800000 -0.1300000
v -0.1300000 1.0500000 -0.1300000
vt 0.5200000 0.9800000
vt 0.5200000 0.7700000
vt 0.7300000 0.8247826
vt 0.7300000 0.9297826
vn 0.0000000 0.0000000 -1.0000000
vn 0.0000000 0.0000000 -1.0000000
vn 0.0000000 0.0000000 -1.0000000
vn 0.0000000 0.0000000 -1.0000000
f 293/293/293 294/294/294 295/295/295
f 293/293/293 295/295/295 296/296/296
v -0.2700000 1.4000000 -0.1300000
v -0.2700000 0.9400000 -0.1300000
v -0.2700000 0.9400000 0.1000000
v -0.2700000 1.4000000 0.1000000
vt 0.2300000 0.7300000
vt 0.0200000 0.7300000
vt 0.0200000 0.5200000
vt 0.2300000 0.5200000
vn -1.0000000 0.0000000 0.0000000
vn -1.0000000 0.0000000 0.0000000
vn -1.0000000 0.0000000 0.0000000
vn -1.0000000 0.0000000 0.0000000
f 297/297/297 298/298/298 299/299/299
f 297/297/297 299/299/299 300/300/300
v -0.1300000 1.2800000 0.1000000
v -0.1300000 1.0500000 0.1000000
v -0.1300000 1.0500000 -0.1300000
v -0.1300000 1.2800000 -0.1300000
vt 0.9800000 0.7700000
vt 0.7700000 0.7700000
vt 0.7700000 0.9800000
vt 0.9800000 0.9800000
vn 1.0000000 0.0000000 0.0000000
vn 1.0000000 0.0000000 0.0000000
vn 1.0000000 0.0000000 0.0000000
vn 1.0000000 0.0000000 0.0000000
f 301/301/301 302/302/302 303/303/303
f 301/301/301 303/303/303 304/304/304
v -0.2000000 -0.8120000 0.1440000
v 0.2000000 -0.8120000 0.1440000
v 0.2000000 -0.8480000 0.1440000
v -0.2000000 -0.8480000 0.1440000
vt 0.5200000 0.7700000
vt 0.7300000 0.7700000
vt 0.7300000 0.9800000
vt 0.5200000 0.9800000
vn 0.0000000 0.0000000 -1.0000000
vn 0.0000000 0.0000000 -1.0000000
vn 0.0000000 0.0000000 -1.0000000
vn 0.0000000 0.0000000 -1.0000000
f 305/305/305 306/306/306 307/307/307
f 305/305/305 307/307/307 308/308/308
v -0.2000000 -0.8480000 0.1740000
v 0.2000000 -0.8480000 0.1740000
v 0.2000000 -0.8120000 0.1740000
v -0.2000000 -0.8120000 0.1740000
vt 0.0200000 0.7300000
vt 0.2300000 0.7300000
vt 0.2300000 0.5200000
vt 0.0200000 0.5200000
vn 0.0000000 0.0000000 1.0000000
vn 0.0000000 0.0000000 1.0000000
vn 0.0000000 0.0000000 1.0000000
vn 0.0000000 0.0000000 1.0000000
f 309/309/309 310/310/310 311/311/311
f 309/309/309 311/311/311 312/312/312
v -0.2000000 -0.8480000 0.1440000
v 0.2000000 -0.8480000 0.1440000
v 0.2000000 -0.8480000 0.1740000
v -0.2000000 -0.8480000 0.1740000
vt 0.0200000 0.7300000
vt 0.2300000 0.7300000
vt 0.2300000 0.5200000
vt 0.0200000 0.5200000
vn 0.0000000 -1.0000000 0.0000000
vn 0.0000000 -1.0000000 0.0000000
vn 0.0000000 -1.0000000 0.0000000
vn 0.0000000 -1.0000000 0.0000000
f 313/313/313 314/314/314 315/315/315
f 313/313/313 315/315/315 316/316/316
v 0.2000000 -0.8480000 0.1440000
v 0.2000000 -0.8120000 0.1440000
v 0.2000000 -0.8120000 0.1740000
v 0.2000000 -0.8480000 0.1740000
vt 0.0200000 0.7300000
vt 0.2300000 0.7300000
vt 0.2300000 0.5200000
vt 0.0200000 0.5200000
vn 1.0000000 0.0000000 0.0000000
vn 1.0000000 0.0000000 0.0000000
vn 1.0000000 0.0000000 0.0000000
vn 1.0000000 0.0000000 0.0000000
f 317/317/317 318/318/318 319/319/319
f 317/317/317 319/319/319 320/320/320
v 0.2000000 -0.8120000 0.1440000
v -0.2000000 -0.8120000 0.1440000
v -0.2000000 -0.8120000 0.1740000
v 0.2000000 -0.8120000 0.1740000
vt 0.2300000 0.7300000
vt 0.0200000 0.7300000
vt 0.0200000 0.5200000
vt 0.2300000 0.5200000
vn 0.0000000 1.0000000 0.0000000
vn 0.0000000 1.0000000 0.0000000
vn 0.0000000 1.0000000 0.0000000
vn 0.0000000 1.0000000 0.0000000
f 321/321/321 322/322/322 323/323/323
f 321/321/321 323/323/323 324/324/324
v -0.2000000 -0.8120000 0.1440000
v -0.2000000 -0.8480000 0.1440000
v -0.2000000 -0.8480000 0.1740000
v -0.2000000 -0.8120000 0.1740000
vt 0.2300000 0.7300000
vt 0.0200000 0.7300000
vt 0.0200000 0.5200000
vt 0.2300000 0.5200000
vn -1.0000000 0.0000000 0.0000000
vn -1.0000000 0.0000000 0.0000000
vn -1.0000000 0.0000000 0.0000000
vn -1.0000000 0.0000000 0.0000000
f 325/325/325 326/326/326 327/327/327
f 325/325/325 327/327/327 328/328/328
v -0.1630000 -0.8421244 0.1780000
v -0.1770000 -0.8421244 0.1780000
v -0.1840000 -0.8300000 0.1780000
v -0.1770000 -0.8178756 0.1780000
v -0.1630000 -0.8178756 0.1780000
v -0.1560000 -0.8300000 0.1780000
vt 0.1775000 0.4800000
vt 0.0725000 0.4800000
vt 0.0200000 0.3750000
vt 0.0725000 0.2700000
vt 0.1775000 0.2700000
vt 0.2300000 0.3750000
vn 0.0000000 0.0000000 -1.0000000
vn 0.0000000 0.0000000 -1.0000000
vn 0.0000000 0.0000000 -1.0000000
vn 0.0000000 0.0000000 -1.0000000
vn 0.0000000 0.0000000 -1.0000000
vn 0.0000000 0.0000000 -1.0000000
f 329/329/329 330/330/330 331/331/331
f 329/329/329 331/331/331 332/332/332
f 329/329/329 332/332/332 333/333/333
f 329/329/329 333/333/333 334/334/334
v -0.1560000 -0.8300000 0.1780000
v -0.1630000 -0.8178756 0.1780000
v -0.1630000 -0.8178756 0.1830000
v -0.1560000 -0.8300000 0.1830000
vt 0.0200000 0.4800000
vt 0.0200000 0.2700000
vt 0.2300000 0.2700000
vt 0.2300000 0.4800000
vn 0.8660254 0.5000000 0.0000000
vn 0.8660254 0.5000000 0.0000000
vn 0.8660254 0.5000000 0.0000000
vn 0.8660254 0.5000000 0.0000000
f 335/335/335 336/336/336 337/337/337
f 335/335/335 337/337/337 338/338/338
v -0.1630000 -0.8178756 0.1780000
v -0.1770000 -0.8178756 0.1780000
v -0.1770000 -0.8178756 0.1830000
v -0.1630000 -0.8178756 0.1830000
vt 0.2300000 0.4800000
vt 0.0200000 0.4800000
vt 0.0200000 0.2700000
vt 0.2300000 0.2700000
vn 0.0000000 1.0000000 0.0000000
vn 0.0000000 1.0000000 0.0000000
vn 0.0000000 1.0000000 0.0000000
vn 0.0000000 1.0000000 0.0000000
f 339/339/339 340/340/340 341/341/341
f 339/339/339 341/341/341 342/342/342
v -0.1770000 -0.8178756 0.1780000
v -0.1840000 -0.8300000 0.1780000
v -0.1840000 -0.8300000 0.1830000
v -0.1770000 -0.8178756 0.1830000
vt 0.0200000 0.2700000
vt 0.0200000 0.4800000
vt 0.2300000 0.4800000
vt 0.2300000 0.2700000
vn -0.8660254 0.5000000 0.0000000
vn -0.8660254 0.5000000 0.0000000
vn -0.8660254 0.5000000 0.0000000
vn -0.8660254 0.5000000 0.0000000
f 343/343/343 344/344/344 345/345/345
f 343/343/343 345/345/345 346/346/346
v -0.1840000 -0.8300000 0.1780000
v -0.1770000 -0.8421244 0.1780000
v -0.1770000 -0.8421244 0.1830000
v -0.1840000 -0.8300000 0.1830000
vt 0.0200000 0.2700000
vt 0.0200000 0.4800000
vt 0.2300000 0.4800000
vt 0.2300000 0.2700000
vn -0.8660254 -0.5000000 0.0000000
vn -0.8660254 -0.5000000 0.0000000
vn -0.8660254 -0.5000000 0.0000000
vn -0.8660254 -0.5000000 0.0000000
f 347/347/347 348/348/348 349/349/349
f 347/347/347 349/349/349 350/350/350
v -0.1770000 -0.8421244 0.1780000
v -0.1630000 -0.8421244 0.1780000
v -0.1630000 -0.8421244 0.1830000
v -0.1770000 -0.8421244 0.1830000
vt 0.0200000 0.4800000
vt 0.2300000 0.4800000
vt 0.2300000 0.2700000
vt 0.0200000 0.2700000
vn 0.0000000 -1.0000000 0.0000000
vn 0.0000000 -1.0000000 0.0000000
vn 0.0000000 -1.0000000 0.0000000
vn 0.0000000 -1.0000000 0.0000000
f 351/351/351 352/352/352 353/353/353
f 351/351/351 353/353/353 354/354/354
v -0.1630000 -0.8421244 0.1780000
v -0.1560000 -0.8300000 0.1780000
v -0.1560000 -0.8300000 0.1830000
v -0.1630000 -0.8421244 0.1830000
vt 0.0200000 0.4800000
vt 0.0200000 0.2700000
vt 0.2300000 0.2700000
vt 0.2300000 0.4800000
vn 0.8660254 -0.5000000 0.0000000
vn 0.8660254 -0.5000000 0.0000000
vn 0.8660254 -0.5000000 0.0000000
vn 0.8660254 -0.5000000 0.0000000
f 355/355/355 356/356/356 357/357/357
f 355/355/355 357/357/357 358/358/358
v -0.1560000 -0.8300000 0.1830000
v -0.1630000 -0.8178756 0.1830000
v -0.1770000 -0.8178756 0.1830000
v -0.1840000 -0.8300000 0.1830000
v -0.1770000 -0.8421244 0.1830000
v -0.1630000 -0.8421244 0.1830000
vt 0.2300000 0.3750000
vt 0.1775000 0.2700000
vt 0.0725000 0.2700000
vt 0.0200000 0.3750000
vt 0.0725000 0.4800000
vt 0.1775000 0.4800000
vn 0.0000000 0.0000000 1.0000000
vn 0.0000000 0.0000000 1.0000000
vn 0.0000000 0.0000000 1.0000000
vn 0.0000000 0.0000000 1.0000000
vn 0.0000000 0.0000000 1.0000000
vn 0.0000000 0.0000000 1.0000000
f 359/359/359 360/360/360 361/361/361
f 359/359/359 361/361/361 362/362/362
f 359/359/359 362/362/362 363/363/363
f 359/359/359 363/363/363 364/364/364
v 0.1770000 -0.8421244 0.1780000
v 0.1630000 -0.8421244 0.1780000
v 0.1560000 -0.8300000 0.1780000
v 0.1630000 -0.8178756 0.1780000
v 0.1770000 -0.8178756 0.1780000
v 0.1840000 -0.8300000 0.1780000
vt 0.1775000 0.4800000
vt 0.0725000 0.4800000
vt 0.0200000 0.3750000
vt 0.0725000 0.2700000
vt 0.1775000 0.2700000
vt 0.2300000 0.3750000
vn 0.0000000 0.0000000 -1.0000000
vn 0.0000000 0.0000000 -1.0000000
vn 0.0000000 0.0000000 -1.0000000
vn 0.0000000 0.0000000 -1.0000000
vn 0.0000000 0.0000000 -1.0000000
vn 0.0000000 0.0000000 -1.0000000
f 365/365/365 366/366/366 367/367/367
f 365/365/365 367/367/367 368/368/368
f 365/365/365 368/368/368 369/369/369
f 365/365/365 369/369/369 370/370/370
v 0.1840000 -0.8300000 0.1780000
v 0.1770000 -0.8178756 0.1780000
v 0.1770000 -0.8178756 0.1830000
v 0.1840000 -0.8300000 0.1830000
vt 0.0200000 0.4800000
vt 0.0200000 0.2700000
vt 0.2300000 0.2700000
vt 0.2300000 0.4800000
vn 0.8660254 0.5000000 0.0000000
vn 0.8660254 0.5000000 0.0000000
vn 0.8660254 0.5000000 0.0000000
vn 0.8660254 0.5000000 0.0000000
f 371/371/371 372/372/372 373/373/373
f 371/371/371 373/373/373 374/374/374
v 0.1770000 -0.8178756 0.1780000
v 0.1630000 -0.8178756 0.1780000
v 0.1630000 -0.8178756 0.1830000
v 0.1770000 -0.8178756 0.1830000
vt 0.2300000 0.4800000
vt 0.0200000 0.4800000
vt 0.0200000 0.2700000
vt 0.2300000 0.2700000
vn 0.0000000 1.0000000 0.0000000
vn 0.0000000 1.0000000 0.0000000
vn 0.0000000 1.0000000 0.0000000
vn 0.0000000 1.0000000 0.0000000
f 375/375/375 376/376/376 377/377/377
f 375/375/375 377/377/377 378/378/378
v 0.1630000 -0.8178756 0.1780000
v 0.1560000 -0.8300000 0.1780000
v 0.1560000 -0.8300000 0.1830000
v 0.1630000 -0.8178756 0.1830000
vt 0.0200000 0.2700000
vt 0.0200000 0.4800000
vt 0.2300000 0.4800000
vt 0.2300000 0.2700000
vn -0.8660254 0.5000000 0.0000000
vn -0.8660254 0.5000000 0.0000000
vn -0.8660254 0.5000000 0.0000000
vn -0.8660254 0.5000000 0.0000000
f 379/379/379 380/380/380 381/381/381
f 379/379/379 381/381/381 382/382/382
v 0.1560000 -0.8300000 0.1780000
v 0.1630000 -0.8421244 0.1780000
v 0.1630000 -0.8421244 0.1830000
v 0.1560000 -0.8300000 0.1830000
vt 0.0200000 0.2700000
vt 0.0200000 0.4800000
vt 0.2300000 0.4800000
vt 0.2300000 0.2700000
vn -0.8660254 -0.5000000 0.0000000
vn -0.8660254 -0.5000000 0.0000000
vn -0.8660254 -0.5000000 0.0000000
vn -0.8660254 -0.5000000 0.0000000
f 383/383/383 384/384/384 385/385/385
f 383/383/383 385/385/385 386/386/386
v 0.1630000 -0.8421244 0.1780000
v 0.1770000 -0.8421244 0.1780000
v 0.1770000 -0.8421244 0.1830000
v 0.1630000 -0.8421244 0.1830000
vt 0.0200000 0.4800000
vt 0.2300000 0.4800000
vt 0.2300000 0.2700000
vt 0.0200000 0.2700000
vn 0.0000000 -1.0000000 0.0000000
vn 0.0000000 -1.0000000 0.0000000
vn 0.0000000 -1.0000000 0.0000000
vn 0.0000000 -1.0000000 0.0000000
f 387/387/387 388/388/388 389/389/389
f 387/387/387 389/389/389 390/390/390
v 0.1770000 -0.8421244 0.1780000
v 0.1840000 -0.8300000 0.1780000
v 0.1840000 -0.8300000 0.1830000
v 0.1770000 -0.8421244 0.1830000
vt 0.0200000 0.4800000
vt 0.0200000 0.2700000
vt 0.2300000 0.2700000
vt 0.2300000 0.4800000
vn 0.8660254 -0.5000000 0.0000000
vn 0.8660254 -0.5000000 0.0000000
vn 0.8660254 -0.5000000 0.0000000
vn 0.8660254 -0.5000000 0.0000000
f 391/391/391 392/392/392 393/393/393
f 391/391/391 393/393/393 394/394/394
v 0.1840000 -0.8300000 0.1830000
v 0.1770000 -0.8178756 0.1830000
v 0.1630000 -0.8178756 0.1830000
v 0.1560000 -0.8300000 0.1830000
v 0.1630000 -0.8421244 0.1830000
v 0.1770000 -0.8421244 0.1830000
vt 0.2300000 0.3750000
vt 0.1775000 0.2700000
vt 0.0725000 0.2700000
vt 0.0200000 0.3750000
vt 0.0725000 0.4800000
vt 0.1775000 0.4800000
vn 0.0000000 0.0000000 1.0000000
vn 0.0000000 0.0000000 1.0000000
vn 0.0000000 0.0000000 1.0000000
vn 0.0000000 0.0000000 1.0000000
vn 0.0000000 0.0000000 1.0000000
vn 0.0000000 0.0000000 1.0000000
f 395/395/395 396/396/396 397/397/397
f 395/395/395 397/397/397 398/398/398
f 395/395/395 398/398/398 399/399/399
f 395/395/395 399/399/399 400/400/400
v -0.2000000 0.8480000 0.1440000
v 0.2000000 0.8480000 0.1440000
v 0.2000000 0.8120000 0.1440000
v -0.2000000 0.8120000 0.1440000
vt 0.5200000 0.7700000
vt 0.7300000 0.7700000
vt 0.7300000 0.9800000
vt 0.5200000 0.9800000
vn 0.0000000 0.0000000 -1.0000000
vn 0.0000000 0.0000000 -1.0000000
vn 0.0000000 0.0000000 -1.0000000
vn 0.0000000 0.0000000 -1.0000000
f 401/401/401 402/402/402 403/403/403
f 401/401/401 403/403/403 404/404/404
v -0.2000000 0.8120000 0.1740000
v 0.2000000 0.8120000 0.1740000
v 0.2000000 0.8480000 0.1740000
v -0.2000000 0.8480000 0.1740000
vt 0.0200000 0.7300000
vt 0.2300000 0.7300000
vt 0.2300000 0.5200000
vt 0.0200000 0.5200000
vn 0.0000000 0.0000000 1.0000000
vn 0.0000000 0.0000000 1.0000000
vn 0.0000000 0.0000000 1.0000000
vn 0.0000000 0.0000000 1.0000000
f 405/405/405 406/406/406 407/407/407
f 405/405/405 407/407/407 408/408/408
v -0.2000000 0.8120000 0.1440000
v 0.2000000 0.8120000 0.1440000
v 0.2000000 0.8120000 0.1740000
v -0.2000000 0.8120000 0.1740000
vt 0.0200000 0.7300000
vt 0.2300000 0.7300000
vt 0.2300000 0.5200000
vt 0.0200000 0.5200000
vn 0.0000000 -1.0000000 0.0000000
vn 0.0000000 -1.0000000 0.0000000
vn 0.0000000 -1.0000000 0.0000000
vn 0.0000000 -1.0000000 0.0000000
f 409/409/409 410/410/410 411/411/411
f 409/409/409 411/411/411 412/412/412
v 0.2000000 0.8120000 0.1440000
v 0.2000000 0.8480000 0.1440000
v 0.2000000 0.8480000 0.1740000
v 0.2000000 0.8120000 0.1740000
vt 0.0200000 0.7300000
vt 0.2300000 0.7300000
vt 0.2300000 0.5200000
vt 0.0200000 0.5200000
vn 1.0000000 0.0000000 0.0000000
vn 1.0000000 0.0000000 0.0000000
vn 1.0000000 0.0000000 0.0000000
vn 1.0000000 0.0000000 0.0000000
f 413/413/413 414/414/414 415/415/415
f 413/413/413 415/415/415 416/416/416
v 0.2000000 0.8480000 0.1440000
v -0.2000000 0.8480000 0.1440000
v -0.2000000 0.8480000 0.1740000
v 0.2000000 0.8480000 0.1740000
vt 0.2300000 0.7300000
vt 0.0200000 0.7300000
vt 0.0200000 0.5200000
vt 0.2300000 0.5200000
vn 0.0000000 1.0000000 0.0000000
vn 0.0000000 1.0000000 0.0000000
vn 0.0000000 1.0000000 0.0000000
vn 0.0000000 1.0000000 0.0000000
f 417/417/417 418/418/418 419/419/419
f 417/417/417 419/419/419 420/420/420
v -0.2000000 0.8480000 0.1440000
v -0.2000000 0.8120000 0.1440000
v -0.2000000 0.8120000 0.1740000
v -0.2000000 0.8480000 0.1740000
vt 0.2300000 0.7300000
vt 0.0200000 0.7300000
vt 0.0200000 0.5200000
vt 0.2300000 0.5200000
vn -1.0000000 0.0000000 0.0000000
vn -1.0000000 0.0000000 0.0000000
vn -1.0000000 0.0000000 0.0000000
vn -1.0000000 0.0000000 0.0000000
f 421/421/421 422/422/422 423/423/423
f 421/421/421 423/423/423 424/424/424
v -0.1630000 0.8178756 0.1780000
v -0.1770000 0.8178756 0.1780000
v -0.1840000 0.8300000 0.1780000
v -0.1770000 0.8421244 0.1780000
v -0.1630000 0.8421244 0.1780000
v -0.1560000 0.8300000 0.1780000
vt 0.1775000 0.4800000
vt 0.0725000 0.4800000
vt 0.0200000 0.3750000
vt 0.0725000 0.2700000
vt 0.1775000 0.2700000
vt 0.2300000 0.3750000
vn 0.0000000 0.0000000 -1.0000000
vn 0.0000000 0.0000000 -1.0000000
vn 0.0000000 0.0000000 -1.0000000
vn 0.0000000 0.0000000 -1.0000000
vn 0.0000000 0.0000000 -1.0000000
vn 0.0000000 0.0000000 -1.0000000
f 425/425/425 426/426/426 427/427/427
f 425/425/425 427/427/427 428/428/428
f 425/425/425 428/428/428 429/429/429
f 425/425/425 429/429/429 430/430/430
v -0.1560000 0.8300000 0.1780000
v -0.1630000 0.8421244 0.1780000
v -0.1630000 0.8421244 0.1830000
v -0.1560000 0.8300000 0.1830000
vt 0.0200000 0.4800000
vt 0.0200000 0.2700000
vt 0.2300000 0.2700000
vt 0.2300000 0.4800000
vn 0.8660254 0.5000000 0.0000000
vn 0.8660254 0.5000000 0.0000000
vn 0.8660254 0.5000000 0.0000000
vn 0.8660254 0.5000000 0.0000000
f 431/431/431 432/432/432 433/433/433
f 431/431/431 433/433/433 434/434/434
v -0.1630000 0.8421244 0.1780000
v -0.1770000 0.8421244 0.1780000
v -0.1770000 0.8421244 0.1830000
v -0.1630000 0.8421244 0.1830000
vt 0.2300000 0.4800000
vt 0.0200000 0.4800000
vt 0.0200000 0.2700000
vt 0.2300000 0.2700000
vn 0.0000000 1.0000000 0.0000000
vn 0.0000000 1.0000000 0.0000000
vn 0.0000000 1.0000000 0.0000000
vn 0.0000000 1.0000000 0.0000000
f 435/435/435 436/436/436 437/437/437
f 435/435/435 437/437/437 438/438/438
v -0.1770000 0.8421244 0.1780000
v -0.1840000 0.8300000 0.1780000
v -0.1840000 0.8300000 0.1830000
v -0.1770000 0.8421244 0.1830000
vt 0.0200000 0.2700000
vt 0.0200000 0.4800000
vt 0.2300000 0.4800000
vt 0.2300000 0.2700000
vn -0.8660254 0.5000000 0.0000000
vn -0.8660254 0.5000000 0.0000000
vn -0.8660254 0.5000000 0.0000000
vn -0.8660254 0.5000000 0.0000000
f 439/439/439 440/440/440 441/441/441
f 439/439/439 441/441/441 442/442/442
v -0.1840000 0.8300000 0.1780000
v -0.1770000 0.8178756 0.1780000
v -0.1770000 0.8178756 0.1830000
v -0.1840000 0.8300000 0.1830000
vt 0.0200000 0.2700000
vt 0.0200000 0.4800000
vt 0.2300000 0.4800000
vt 0.2300000 0.2700000
vn -0.8660254 -0.5000000 0.0000000
vn -0.8660254 -0.5000000 0.0000000
vn -0.8660254 -0.5000000 0.0000000
vn -0.8660254 -0.5000000 0.0000000
f 443/443/443 444/444/444 445/445/445
f 443/443/443 445/445/445 446/446/446
v -0.1770000 0.8178756 0.1780000
v -0.1630000 0.8178756 0.1780000
v -0.1630000 0.8178756 0.1830000
v -0.1770000 0.8178756 0.1830000
vt 0.0200000 0.4800000
vt 0.2300000 0.4800000
vt 0.2300000 0.2700000
vt 0.0200000 0.2700000
vn 0.0000000 -1.0000000 0.0000000
vn 0.0000000 -1.0000000 0.0000000
vn 0.0000000 -1.0000000 0.0000000
vn 0.0000000 -1.0000000 0.0000000
f 447/447/447 448/448/448 449/449/449
f 447/447/447 449/449/449 450/450/450
v -0.1630000 0.8178756 0.1780000
v -0.1560000 0.8300000 0.1780000
v -0.1560000 0.8300000 0.1830000
v -0.1630000 0.8178756 0.1830000
vt 0.0200000 0.4800000
vt 0.0200000 0.2700000
vt 0.2300000 0.2700000
vt 0.2300000 0.4800000
vn 0.8660254 -0.5000000 0.0000000
vn 0.8660254 -0.5000000 0.0000000
vn 0.8660254 -0.5000000 0.0000000
vn 0.8660254 -0.5000000 0.0000000
f 451/451/451 452/452/452 453/453/453
f 451/451/451 453/453/453 454/454/454
v -0.1560000 0.8300000 0.1830000
v -0.1630000 0.8421244 0.1830000
v -0.1770000 0.8421244 0.1830000
v -0.1840000 0.8300000 0.1830000
v -0.1770000 0.8178756 0.1830000
v -0.1630000 0.8178756 0.1830000
vt 0.2300000 0.3750000
vt 0.1775000 0.2700000
vt 0.0725000 0.2700000
vt 0.0200000 0.3750000
vt 0.0725000 0.4800000
vt 0.1775000 0.4800000
vn 0.0000000 0.0000000 1.0000000
vn 0.0000000 0.0000000 1.0000000
vn 0.0000000 0.0000000 1.0000000
vn 0.0000000 0.0000000 1.0000000
vn 0.0000000 0.0000000 1.0000000
vn 0.0000000 0.0000000 1.0000000
f 455/455/455 456/456/456 457/457/457
f 455/455/455 457/457/457 458/458/458
f 455/455/455 458/458/458 459/459/459
f 455/455/455 459/459/459 460/460/460
v 0.1770000 0.8178756 0.1780000
v 0.1630000 0.8178756 0.1780000
v 0.1560000 0.8300000 0.1780000
v 0.1630000 0.8421244 0.1780000
v 0.1770000 0.8421244 0.1780000
v 0.1840000 0.8300000 0.1780000
vt 0.1775000 0.4800000
vt 0.0725000 0.4800000
vt 0.0200000 0.3750000
vt 0.0725000 0.2700000
vt 0.1775000 0.2700000
vt 0.2300000 0.3750000
vn 0.0000000 0.0000000 -1.0000000
vn 0.0000000 0.0000000 -1.0000000
vn 0.0000000 0.0000000 -1.0000000
vn 0.0000000 0.0000000 -1.0000000
vn 0.0000000 0.0000000 -1.0000000
vn 0.0000000 0.0000000 -1.0000000
f 461/461/461 462/462/462 463/463/463
f 461/461/461 463/463/463 464/464/464
f 461/461/461 464/464/464 465/465/465
f 461/461/461 465/465/465 466/466/466
v 0.1840000 0.8300000 0.1780000
v 0.1770000 0.8421244 0.1780000
v 0.1770000 0.8421244 0.1830000
v 0.1840000 0.8300000 0.1830000
vt 0.0200000 0.4800000
vt 0.0200000 0.2700000
vt 0.2300000 0.2700000
vt 0.2300000 0.4800000
vn 0.8660254 0.5000000 0.0000000
vn 0.8660254 0.5000000 0.0000000
vn 0.8660254 0.5000000 0.0000000
vn 0.8660254 0.5000000 0.0000000
f 467/467/467 468/468/468 469/469/469
f 467/467/467 469/469/469 470/470/470
v 0.1770000 0.8421244 0.1780000
v 0.1630000 0.8421244 0.1780000
v 0.1630000 0.8421244 0.1830000
v 0.1770000 0.8421244 0.1830000
vt 0.2300000 0.4800000
vt 0.0200000 0.4800000
vt 0.0200000 0.2700000
vt 0.2300000 0.2700000
vn 0.0000000 1.0000000 0.0000000
vn 0.0000000 1.0000000 0.0000000
vn 0.0000000 1.0000000 0.0000000
vn 0.0000000 1.0000000 0.0000000
f 471/471/471 472/472/472 473/473/473
f 471/471/471 473/473/473 474/474/474
v 0.1630000 0.8421244 0.1780000
v 0.1560000 0.8300000 0.1780000
v 0.1560000 0.8300000 0.1830000
v 0.1630000 0.8421244 0.1830000
vt 0.0200000 0.2700000
vt 0.0200000 0.4800000
vt 0.2300000 0.4800000
vt 0.2300000 0.2700000
vn -0.8660254 0.5000000 0.0000000
vn -0.8660254 0.5000000 0.0000000
vn -0.8660254 0.5000000 0.0000000
vn -0.8660254 0.5000000 0.0000000
f 475/475/475 476/476/476 477/477/477
f 475/475/475 477/477/477 478/478/478
v 0.1560000 0.8300000 0.1780000
v 0.1630000 0.8178756 0.1780000
v 0.1630000 0.8178756 0.1830000
v 0.1560000 0.8300000 0.1830000
vt 0.0200000 0.2700000
vt 0.0200000 0.4800000
vt 0.2300000 0.4800000
vt 0.2300000 0.2700000
vn -0.8660254 -0.5000000 0.0000000
vn -0.8660254 -0.5000000 0.0000000
vn -0.8660254 -0.5000000 0.0000000
vn -0.8660254 -0.5000000 0.0000000
f 479/479/479 480/480/480 481/481/481
f 479/479/479 481/481/481 482/482/482
v 0.1630000 0.8178756 0.1780000
v 0.1770000 0.8178756 0.1780000
v 0.1770000 0.8178756 0.1830000
v 0.1630000 0.8178756 0.1830000
vt 0.0200000 0.4800000
vt 0.2300000 0.4800000
vt 0.2300000 0.2700000
vt 0.0200000 0.2700000
vn 0.0000000 -1.0000000 0.0000000
vn 0.0000000 -1.0000000 0.0000000
vn 0.0000000 -1.0000000 0.0000000
vn 0.0000000 -1.0000000 0.0000000
f 483/483/483 484/484/484 485/485/485
f 483/483/483 485/485/485 486/486/486
v 0.1770000 0.8178756 0.1780000
v 0.1840000 0.8300000 0.1780000
v 0.1840000 0.8300000 0.1830000
v 0.1770000 0.8178756 0.1830000
vt 0.0200000 0.4800000
vt 0.0200000 0.2700000
vt 0.2300000 0.2700000
vt 0.2300000 0.4800000
vn 0.8660254 -0.5000000 0.0000000
vn 0.8660254 -0.5000000 0.0000000
vn 0.8660254 -0.5000000 0.0000000
vn 0.8660254 -0.5000000 0.0000000
f 487/487/487 488/488/488 489/489/489
f 487/487/487 489/489/489 490/490/490
v 0.1840000 0.8300000 0.1830000
v 0.1770000 0.8421244 0.1830000
v 0.1630000 0.8421244 0.1830000
v 0.1560000 0.8300000 0.1830000
v 0.1630000 0.8178756 0.1830000
v 0.1770000 0.8178756 0.1830000
vt 0.2300000 0.3750000
vt 0.1775000 0.2700000
vt 0.0725000 0.2700000
vt 0.0200000 0.3750000
vt 0.0725000 0.4800000
vt 0.1775000 0.4800000
vn 0.0000000 0.0000000 1.0000000
vn 0.0000000 0.0000000 1.0000000
vn 0.0000000 0.0000000 1.0000000
vn 0.0000000 0.0000000 1.0000000
vn 0.0000000 0.0000000 1.0000000
vn 0.0000000 0.0000000 1.0000000
f 491/491/491 492/492/492 493/493/493
f 491/491/491 493/493/493 494/494/494
f 491/491/491 494/494/494 495/495/495
f 491/491/491 495/495/495 496/496/496
v -0.2150000 1.1200000 -0.2250000
v -0.1450000 1.1200000 -0.2250000
v -0.1450000 -1.1200000 -0.2250000
v -0.2150000 -1.1200000 -0.2250000
vt 0.5200000 0.7700000
vt 0.7300000 0.7700000
vt 0.7300000 0.9800000
vt 0.5200000 0.9800000
vn 0.0000000 0.0000000 -1.0000000
vn 0.0000000 0.0000000 -1.0000000
vn 0.0000000 0.0000000 -1.0000000
vn 0.0000000 0.0000000 -1.0000000
f 497/497/497 498/498/498 499/499/499
f 497/497/497 499/499/499 500/500/500
v -0.2150000 -1.1200000 -0.1450000
v -0.1450000 -1.1200000 -0.1450000
v -0.1450000 1.1200000 -0.1450000
v -0.2150000 1.1200000 -0.1450000
vt 0.5200000 0.9800000
vt 0.7300000 0.9800000
vt 0.7300000 0.7700000
vt 0.5200000 0.7700000
vn 0.0000000 0.0000000 1.0000000
vn 0.0000000 0.0000000 1.0000000
vn 0.0000000 0.0000000 1.0000000
vn 0.0000000 0.0000000 1.0000000
f 501/501/501 502/502/502 503/503/503
f 501/501/501 503/503/503 504/504/504
v -0.2150000 -1.1200000 -0.2250000
v -0.1450000 -1.1200000 -0.2250000
v -0.1450000 -1.1200000 -0.1450000
v -0.2150000 -1.1200000 -0.1450000
vt 0.5200000 0.9800000
vt 0.7300000 0.9800000
vt 0.7300000 0.7700000
vt 0.5200000 0.7700000
vn 0.0000000 -1.0000000 0.0000000
vn 0.0000000 -1.0000000 0.0000000
vn 0.0000000 -1.0000000 0.0000000
vn 0.0000000 -1.0000000 0.0000000
f 505/505/505 506/506/506 507/507/507
f 505/505/505 507/507/507 508/508/508
v -0.1450000 -1.1200000 -0.2250000
v -0.1450000 1.1200000 -0.2250000
v -0.1450000 1.1200000 -0.1450000
v -0.1450000 -1.1200000 -0.1450000
vt 0.5200000 0.9800000
vt 0.7300000 0.9800000
vt 0.7300000 0.7700000
vt 0.5200000 0.7700000
vn 1.0000000 0.0000000 0.0000000
vn 1.0000000 0.0000000 0.0000000
vn 1.0000000 0.0000000 0.0000000
vn 1.0000000 0.0000000 0.0000000
f 509/509/509 510/510/510 511/511/511
f 509/509/509 511/511/511 512/512/512
v -0.1450000 1.1200000 -0.2250000
v -0.2150000 1.1200000 -0.2250000
v -0.2150000 1.1200000 -0.1450000
v -0.1450000 1.1200000 -0.1450000
vt 0.7300000 0.9800000
vt 0.5200000 0.9800000
vt 0.5200000 0.7700000
vt 0.7300000 0.7700000
vn 0.0000000 1.0000000 0.0000000
vn 0.0000000 1.0000000 0.0000000
vn 0.0000000 1.0000000 0.0000000
vn 0.0000000 1.0000000 0.0000000
f 513/513/513 514/514/514 515/515/515
f 513/513/513 515/515/515 516/516/516
v -0.2150000 1.1200000 -0.2250000
v -0.2150000 -1.1200000 -0.2250000
v -0.2150000 -1.1200000 -0.1450000
v -0.2150000 1.1200000 -0.1450000
vt 0.7300000 0.9800000
vt 0.5200000 0.9800000
vt 0.5200000 0.7700000
vt 0.7300000 0.7700000
vn -1.0000000 0.0000000 0.0000000
vn -1.0000000 0.0000000 0.0000000
vn -1.0000000 0.0000000 0.0000000
vn -1.0000000 0.0000000 0.0000000
f 517/517/517 518/518/518 519/519/519
f 517/517/517 519/519/519 520/520/520
v 0.1450000 1.1200000 -0.2250000
v 0.2150000 1.1200000 -0.2250000
v 0.2150000 -1.1200000 -0.2250000
v 0.1450000 -1.1200000 -0.2250000
vt 0.5200000 0.7700000
vt 0.7300000 0.7700000
vt 0.7300000 0.9800000
vt 0.5200000 0.9800000
vn 0.0000000 0.0000000 -1.0000000
vn 0.0000000 0.0000000 -1.0000000
vn 0.0000000 0.0000000 -1.0000000
vn 0.0000000 0.0000000 -1.0000000
f 521/521/521 522/522/522 523/523/523
f 521/521/521 523/523/523 524/524/524
v 0.1450000 -1.1200000 -0.1450000
v 0.2150000 -1.1200000 -0.1450000
v 0.2150000 1.1200000 -0.1450000
v 0.1450000 1.1200000 -0.1450000
vt 0.5200000 0.9800000
vt 0.7300000 0.9800000
vt 0.7300000 0.7700000
vt 0.5200000 0.7700000
vn 0.0000000 0.0000000 1.0000000
vn 0.0000000 0.0000000 1.0000000
vn 0.0000000 0.0000000 1.0000000
vn 0.0000000 0.0000000 1.0000000
f 525/525/525 526/526/526 527/527/527
f 525/525/525 527/527/527 528/528/528
v 0.1450000 -1.1200000 -0.2250000
v 0.2150000 -1.1200000 -0.2250000
v 0.2150000 -1.1200000 -0.1450000
v 0.1450000 -1.1200000 -0.1450000
vt 0.5200000 0.9800000
vt 0.7300000 0.9800000
vt 0.7300000 0.7700000
vt 0.5200000 0.7700000
vn 0.0000000 -1.0000000 0.0000000
vn 0.0000000 -1.0000000 0.0000000
vn 0.0000000 -1.0000000 0.0000000
vn 0.0000000 -1.0000000 0.0000000
f 529/529/529 530/530/530 531/531/531
f 529/529/529 531/531/531 532/532/532
v 0.2150000 -1.1200000 -0.2250000
v 0.2150000 1.1200000 -0.2250000
v 0.2150000 1.1200000 -0.1450000
v 0.2150000 -1.1200000 -0.1450000
vt 0.5200000 0.9800000
vt 0.7300000 0.9800000
vt 0.7300000 0.7700000
vt 0.5200000 0.7700000
vn 1.0000000 0.0000000 0.0000000
vn 1.0000000 0.0000000 0.0000000
vn 1.0000000 0.0000000 0.0000000
vn 1.0000000 0.0000000 0.0000000
f 533/533/533 534/534/534 535/535/535
f 533/533/533 535/535/535 536/536/536
v 0.2150000 1.1200000 -0.2250000
v 0.1450000 1.1200000 -0.2250000
v 0.1450000 1.1200000 -0.1450000
v 0.2150000 1.1200000 -0.1450000
vt 0.7300000 0.9800000
vt 0.5200000 0.9800000
vt 0.5200000 0.7700000
vt 0.7300000 0.7700000
vn 0.0000000 1.0000000 0.0000000
vn 0.0000000 1.0000000 0.0000000
vn 0.0000000 1.0000000 0.0000000
vn 0.0000000 1.0000000 0.0000000
f 537/537/537 538/538/538 539/539/539
f 537/537/537 539/539/539 540/540/540
v 0.1450000 1.1200000 -0.2250000
v 0.1450000 -1.1200000 -0.2250000
v 0.1450000 -1.1200000 -0.1450000
v 0.1450000 1.1200000 -0.1450000
vt 0.7300000 0.9800000
vt 0.5200000 0.9800000
vt 0.5200000 0.7700000
vt 0.7300000 0.7700000
vn -1.0000000 0.0000000 0.0000000
vn -1.0000000 0.0000000 0.0000000
vn -1.0000000 0.0000000 0.0000000
vn -1.0000000 0.0000000 0.0000000
f 541/541/541 542/542/542 543/543/543
f 541/541/541 543/543/543 544/544/544
v -0.1400000 0.2800000 -0.3050000
v 0.1400000 0.2800000 -0.3050000
v 0.1400000 -0.2800000 -0.3050000
v -0.1400000 -0.2800000 -0.3050000
vt 0.5200000 0.7700000
vt 0.7300000 0.7700000
vt 0.7300000 0.9800000
vt 0.5200000 0.9800000
vn 0.0000000 0.0000000 -1.0000000
vn 0.0000000 0.0000000 -1.0000000
vn 0.0000000 0.0000000 -1.0000000
vn 0.0000000 0.0000000 -1.0000000
f 545/545/545 546/546/546 547/547/547
f 545/545/545 547/547/547 548/548/548
v -0.1400000 -0.2800000 -0.1350000
v 0.1400000 -0.2800000 -0.1350000
v 0.1400000 0.2800000 -0.1350000
v -0.1400000 0.2800000 -0.1350000
vt 0.5200000 0.9800000
vt 0.7300000 0.9800000
vt 0.7300000 0.7700000
vt 0.5200000 0.7700000
vn 0.0000000 0.0000000 1.0000000
vn 0.0000000 0.0000000 1.0000000
vn 0.0000000 0.0000000 1.0000000
vn 0.0000000 0.0000000 1.0000000
f 549/549/549 550/550/550 551/551/551
f 549/549/549 551/551/551 552/552/552
v -0.1400000 -0.2800000 -0.3050000
v 0.1400000 -0.2800000 -0.3050000
v 0.1400000 -0.2800000 -0.1350000
v -0.1400000 -0.2800000 -0.1350000
vt 0.5200000 0.9800000
vt 0.7300000 0.9800000
vt 0.7300000 0.7700000
vt 0.5200000 0.7700000
vn 0.0000000 -1.0000000 0.0000000
vn 0.0000000 -1.0000000 0.0000000
vn 0.0000000 -1.0000000 0.0000000
vn 0.0000000 -1.0000000 0.0000000
f 553/553/553 554/554/554 555/555/555
f 553/553/553 555/555/555 556/556/556
v 0.1400000 -0.2800000 -0.3050000
v 0.1400000 0.2800000 -0.3050000
v 0.1400000 0.2800000 -0.1350000
v 0.1400000 -0.2800000 -0.1350000
vt 0.5200000 0.9800000
vt 0.7300000 0.9800000
vt 0.7300000 0.7700000
vt 0.5200000 0.7700000
vn 1.0000000 0.0000000 0.0000000
vn 1.0000000 0.0000000 0.0000000
vn 1.0000000 0.0000000 0.0000000
vn 1.0000000 0.0000000 0.0000000
f 557/557/557 558/558/558 559/559/559
f 557/557/557 559/559/559 560/560/560
v 0.1400000 0.2800000 -0.3050000
v -0.1400000 0.2800000 -0.3050000
v -0.1400000 0.2800000 -0.1350000
v 0.1400000 0.2800000 -0.1350000
vt 0.7300000 0.9800000
vt 0.5200000 0.9800000
vt 0.5200000 0.7700000
vt 0.7300000 0.7700000
vn 0.0000000 1.0000000 0.0000000
vn 0.0000000 1.0000000 0.0000000
vn 0.0000000 1.0000000 0.0000000
vn 0.0000000 1.0000000 0.0000000
f 561/561/561 562/562/562 563/563/563
f 561/561/561 563/563/563 564/564/564
v -0.1400000 0.2800000 -0.3050000
v -0.1400000 -0.2800000 -0.3050000
v -0.1400000 -0.2800000 -0.1350000
v -0.1400000 0.2800000 -0.1350000
vt 0.7300000 0.9800000
vt 0.5200000 0.9800000
vt 0.5200000 0.7700000
vt 0.7300000 0.7700000
vn -1.0000000 0.0000000 0.0000000
vn -1.0000000 0.0000000 0.0000000
vn -1.0000000 0.0000000 0.0000000
vn -1.0000000 0.0000000 0.0000000
f 565/565/565 566/566/566 567/567/567
f 565/565/565 567/567/567 568/568/568
