# Original mesh reconstructed from user-supplied concept reference.
mtllib TwinShieldDrone.mtl
o TwinShieldCore
usemtl industrial_armour
v 0.1283995 -0.0203365 0.7210000
v 0.1236373 -0.0401722 0.7210000
v 0.1158308 -0.0590188 0.7210000
v 0.1051722 -0.0764121 0.7210000
v 0.0919239 -0.0919239 0.7210000
v 0.0764121 -0.1051722 0.7210000
v 0.0590188 -0.1158308 0.7210000
v 0.0401722 -0.1236373 0.7210000
v 0.0203365 -0.1283995 0.7210000
v -0.0000000 -0.1300000 0.7210000
v -0.0203365 -0.1283995 0.7210000
v -0.0401722 -0.1236373 0.7210000
v -0.0590188 -0.1158308 0.7210000
v -0.0764121 -0.1051722 0.7210000
v -0.0919239 -0.0919239 0.7210000
v -0.1051722 -0.0764121 0.7210000
v -0.1158308 -0.0590188 0.7210000
v -0.1236373 -0.0401722 0.7210000
v -0.1283995 -0.0203365 0.7210000
v -0.1300000 0.0000000 0.7210000
v -0.1283995 0.0203365 0.7210000
v -0.1236373 0.0401722 0.7210000
v -0.1158308 0.0590188 0.7210000
v -0.1051722 0.0764121 0.7210000
v -0.0919239 0.0919239 0.7210000
v -0.0764121 0.1051722 0.7210000
v -0.0590188 0.1158308 0.7210000
v -0.0401722 0.1236373 0.7210000
v -0.0203365 0.1283995 0.7210000
v 0.0000000 0.1300000 0.7210000
v 0.0203365 0.1283995 0.7210000
v 0.0401722 0.1236373 0.7210000
v 0.0590188 0.1158308 0.7210000
v 0.0764121 0.1051722 0.7210000
v 0.0919239 0.0919239 0.7210000
v 0.1051722 0.0764121 0.7210000
v 0.1158308 0.0590188 0.7210000
v 0.1236373 0.0401722 0.7210000
v 0.1283995 0.0203365 0.7210000
v 0.1300000 0.0000000 0.7210000
vt 0.2287073 0.1414256
vt 0.2248609 0.1574468
vt 0.2185557 0.1726690
vt 0.2099468 0.1867175
vt 0.1992462 0.1992462
vt 0.1867175 0.2099468
vt 0.1726690 0.2185557
vt 0.1574468 0.2248609
vt 0.1414256 0.2287073
vt 0.1250000 0.2300000
vt 0.1085744 0.2287073
vt 0.0925532 0.2248609
vt 0.0773310 0.2185557
vt 0.0632825 0.2099468
vt 0.0507538 0.1992462
vt 0.0400532 0.1867175
vt 0.0314443 0.1726690
vt 0.0251391 0.1574468
vt 0.0212927 0.1414256
vt 0.0200000 0.1250000
vt 0.0212927 0.1085744
vt 0.0251391 0.0925532
vt 0.0314443 0.0773310
vt 0.0400532 0.0632825
vt 0.0507538 0.0507538
vt 0.0632825 0.0400532
vt 0.0773310 0.0314443
vt 0.0925532 0.0251391
vt 0.1085744 0.0212927
vt 0.1250000 0.0200000
vt 0.1414256 0.0212927
vt 0.1574468 0.0251391
vt 0.1726690 0.0314443
vt 0.1867175 0.0400532
vt 0.1992462 0.0507538
vt 0.2099468 0.0632825
vt 0.2185557 0.0773310
vt 0.2248609 0.0925532
vt 0.2287073 0.1085744
vt 0.2300000 0.1250000
vn 0.0000000 0.0000000 -1.0000000
vn 0.0000000 0.0000000 -1.0000000
vn 0.0000000 0.0000000 -1.0000000
vn 0.0000000 0.0000000 -1.0000000
vn 0.0000000 0.0000000 -1.0000000
vn 0.0000000 0.0000000 -1.0000000
vn 0.0000000 0.0000000 -1.0000000
vn 0.0000000 0.0000000 -1.0000000
vn 0.0000000 0.0000000 -1.0000000
vn 0.0000000 0.0000000 -1.0000000
vn 0.0000000 0.0000000 -1.0000000
vn 0.0000000 0.0000000 -1.0000000
vn 0.0000000 0.0000000 -1.0000000
vn 0.0000000 0.0000000 -1.0000000
vn 0.0000000 0.0000000 -1.0000000
vn 0.0000000 0.0000000 -1.0000000
vn 0.0000000 0.0000000 -1.0000000
vn 0.0000000 0.0000000 -1.0000000
vn 0.0000000 0.0000000 -1.0000000
vn 0.0000000 0.0000000 -1.0000000
vn 0.0000000 0.0000000 -1.0000000
vn 0.0000000 0.0000000 -1.0000000
vn 0.0000000 0.0000000 -1.0000000
vn 0.0000000 0.0000000 -1.0000000
vn 0.0000000 0.0000000 -1.0000000
vn 0.0000000 0.0000000 -1.0000000
vn 0.0000000 0.0000000 -1.0000000
vn 0.0000000 0.0000000 -1.0000000
vn 0.0000000 0.0000000 -1.0000000
vn 0.0000000 0.0000000 -1.0000000
vn 0.0000000 0.0000000 -1.0000000
vn 0.0000000 0.0000000 -1.0000000
vn 0.0000000 0.0000000 -1.0000000
vn 0.0000000 0.0000000 -1.0000000
vn 0.0000000 0.0000000 -1.0000000
vn 0.0000000 0.0000000 -1.0000000
vn 0.0000000 0.0000000 -1.0000000
vn 0.0000000 0.0000000 -1.0000000
vn 0.0000000 0.0000000 -1.0000000
vn 0.0000000 0.0000000 -1.0000000
f 1/1/1 2/2/2 3/3/3
f 1/1/1 3/3/3 4/4/4
f 1/1/1 4/4/4 5/5/5
f 1/1/1 5/5/5 6/6/6
f 1/1/1 6/6/6 7/7/7
f 1/1/1 7/7/7 8/8/8
f 1/1/1 8/8/8 9/9/9
f 1/1/1 9/9/9 10/10/10
f 1/1/1 10/10/10 11/11/11
f 1/1/1 11/11/11 12/12/12
f 1/1/1 12/12/12 13/13/13
f 1/1/1 13/13/13 14/14/14
f 1/1/1 14/14/14 15/15/15
f 1/1/1 15/15/15 16/16/16
f 1/1/1 16/16/16 17/17/17
f 1/1/1 17/17/17 18/18/18
f 1/1/1 18/18/18 19/19/19
f 1/1/1 19/19/19 20/20/20
f 1/1/1 20/20/20 21/21/21
f 1/1/1 21/21/21 22/22/22
f 1/1/1 22/22/22 23/23/23
f 1/1/1 23/23/23 24/24/24
f 1/1/1 24/24/24 25/25/25
f 1/1/1 25/25/25 26/26/26
f 1/1/1 26/26/26 27/27/27
f 1/1/1 27/27/27 28/28/28
f 1/1/1 28/28/28 29/29/29
f 1/1/1 29/29/29 30/30/30
f 1/1/1 30/30/30 31/31/31
f 1/1/1 31/31/31 32/32/32
f 1/1/1 32/32/32 33/33/33
f 1/1/1 33/33/33 34/34/34
f 1/1/1 34/34/34 35/35/35
f 1/1/1 35/35/35 36/36/36
f 1/1/1 36/36/36 37/37/37
f 1/1/1 37/37/37 38/38/38
f 1/1/1 38/38/38 39/39/39
f 1/1/1 39/39/39 40/40/40
v 0.1300000 0.0000000 0.7210000
v 0.1283995 0.0203365 0.7210000
v 0.1135842 0.0179900 0.7500000
v 0.1150000 0.0000000 0.7500000
vt 0.0200000 0.2300000
vt 0.2300000 0.2300000
vt 0.2057692 0.0200000
vt 0.0200000 0.0200000
vn 0.8860554 0.0697341 0.4583045
vn 0.8860554 0.0697341 0.4583045
vn 0.8860554 0.0697341 0.4583045
vn 0.8860554 0.0697341 0.4583045
f 41/41/41 42/42/42 43/43/43
f 41/41/41 43/43/43 44/44/44
v 0.1283995 0.0203365 0.7210000
v 0.1236373 0.0401722 0.7210000
v 0.1093715 0.0355370 0.7500000
v 0.1135842 0.0179900 0.7500000
vt 0.0422145 0.2300000
vt 0.2300000 0.2300000
vt 0.1861179 0.0200000
vt 0.0200000 0.0200000
vn 0.8642378 0.2074851 0.4583045
vn 0.8642378 0.2074851 0.4583045
vn 0.8642378 0.2074851 0.4583045
vn 0.8642378 0.2074851 0.4583045
f 45/45/45 46/46/46 47/47/47
f 45/45/45 47/47/47 48/48/48
v 0.1236373 0.0401722 0.7210000
v 0.1158308 0.0590188 0.7210000
v 0.1024658 0.0522089 0.7500000
v 0.1093715 0.0355370 0.7500000
vt 0.0614535 0.2300000
vt 0.2300000 0.2300000
vt 0.1690988 0.0200000
vt 0.0200000 0.0200000
vn 0.8211397 0.3401272 0.4583045
vn 0.8211397 0.3401272 0.4583045
vn 0.8211397 0.3401272 0.4583045
vn 0.8211397 0.3401272 0.4583045
f 49/49/49 50/50/50 51/51/51
f 49/49/49 51/51/51 52/52/52
v 0.1158308 0.0590188 0.7210000
v 0.1051722 0.0764121 0.7210000
v 0.0930370 0.0675953 0.7500000
v 0.1024658 0.0522089 0.7500000
vt 0.0200000 0.1709139
vt 0.0200000 0.0200000
vt 0.2300000 0.0964992
vt 0.2300000 0.2300000
vn 0.7578225 0.4643942 0.4583045
vn 0.7578225 0.4643942 0.4583045
vn 0.7578225 0.4643942 0.4583045
vn 0.7578225 0.4643942 0.4583045
f 53/53/53 54/54/54 55/55/55
f 53/53/53 55/55/55 56/56/56
v 0.1051722 0.0764121 0.7210000
v 0.0919239 0.0919239 0.7210000
v 0.0813173 0.0813173 0.7500000
v 0.0930370 0.0675953 0.7500000
vt 0.0200000 0.1538951
vt 0.0200000 0.0200000
vt 0.2300000 0.1115543
vt 0.2300000 0.2300000
vn 0.6758452 0.5772263 0.4583045
vn 0.6758452 0.5772263 0.4583045
vn 0.6758452 0.5772263 0.4583045
vn 0.6758452 0.5772263 0.4583045
f 57/57/57 58/58/58 59/59/59
f 57/57/57 59/59/59 60/60/60
v 0.0919239 0.0919239 0.7210000
v 0.0764121 0.1051722 0.7210000
v 0.0675953 0.0930370 0.7500000
v 0.0813173 0.0813173 0.7500000
vt 0.0200000 0.0200000
vt 0.0200000 0.1538951
vt 0.2300000 0.2300000
vt 0.2300000 0.1115543
vn 0.5772263 0.6758452 0.4583045
vn 0.5772263 0.6758452 0.4583045
vn 0.5772263 0.6758452 0.4583045
vn 0.5772263 0.6758452 0.4583045
f 61/61/61 62/62/62 63/63/63
f 61/61/61 63/63/63 64/64/64
v 0.0764121 0.1051722 0.7210000
v 0.0590188 0.1158308 0.7210000
v 0.0522089 0.1024658 0.7500000
v 0.0675953 0.0930370 0.7500000
vt 0.0200000 0.0200000
vt 0.0200000 0.1709139
vt 0.2300000 0.2300000
vt 0.2300000 0.0964992
vn 0.4643942 0.7578225 0.4583045
vn 0.4643942 0.7578225 0.4583045
vn 0.4643942 0.7578225 0.4583045
vn 0.4643942 0.7578225 0.4583045
f 65/65/65 66/66/66 67/67/67
f 65/65/65 67/67/67 68/68/68
v 0.0590188 0.1158308 0.7210000
v 0.0401722 0.1236373 0.7210000
v 0.0355370 0.1093715 0.7500000
v 0.0522089 0.1024658 0.7500000
vt 0.2300000 0.2300000
vt 0.0614535 0.2300000
vt 0.0200000 0.0200000
vt 0.1690988 0.0200000
vn 0.3401272 0.8211397 0.4583045
vn 0.3401272 0.8211397 0.4583045
vn 0.3401272 0.8211397 0.4583045
vn 0.3401272 0.8211397 0.4583045
f 69/69/69 70/70/70 71/71/71
f 69/69/69 71/71/71 72/72/72
v 0.0401722 0.1236373 0.7210000
v 0.0203365 0.1283995 0.7210000
v 0.0179900 0.1135842 0.7500000
v 0.0355370 0.1093715 0.7500000
vt 0.2300000 0.2300000
vt 0.0422145 0.2300000
vt 0.0200000 0.0200000
vt 0.1861179 0.0200000
vn 0.2074851 0.8642378 0.4583045
vn 0.2074851 0.8642378 0.4583045
vn 0.2074851 0.8642378 0.4583045
vn 0.2074851 0.8642378 0.4583045
f 73/73/73 74/74/74 75/75/75
f 73/73/73 75/75/75 76/76/76
v 0.0203365 0.1283995 0.7210000
v 0.0000000 0.1300000 0.7210000
v 0.0000000 0.1150000 0.7500000
v 0.0179900 0.1135842 0.7500000
vt 0.2300000 0.2300000
vt 0.0200000 0.2300000
vt 0.0200000 0.0200000
vt 0.2057692 0.0200000
vn 0.0697341 0.8860554 0.4583045
vn 0.0697341 0.8860554 0.4583045
vn 0.0697341 0.8860554 0.4583045
vn 0.0697341 0.8860554 0.4583045
f 77/77/77 78/78/78 79/79/79
f 77/77/77 79/79/79 80/80/80
v 0.0000000 0.1300000 0.7210000
v -0.0203365 0.1283995 0.7210000
v -0.0179900 0.1135842 0.7500000
v 0.0000000 0.1150000 0.7500000
vt 0.2300000 0.2300000
vt 0.0200000 0.2300000
vt 0.0442308 0.0200000
vt 0.2300000 0.0200000
vn -0.0697341 0.8860554 0.4583045
vn -0.0697341 0.8860554 0.4583045
vn -0.0697341 0.8860554 0.4583045
vn -0.0697341 0.8860554 0.4583045
f 81/81/81 82/82/82 83/83/83
f 81/81/81 83/83/83 84/84/84
v -0.0203365 0.1283995 0.7210000
v -0.0401722 0.1236373 0.7210000
v -0.0355370 0.1093715 0.7500000
v -0.0179900 0.1135842 0.7500000
vt 0.2077855 0.2300000
vt 0.0200000 0.2300000
vt 0.0638821 0.0200000
vt 0.2300000 0.0200000
vn -0.2074851 0.8642378 0.4583045
vn -0.2074851 0.8642378 0.4583045
vn -0.2074851 0.8642378 0.4583045
vn -0.2074851 0.8642378 0.4583045
f 85/85/85 86/86/86 87/87/87
f 85/85/85 87/87/87 88/88/88
v -0.0401722 0.1236373 0.7210000
v -0.0590188 0.1158308 0.7210000
v -0.0522089 0.1024658 0.7500000
v -0.0355370 0.1093715 0.7500000
vt 0.1885465 0.2300000
vt 0.0200000 0.2300000
vt 0.0809012 0.0200000
vt 0.2300000 0.0200000
vn -0.3401272 0.8211397 0.4583045
vn -0.3401272 0.8211397 0.4583045
vn -0.3401272 0.8211397 0.4583045
vn -0.3401272 0.8211397 0.4583045
f 89/89/89 90/90/90 91/91/91
f 89/89/89 91/91/91 92/92/92
v -0.0590188 0.1158308 0.7210000
v -0.0764121 0.1051722 0.7210000
v -0.0675953 0.0930370 0.7500000
v -0.0522089 0.1024658 0.7500000
vt 0.0200000 0.0790861
vt 0.0200000 0.2300000
vt 0.2300000 0.1535008
vt 0.2300000 0.0200000
vn -0.4643942 0.7578225 0.4583045
vn -0.4643942 0.7578225 0.4583045
vn -0.4643942 0.7578225 0.4583045
vn -0.4643942 0.7578225 0.4583045
f 93/93/93 94/94/94 95/95/95
f 93/93/93 95/95/95 96/96/96
v -0.0764121 0.1051722 0.7210000
v -0.0919239 0.0919239 0.7210000
v -0.0813173 0.0813173 0.7500000
v -0.0675953 0.0930370 0.7500000
vt 0.0200000 0.0961049
vt 0.0200000 0.2300000
vt 0.2300000 0.1384457
vt 0.2300000 0.0200000
vn -0.5772263 0.6758452 0.4583045
vn -0.5772263 0.6758452 0.4583045
vn -0.5772263 0.6758452 0.4583045
vn -0.5772263 0.6758452 0.4583045
f 97/97/97 98/98/98 99/99/99
f 97/97/97 99/99/99 100/100/100
v -0.0919239 0.0919239 0.7210000
v -0.1051722 0.0764121 0.7210000
v -0.0930370 0.0675953 0.7500000
v -0.0813173 0.0813173 0.7500000
vt 0.0200000 0.0200000
vt 0.0200000 0.1538951
vt 0.2300000 0.2300000
vt 0.2300000 0.1115543
vn -0.6758452 0.5772263 0.4583045
vn -0.6758452 0.5772263 0.4583045
vn -0.6758452 0.5772263 0.4583045
vn -0.6758452 0.5772263 0.4583045
f 101/101/101 102/102/102 103/103/103
f 101/101/101 103/103/103 104/104/104
v -0.1051722 0.0764121 0.7210000
v -0.1158308 0.0590188 0.7210000
v -0.1024658 0.0522089 0.7500000
v -0.0930370 0.0675953 0.7500000
vt 0.0200000 0.0200000
vt 0.0200000 0.1709139
vt 0.2300000 0.2300000
vt 0.2300000 0.0964992
vn -0.7578225 0.4643942 0.4583045
vn -0.7578225 0.4643942 0.4583045
vn -0.7578225 0.4643942 0.4583045
vn -0.7578225 0.4643942 0.4583045
f 105/105/105 106/106/106 107/107/107
f 105/105/105 107/107/107 108/108/108
v -0.1158308 0.0590188 0.7210000
v -0.1236373 0.0401722 0.7210000
v -0.1093715 0.0355370 0.7500000
v -0.1024658 0.0522089 0.7500000
vt 0.2300000 0.2300000
vt 0.0614535 0.2300000
vt 0.0200000 0.0200000
vt 0.1690988 0.0200000
vn -0.8211397 0.3401272 0.4583045
vn -0.8211397 0.3401272 0.4583045
vn -0.8211397 0.3401272 0.4583045
vn -0.8211397 0.3401272 0.4583045
f 109/109/109 110/110/110 111/111/111
f 109/109/109 111/111/111 112/112/112
v -0.1236373 0.0401722 0.7210000
v -0.1283995 0.0203365 0.7210000
v -0.1135842 0.0179900 0.7500000
v -0.1093715 0.0355370 0.7500000
vt 0.2300000 0.2300000
vt 0.0422145 0.2300000
vt 0.0200000 0.0200000
vt 0.1861179 0.0200000
vn -0.8642378 0.2074851 0.4583045
vn -0.8642378 0.2074851 0.4583045
vn -0.8642378 0.2074851 0.4583045
vn -0.8642378 0.2074851 0.4583045
f 113/113/113 114/114/114 115/115/115
f 113/113/113 115/115/115 116/116/116
v -0.1283995 0.0203365 0.7210000
v -0.1300000 0.0000000 0.7210000
v -0.1150000 0.0000000 0.7500000
v -0.1135842 0.0179900 0.7500000
vt 0.2300000 0.2300000
vt 0.0200000 0.2300000
vt 0.0200000 0.0200000
vt 0.2057692 0.0200000
vn -0.8860554 0.0697341 0.4583045
vn -0.8860554 0.0697341 0.4583045
vn -0.8860554 0.0697341 0.4583045
vn -0.8860554 0.0697341 0.4583045
f 117/117/117 118/118/118 119/119/119
f 117/117/117 119/119/119 120/120/120
v -0.1300000 0.0000000 0.7210000
v -0.1283995 -0.0203365 0.7210000
v -0.1135842 -0.0179900 0.7500000
v -0.1150000 0.0000000 0.7500000
vt 0.2300000 0.2300000
vt 0.0200000 0.2300000
vt 0.0442308 0.0200000
vt 0.2300000 0.0200000
vn -0.8860554 -0.0697341 0.4583045
vn -0.8860554 -0.0697341 0.4583045
vn -0.8860554 -0.0697341 0.4583045
vn -0.8860554 -0.0697341 0.4583045
f 121/121/121 122/122/122 123/123/123
f 121/121/121 123/123/123 124/124/124
v -0.1283995 -0.0203365 0.7210000
v -0.1236373 -0.0401722 0.7210000
v -0.1093715 -0.0355370 0.7500000
v -0.1135842 -0.0179900 0.7500000
vt 0.2077855 0.2300000
vt 0.0200000 0.2300000
vt 0.0638821 0.0200000
vt 0.2300000 0.0200000
vn -0.8642378 -0.2074851 0.4583045
vn -0.8642378 -0.2074851 0.4583045
vn -0.8642378 -0.2074851 0.4583045
vn -0.8642378 -0.2074851 0.4583045
f 125/125/125 126/126/126 127/127/127
f 125/125/125 127/127/127 128/128/128
v -0.1236373 -0.0401722 0.7210000
v -0.1158308 -0.0590188 0.7210000
v -0.1024658 -0.0522089 0.7500000
v -0.1093715 -0.0355370 0.7500000
vt 0.1885465 0.2300000
vt 0.0200000 0.2300000
vt 0.0809012 0.0200000
vt 0.2300000 0.0200000
vn -0.8211397 -0.3401272 0.4583045
vn -0.8211397 -0.3401272 0.4583045
vn -0.8211397 -0.3401272 0.4583045
vn -0.8211397 -0.3401272 0.4583045
f 129/129/129 130/130/130 131/131/131
f 129/129/129 131/131/131 132/132/132
v -0.1158308 -0.0590188 0.7210000
v -0.1051722 -0.0764121 0.7210000
v -0.0930370 -0.0675953 0.7500000
v -0.1024658 -0.0522089 0.7500000
vt 0.0200000 0.0790861
vt 0.0200000 0.2300000
vt 0.2300000 0.1535008
vt 0.2300000 0.0200000
vn -0.7578225 -0.4643942 0.4583045
vn -0.7578225 -0.4643942 0.4583045
vn -0.7578225 -0.4643942 0.4583045
vn -0.7578225 -0.4643942 0.4583045
f 133/133/133 134/134/134 135/135/135
f 133/133/133 135/135/135 136/136/136
v -0.1051722 -0.0764121 0.7210000
v -0.0919239 -0.0919239 0.7210000
v -0.0813173 -0.0813173 0.7500000
v -0.0930370 -0.0675953 0.7500000
vt 0.0200000 0.0961049
vt 0.0200000 0.2300000
vt 0.2300000 0.1384457
vt 0.2300000 0.0200000
vn -0.6758452 -0.5772263 0.4583045
vn -0.6758452 -0.5772263 0.4583045
vn -0.6758452 -0.5772263 0.4583045
vn -0.6758452 -0.5772263 0.4583045
f 137/137/137 138/138/138 139/139/139
f 137/137/137 139/139/139 140/140/140
v -0.0919239 -0.0919239 0.7210000
v -0.0764121 -0.1051722 0.7210000
v -0.0675953 -0.0930370 0.7500000
v -0.0813173 -0.0813173 0.7500000
vt 0.0200000 0.2300000
vt 0.0200000 0.0961049
vt 0.2300000 0.0200000
vt 0.2300000 0.1384457
vn -0.5772263 -0.6758452 0.4583045
vn -0.5772263 -0.6758452 0.4583045
vn -0.5772263 -0.6758452 0.4583045
vn -0.5772263 -0.6758452 0.4583045
f 141/141/141 142/142/142 143/143/143
f 141/141/141 143/143/143 144/144/144
v -0.0764121 -0.1051722 0.7210000
v -0.0590188 -0.1158308 0.7210000
v -0.0522089 -0.1024658 0.7500000
v -0.0675953 -0.0930370 0.7500000
vt 0.0200000 0.2300000
vt 0.0200000 0.0790861
vt 0.2300000 0.0200000
vt 0.2300000 0.1535008
vn -0.4643942 -0.7578225 0.4583045
vn -0.4643942 -0.7578225 0.4583045
vn -0.4643942 -0.7578225 0.4583045
vn -0.4643942 -0.7578225 0.4583045
f 145/145/145 146/146/146 147/147/147
f 145/145/145 147/147/147 148/148/148
v -0.0590188 -0.1158308 0.7210000
v -0.0401722 -0.1236373 0.7210000
v -0.0355370 -0.1093715 0.7500000
v -0.0522089 -0.1024658 0.7500000
vt 0.0200000 0.2300000
vt 0.1885465 0.2300000
vt 0.2300000 0.0200000
vt 0.0809012 0.0200000
vn -0.3401272 -0.8211397 0.4583045
vn -0.3401272 -0.8211397 0.4583045
vn -0.3401272 -0.8211397 0.4583045
vn -0.3401272 -0.8211397 0.4583045
f 149/149/149 150/150/150 151/151/151
f 149/149/149 151/151/151 152/152/152
v -0.0401722 -0.1236373 0.7210000
v -0.0203365 -0.1283995 0.7210000
v -0.0179900 -0.1135842 0.7500000
v -0.0355370 -0.1093715 0.7500000
vt 0.0200000 0.2300000
vt 0.2077855 0.2300000
vt 0.2300000 0.0200000
vt 0.0638821 0.0200000
vn -0.2074851 -0.8642378 0.4583045
vn -0.2074851 -0.8642378 0.4583045
vn -0.2074851 -0.8642378 0.4583045
vn -0.2074851 -0.8642378 0.4583045
f 153/153/153 154/154/154 155/155/155
f 153/153/153 155/155/155 156/156/156
v -0.0203365 -0.1283995 0.7210000
v -0.0000000 -0.1300000 0.7210000
v -0.0000000 -0.1150000 0.7500000
v -0.0179900 -0.1135842 0.7500000
vt 0.0200000 0.2300000
vt 0.2300000 0.2300000
vt 0.2300000 0.0200000
vt 0.0442308 0.0200000
vn -0.0697341 -0.8860554 0.4583045
vn -0.0697341 -0.8860554 0.4583045
vn -0.0697341 -0.8860554 0.4583045
vn -0.0697341 -0.8860554 0.4583045
f 157/157/157 158/158/158 159/159/159
f 157/157/157 159/159/159 160/160/160
v -0.0000000 -0.1300000 0.7210000
v 0.0203365 -0.1283995 0.7210000
v 0.0179900 -0.1135842 0.7500000
v -0.0000000 -0.1150000 0.7500000
vt 0.0200000 0.2300000
vt 0.2300000 0.2300000
vt 0.2057692 0.0200000
vt 0.0200000 0.0200000
vn 0.0697341 -0.8860554 0.4583045
vn 0.0697341 -0.8860554 0.4583045
vn 0.0697341 -0.8860554 0.4583045
vn 0.0697341 -0.8860554 0.4583045
f 161/161/161 162/162/162 163/163/163
f 161/161/161 163/163/163 164/164/164
v 0.0203365 -0.1283995 0.7210000
v 0.0401722 -0.1236373 0.7210000
v 0.0355370 -0.1093715 0.7500000
v 0.0179900 -0.1135842 0.7500000
vt 0.0422145 0.2300000
vt 0.2300000 0.2300000
vt 0.1861179 0.0200000
vt 0.0200000 0.0200000
vn 0.2074851 -0.8642378 0.4583045
vn 0.2074851 -0.8642378 0.4583045
vn 0.2074851 -0.8642378 0.4583045
vn 0.2074851 -0.8642378 0.4583045
f 165/165/165 166/166/166 167/167/167
f 165/165/165 167/167/167 168/168/168
v 0.0401722 -0.1236373 0.7210000
v 0.0590188 -0.1158308 0.7210000
v 0.0522089 -0.1024658 0.7500000
v 0.0355370 -0.1093715 0.7500000
vt 0.0614535 0.2300000
vt 0.2300000 0.2300000
vt 0.1690988 0.0200000
vt 0.0200000 0.0200000
vn 0.3401272 -0.8211397 0.4583045
vn 0.3401272 -0.8211397 0.4583045
vn 0.3401272 -0.8211397 0.4583045
vn 0.3401272 -0.8211397 0.4583045
f 169/169/169 170/170/170 171/171/171
f 169/169/169 171/171/171 172/172/172
v 0.0590188 -0.1158308 0.7210000
v 0.0764121 -0.1051722 0.7210000
v 0.0675953 -0.0930370 0.7500000
v 0.0522089 -0.1024658 0.7500000
vt 0.0200000 0.1709139
vt 0.0200000 0.0200000
vt 0.2300000 0.0964992
vt 0.2300000 0.2300000
vn 0.4643942 -0.7578225 0.4583045
vn 0.4643942 -0.7578225 0.4583045
vn 0.4643942 -0.7578225 0.4583045
vn 0.4643942 -0.7578225 0.4583045
f 173/173/173 174/174/174 175/175/175
f 173/173/173 175/175/175 176/176/176
v 0.0764121 -0.1051722 0.7210000
v 0.0919239 -0.0919239 0.7210000
v 0.0813173 -0.0813173 0.7500000
v 0.0675953 -0.0930370 0.7500000
vt 0.0200000 0.1538951
vt 0.0200000 0.0200000
vt 0.2300000 0.1115543
vt 0.2300000 0.2300000
vn 0.5772263 -0.6758452 0.4583045
vn 0.5772263 -0.6758452 0.4583045
vn 0.5772263 -0.6758452 0.4583045
vn 0.5772263 -0.6758452 0.4583045
f 177/177/177 178/178/178 179/179/179
f 177/177/177 179/179/179 180/180/180
v 0.0919239 -0.0919239 0.7210000
v 0.1051722 -0.0764121 0.7210000
v 0.0930370 -0.0675953 0.7500000
v 0.0813173 -0.0813173 0.7500000
vt 0.0200000 0.2300000
vt 0.0200000 0.0961049
vt 0.2300000 0.0200000
vt 0.2300000 0.1384457
vn 0.6758452 -0.5772263 0.4583045
vn 0.6758452 -0.5772263 0.4583045
vn 0.6758452 -0.5772263 0.4583045
vn 0.6758452 -0.5772263 0.4583045
f 181/181/181 182/182/182 183/183/183
f 181/181/181 183/183/183 184/184/184
v 0.1051722 -0.0764121 0.7210000
v 0.1158308 -0.0590188 0.7210000
v 0.1024658 -0.0522089 0.7500000
v 0.0930370 -0.0675953 0.7500000
vt 0.0200000 0.2300000
vt 0.0200000 0.0790861
vt 0.2300000 0.0200000
vt 0.2300000 0.1535008
vn 0.7578225 -0.4643942 0.4583045
vn 0.7578225 -0.4643942 0.4583045
vn 0.7578225 -0.4643942 0.4583045
vn 0.7578225 -0.4643942 0.4583045
f 185/185/185 186/186/186 187/187/187
f 185/185/185 187/187/187 188/188/188
v 0.1158308 -0.0590188 0.7210000
v 0.1236373 -0.0401722 0.7210000
v 0.1093715 -0.0355370 0.7500000
v 0.1024658 -0.0522089 0.7500000
vt 0.0200000 0.2300000
vt 0.1885465 0.2300000
vt 0.2300000 0.0200000
vt 0.0809012 0.0200000
vn 0.8211397 -0.3401272 0.4583045
vn 0.8211397 -0.3401272 0.4583045
vn 0.8211397 -0.3401272 0.4583045
vn 0.8211397 -0.3401272 0.4583045
f 189/189/189 190/190/190 191/191/191
f 189/189/189 191/191/191 192/192/192
v 0.1236373 -0.0401722 0.7210000
v 0.1283995 -0.0203365 0.7210000
v 0.1135842 -0.0179900 0.7500000
v 0.1093715 -0.0355370 0.7500000
vt 0.0200000 0.2300000
vt 0.2077855 0.2300000
vt 0.2300000 0.0200000
vt 0.0638821 0.0200000
vn 0.8642378 -0.2074851 0.4583045
vn 0.8642378 -0.2074851 0.4583045
vn 0.8642378 -0.2074851 0.4583045
vn 0.8642378 -0.2074851 0.4583045
f 193/193/193 194/194/194 195/195/195
f 193/193/193 195/195/195 196/196/196
v 0.1283995 -0.0203365 0.7210000
v 0.1300000 0.0000000 0.7210000
v 0.1150000 0.0000000 0.7500000
v 0.1135842 -0.0179900 0.7500000
vt 0.0200000 0.2300000
vt 0.2300000 0.2300000
vt 0.2300000 0.0200000
vt 0.0442308 0.0200000
vn 0.8860554 -0.0697341 0.4583045
vn 0.8860554 -0.0697341 0.4583045
vn 0.8860554 -0.0697341 0.4583045
vn 0.8860554 -0.0697341 0.4583045
f 197/197/197 198/198/198 199/199/199
f 197/197/197 199/199/199 200/200/200
v 0.1150000 0.0000000 0.7500000
v 0.1135842 0.0179900 0.7500000
v 0.0691382 0.0109504 0.7650000
v 0.0700000 0.0000000 0.7650000
vt 0.0200000 0.0200000
vt 0.2300000 0.0264831
vt 0.1478261 0.2300000
vt 0.0200000 0.2260538
vn 0.3161299 0.0248800 0.9483896
vn 0.3161299 0.0248800 0.9483896
vn 0.3161299 0.0248800 0.9483896
vn 0.3161299 0.0248800 0.9483896
f 201/201/201 202/202/202 203/203/203
f 201/201/201 203/203/203 204/204/204
v 0.1135842 0.0179900 0.7500000
v 0.1093715 0.0355370 0.7500000
v 0.0665740 0.0216312 0.7650000
v 0.0691382 0.0109504 0.7650000
vt 0.0801266 0.0200000
vt 0.2300000 0.0388184
vt 0.1112273 0.2300000
vt 0.0200000 0.2185453
vn 0.3083457 0.0740273 0.9483896
vn 0.3083457 0.0740273 0.9483896
vn 0.3083457 0.0740273 0.9483896
vn 0.3083457 0.0740273 0.9483896
f 205/205/205 206/206/206 207/207/207
f 205/205/205 207/207/207 208/208/208
v 0.1093715 0.0355370 0.7500000
v 0.1024658 0.0522089 0.7500000
v 0.0623705 0.0317793 0.7650000
v 0.0665740 0.0216312 0.7650000
vt 0.1155013 0.0200000
vt 0.2300000 0.0508548
vt 0.0896949 0.2300000
vt 0.0200000 0.2112188
vn 0.2929690 0.1213518 0.9483896
vn 0.2929690 0.1213518 0.9483896
vn 0.2929690 0.1213518 0.9483896
vn 0.2929690 0.1213518 0.9483896
f 209/209/209 210/210/210 211/211/211
f 209/209/209 211/211/211 212/212/212
v 0.1024658 0.0522089 0.7500000
v 0.0930370 0.0675953 0.7500000
v 0.0566312 0.0411450 0.7650000
v 0.0623705 0.0317793 0.7650000
vt 0.1397848 0.0200000
vt 0.2300000 0.0631999
vt 0.0749136 0.2300000
vt 0.0200000 0.2037044
vn 0.2703785 0.1656882 0.9483896
vn 0.2703785 0.1656882 0.9483896
vn 0.2703785 0.1656882 0.9483896
vn 0.2703785 0.1656882 0.9483896
f 213/213/213 214/214/214 215/215/215
f 213/213/213 215/215/215 216/216/216
v 0.0930370 0.0675953 0.7500000
v 0.0813173 0.0813173 0.7500000
v 0.0494975 0.0494975 0.7650000
v 0.0566312 0.0411450 0.7650000
vt 0.1582686 0.0200000
vt 0.2300000 0.0765264
vt 0.0636626 0.2300000
vt 0.0200000 0.1955926
vn 0.2411304 0.2059448 0.9483896
vn 0.2411304 0.2059448 0.9483896
vn 0.2411304 0.2059448 0.9483896
vn 0.2411304 0.2059448 0.9483896
f 217/217/217 218/218/218 219/219/219
f 217/217/217 219/219/219 220/220/220
v 0.0813173 0.0813173 0.7500000
v 0.0675953 0.0930370 0.7500000
v 0.0411450 0.0566312 0.7650000
v 0.0494975 0.0494975 0.7650000
vt 0.2300000 0.0765264
vt 0.1582686 0.0200000
vt 0.0200000 0.1955926
vt 0.0636626 0.2300000
vn 0.2059448 0.2411304 0.9483896
vn 0.2059448 0.2411304 0.9483896
vn 0.2059448 0.2411304 0.9483896
vn 0.2059448 0.2411304 0.9483896
f 221/221/221 222/222/222 223/223/223
f 221/221/221 223/223/223 224/224/224
v 0.0675953 0.0930370 0.7500000
v 0.0522089 0.1024658 0.7500000
v 0.0317793 0.0623705 0.7650000
v 0.0411450 0.0566312 0.7650000
vt 0.2300000 0.0631999
vt 0.1397848 0.0200000
vt 0.0200000 0.2037044
vt 0.0749136 0.2300000
vn 0.1656882 0.2703785 0.9483896
vn 0.1656882 0.2703785 0.9483896
vn 0.1656882 0.2703785 0.9483896
vn 0.1656882 0.2703785 0.9483896
f 225/225/225 226/226/226 227/227/227
f 225/225/225 227/227/227 228/228/228
v 0.0522089 0.1024658 0.7500000
v 0.0355370 0.1093715 0.7500000
v 0.0216312 0.0665740 0.7650000
v 0.0317793 0.0623705 0.7650000
vt 0.2300000 0.0508548
vt 0.1155013 0.0200000
vt 0.0200000 0.2112188
vt 0.0896949 0.2300000
vn 0.1213518 0.2929690 0.9483896
vn 0.1213518 0.2929690 0.9483896
vn 0.1213518 0.2929690 0.9483896
vn 0.1213518 0.2929690 0.9483896
f 229/229/229 230/230/230 231/231/231
f 229/229/229 231/231/231 232/232/232
v 0.0355370 0.1093715 0.7500000
v 0.0179900 0.1135842 0.7500000
v 0.0109504 0.0691382 0.7650000
v 0.0216312 0.0665740 0.7650000
vt 0.2300000 0.0388184
vt 0.0801266 0.0200000
vt 0.0200000 0.2185453
vt 0.1112273 0.2300000
vn 0.0740273 0.3083457 0.9483896
vn 0.0740273 0.3083457 0.9483896
vn 0.0740273 0.3083457 0.9483896
vn 0.0740273 0.3083457 0.9483896
f 233/233/233 234/234/234 235/235/235
f 233/233/233 235/235/235 236/236/236
v 0.0179900 0.1135842 0.7500000
v 0.0000000 0.1150000 0.7500000
v 0.0000000 0.0700000 0.7650000
v 0.0109504 0.0691382 0.7650000
vt 0.2300000 0.0264831
vt 0.0200000 0.0200000
vt 0.0200000 0.2260538
vt 0.1478261 0.2300000
vn 0.0248800 0.3161299 0.9483896
vn 0.0248800 0.3161299 0.9483896
vn 0.0248800 0.3161299 0.9483896
vn 0.0248800 0.3161299 0.9483896
f 237/237/237 238/238/238 239/239/239
f 237/237/237 239/239/239 240/240/240
v 0.0000000 0.1150000 0.7500000
v -0.0179900 0.1135842 0.7500000
v -0.0109504 0.0691382 0.7650000
v 0.0000000 0.0700000 0.7650000
vt 0.2300000 0.0200000
vt 0.0200000 0.0264831
vt 0.1021739 0.2300000
vt 0.2300000 0.2260538
vn -0.0248800 0.3161299 0.9483896
vn -0.0248800 0.3161299 0.9483896
vn -0.0248800 0.3161299 0.9483896
vn -0.0248800 0.3161299 0.9483896
f 241/241/241 242/242/242 243/243/243
f 241/241/241 243/243/243 244/244/244
v -0.0179900 0.1135842 0.7500000
v -0.0355370 0.1093715 0.7500000
v -0.0216312 0.0665740 0.7650000
v -0.0109504 0.0691382 0.7650000
vt 0.1698734 0.0200000
vt 0.0200000 0.0388184
vt 0.1387727 0.2300000
vt 0.2300000 0.2185453
vn -0.0740273 0.3083457 0.9483896
vn -0.0740273 0.3083457 0.9483896
vn -0.0740273 0.3083457 0.9483896
vn -0.0740273 0.3083457 0.9483896
f 245/245/245 246/246/246 247/247/247
f 245/245/245 247/247/247 248/248/248
v -0.0355370 0.1093715 0.7500000
v -0.0522089 0.1024658 0.7500000
v -0.0317793 0.0623705 0.7650000
v -0.0216312 0.0665740 0.7650000
vt 0.1344987 0.0200000
vt 0.0200000 0.0508548
vt 0.1603051 0.2300000
vt 0.2300000 0.2112188
vn -0.1213518 0.2929690 0.9483896
vn -0.1213518 0.2929690 0.9483896
vn -0.1213518 0.2929690 0.9483896
vn -0.1213518 0.2929690 0.9483896
f 249/249/249 250/250/250 251/251/251
f 249/249/249 251/251/251 252/252/252
v -0.0522089 0.1024658 0.7500000
v -0.0675953 0.0930370 0.7500000
v -0.0411450 0.0566312 0.7650000
v -0.0317793 0.0623705 0.7650000
vt 0.1102152 0.0200000
vt 0.0200000 0.0631999
vt 0.1750864 0.2300000
vt 0.2300000 0.2037044
vn -0.1656882 0.2703785 0.9483896
vn -0.1656882 0.2703785 0.9483896
vn -0.1656882 0.2703785 0.9483896
vn -0.1656882 0.2703785 0.9483896
f 253/253/253 254/254/254 255/255/255
f 253/253/253 255/255/255 256/256/256
v -0.0675953 0.0930370 0.7500000
v -0.0813173 0.0813173 0.7500000
v -0.0494975 0.0494975 0.7650000
v -0.0411450 0.0566312 0.7650000
vt 0.0917314 0.0200000
vt 0.0200000 0.0765264
vt 0.1863374 0.2300000
vt 0.2300000 0.1955926
vn -0.2059448 0.2411304 0.9483896
vn -0.2059448 0.2411304 0.9483896
vn -0.2059448 0.2411304 0.9483896
vn -0.2059448 0.2411304 0.9483896
f 257/257/257 258/258/258 259/259/259
f 257/257/257 259/259/259 260/260/260
v -0.0813173 0.0813173 0.7500000
v -0.0930370 0.0675953 0.7500000
v -0.0566312 0.0411450 0.7650000
v -0.0494975 0.0494975 0.7650000
vt 0.2300000 0.1734736
vt 0.1582686 0.2300000
vt 0.0200000 0.0544074
vt 0.0636626 0.0200000
vn -0.2411304 0.2059448 0.9483896
vn -0.2411304 0.2059448 0.9483896
vn -0.2411304 0.2059448 0.9483896
vn -0.2411304 0.2059448 0.9483896
f 261/261/261 262/262/262 263/263/263
f 261/261/261 263/263/263 264/264/264
v -0.0930370 0.0675953 0.7500000
v -0.1024658 0.0522089 0.7500000
v -0.0623705 0.0317793 0.7650000
v -0.0566312 0.0411450 0.7650000
vt 0.2300000 0.1868001
vt 0.1397848 0.2300000
vt 0.0200000 0.0462956
vt 0.0749136 0.0200000
vn -0.2703785 0.1656882 0.9483896
vn -0.2703785 0.1656882 0.9483896
vn -0.2703785 0.1656882 0.9483896
vn -0.2703785 0.1656882 0.9483896
f 265/265/265 266/266/266 267/267/267
f 265/265/265 267/267/267 268/268/268
v -0.1024658 0.0522089 0.7500000
v -0.1093715 0.0355370 0.7500000
v -0.0665740 0.0216312 0.7650000
v -0.0623705 0.0317793 0.7650000
vt 0.2300000 0.1991452
vt 0.1155013 0.2300000
vt 0.0200000 0.0387812
vt 0.0896949 0.0200000
vn -0.2929690 0.1213518 0.9483896
vn -0.2929690 0.1213518 0.9483896
vn -0.2929690 0.1213518 0.9483896
vn -0.2929690 0.1213518 0.9483896
f 269/269/269 270/270/270 271/271/271
f 269/269/269 271/271/271 272/272/272
v -0.1093715 0.0355370 0.7500000
v -0.1135842 0.0179900 0.7500000
v -0.0691382 0.0109504 0.7650000
v -0.0665740 0.0216312 0.7650000
vt 0.2300000 0.2111816
vt 0.0801266 0.2300000
vt 0.0200000 0.0314547
vt 0.1112273 0.0200000
vn -0.3083457 0.0740273 0.9483896
vn -0.3083457 0.0740273 0.9483896
vn -0.3083457 0.0740273 0.9483896
vn -0.3083457 0.0740273 0.9483896
f 273/273/273 274/274/274 275/275/275
f 273/273/273 275/275/275 276/276/276
v -0.1135842 0.0179900 0.7500000
v -0.1150000 0.0000000 0.7500000
v -0.0700000 0.0000000 0.7650000
v -0.0691382 0.0109504 0.7650000
vt 0.2300000 0.2235169
vt 0.0200000 0.2300000
vt 0.0200000 0.0239462
vt 0.1478261 0.0200000
vn -0.3161299 0.0248800 0.9483896
vn -0.3161299 0.0248800 0.9483896
vn -0.3161299 0.0248800 0.9483896
vn -0.3161299 0.0248800 0.9483896
f 277/277/277 278/278/278 279/279/279
f 277/277/277 279/279/279 280/280/280
v -0.1150000 0.0000000 0.7500000
v -0.1135842 -0.0179900 0.7500000
v -0.0691382 -0.0109504 0.7650000
v -0.0700000 0.0000000 0.7650000
vt 0.2300000 0.2300000
vt 0.0200000 0.2235169
vt 0.1021739 0.0200000
vt 0.2300000 0.0239462
vn -0.3161299 -0.0248800 0.9483896
vn -0.3161299 -0.0248800 0.9483896
vn -0.3161299 -0.0248800 0.9483896
vn -0.3161299 -0.0248800 0.9483896
f 281/281/281 282/282/282 283/283/283
f 281/281/281 283/283/283 284/284/284
v -0.1135842 -0.0179900 0.7500000
v -0.1093715 -0.0355370 0.7500000
v -0.0665740 -0.0216312 0.7650000
v -0.0691382 -0.0109504 0.7650000
vt 0.1698734 0.2300000
vt 0.0200000 0.2111816
vt 0.1387727 0.0200000
vt 0.2300000 0.0314547
vn -0.3083457 -0.0740273 0.9483896
vn -0.3083457 -0.0740273 0.9483896
vn -0.3083457 -0.0740273 0.9483896
vn -0.3083457 -0.0740273 0.9483896
f 285/285/285 286/286/286 287/287/287
f 285/285/285 287/287/287 288/288/288
v -0.1093715 -0.0355370 0.7500000
v -0.1024658 -0.0522089 0.7500000
v -0.0623705 -0.0317793 0.7650000
v -0.0665740 -0.0216312 0.7650000
vt 0.1344987 0.2300000
vt 0.0200000 0.1991452
vt 0.1603051 0.0200000
vt 0.2300000 0.0387812
vn -0.2929690 -0.1213518 0.9483896
vn -0.2929690 -0.1213518 0.9483896
vn -0.2929690 -0.1213518 0.9483896
vn -0.2929690 -0.1213518 0.9483896
f 289/289/289 290/290/290 291/291/291
f 289/289/289 291/291/291 292/292/292
v -0.1024658 -0.0522089 0.7500000
v -0.0930370 -0.0675953 0.7500000
v -0.0566312 -0.0411450 0.7650000
v -0.0623705 -0.0317793 0.7650000
vt 0.1102152 0.2300000
vt 0.0200000 0.1868001
vt 0.1750864 0.0200000
vt 0.2300000 0.0462956
vn -0.2703785 -0.1656882 0.9483896
vn -0.2703785 -0.1656882 0.9483896
vn -0.2703785 -0.1656882 0.9483896
vn -0.2703785 -0.1656882 0.9483896
f 293/293/293 294/294/294 295/295/295
f 293/293/293 295/295/295 296/296/296
v -0.0930370 -0.0675953 0.7500000
v -0.0813173 -0.0813173 0.7500000
v -0.0494975 -0.0494975 0.7650000
v -0.0566312 -0.0411450 0.7650000
vt 0.0917314 0.2300000
vt 0.0200000 0.1734736
vt 0.1863374 0.0200000
vt 0.2300000 0.0544074
vn -0.2411304 -0.2059448 0.9483896
vn -0.2411304 -0.2059448 0.9483896
vn -0.2411304 -0.2059448 0.9483896
vn -0.2411304 -0.2059448 0.9483896
f 297/297/297 298/298/298 299/299/299
f 297/297/297 299/299/299 300/300/300
v -0.0813173 -0.0813173 0.7500000
v -0.0675953 -0.0930370 0.7500000
v -0.0411450 -0.0566312 0.7650000
v -0.0494975 -0.0494975 0.7650000
vt 0.0200000 0.1734736
vt 0.0917314 0.2300000
vt 0.2300000 0.0544074
vt 0.1863374 0.0200000
vn -0.2059448 -0.2411304 0.9483896
vn -0.2059448 -0.2411304 0.9483896
vn -0.2059448 -0.2411304 0.9483896
vn -0.2059448 -0.2411304 0.9483896
f 301/301/301 302/302/302 303/303/303
f 301/301/301 303/303/303 304/304/304
v -0.0675953 -0.0930370 0.7500000
v -0.0522089 -0.1024658 0.7500000
v -0.0317793 -0.0623705 0.7650000
v -0.0411450 -0.0566312 0.7650000
vt 0.0200000 0.1868001
vt 0.1102152 0.2300000
vt 0.2300000 0.0462956
vt 0.1750864 0.0200000
vn -0.1656882 -0.2703785 0.9483896
vn -0.1656882 -0.2703785 0.9483896
vn -0.1656882 -0.2703785 0.9483896
vn -0.1656882 -0.2703785 0.9483896
f 305/305/305 306/306/306 307/307/307
f 305/305/305 307/307/307 308/308/308
v -0.0522089 -0.1024658 0.7500000
v -0.0355370 -0.1093715 0.7500000
v -0.0216312 -0.0665740 0.7650000
v -0.0317793 -0.0623705 0.7650000
vt 0.0200000 0.1991452
vt 0.1344987 0.2300000
vt 0.2300000 0.0387812
vt 0.1603051 0.0200000
vn -0.1213518 -0.2929690 0.9483896
vn -0.1213518 -0.2929690 0.9483896
vn -0.1213518 -0.2929690 0.9483896
vn -0.1213518 -0.2929690 0.9483896
f 309/309/309 310/310/310 311/311/311
f 309/309/309 311/311/311 312/312/312
v -0.0355370 -0.1093715 0.7500000
v -0.0179900 -0.1135842 0.7500000
v -0.0109504 -0.0691382 0.7650000
v -0.0216312 -0.0665740 0.7650000
vt 0.0200000 0.2111816
vt 0.1698734 0.2300000
vt 0.2300000 0.0314547
vt 0.1387727 0.0200000
vn -0.0740273 -0.3083457 0.9483896
vn -0.0740273 -0.3083457 0.9483896
vn -0.0740273 -0.3083457 0.9483896
vn -0.0740273 -0.3083457 0.9483896
f 313/313/313 314/314/314 315/315/315
f 313/313/313 315/315/315 316/316/316
v -0.0179900 -0.1135842 0.7500000
v -0.0000000 -0.1150000 0.7500000
v -0.0000000 -0.0700000 0.7650000
v -0.0109504 -0.0691382 0.7650000
vt 0.0200000 0.2235169
vt 0.2300000 0.2300000
vt 0.2300000 0.0239462
vt 0.1021739 0.0200000
vn -0.0248800 -0.3161299 0.9483896
vn -0.0248800 -0.3161299 0.9483896
vn -0.0248800 -0.3161299 0.9483896
vn -0.0248800 -0.3161299 0.9483896
f 317/317/317 318/318/318 319/319/319
f 317/317/317 319/319/319 320/320/320
v -0.0000000 -0.1150000 0.7500000
v 0.0179900 -0.1135842 0.7500000
v 0.0109504 -0.0691382 0.7650000
v -0.0000000 -0.0700000 0.7650000
vt 0.0200000 0.2300000
vt 0.2300000 0.2235169
vt 0.1478261 0.0200000
vt 0.0200000 0.0239462
vn 0.0248800 -0.3161299 0.9483896
vn 0.0248800 -0.3161299 0.9483896
vn 0.0248800 -0.3161299 0.9483896
vn 0.0248800 -0.3161299 0.9483896
f 321/321/321 322/322/322 323/323/323
f 321/321/321 323/323/323 324/324/324
v 0.0179900 -0.1135842 0.7500000
v 0.0355370 -0.1093715 0.7500000
v 0.0216312 -0.0665740 0.7650000
v 0.0109504 -0.0691382 0.7650000
vt 0.0801266 0.2300000
vt 0.2300000 0.2111816
vt 0.1112273 0.0200000
vt 0.0200000 0.0314547
vn 0.0740273 -0.3083457 0.9483896
vn 0.0740273 -0.3083457 0.9483896
vn 0.0740273 -0.3083457 0.9483896
vn 0.0740273 -0.3083457 0.9483896
f 325/325/325 326/326/326 327/327/327
f 325/325/325 327/327/327 328/328/328
v 0.0355370 -0.1093715 0.7500000
v 0.0522089 -0.1024658 0.7500000
v 0.0317793 -0.0623705 0.7650000
v 0.0216312 -0.0665740 0.7650000
vt 0.1155013 0.2300000
vt 0.2300000 0.1991452
vt 0.0896949 0.0200000
vt 0.0200000 0.0387812
vn 0.1213518 -0.2929690 0.9483896
vn 0.1213518 -0.2929690 0.9483896
vn 0.1213518 -0.2929690 0.9483896
vn 0.1213518 -0.2929690 0.9483896
f 329/329/329 330/330/330 331/331/331
f 329/329/329 331/331/331 332/332/332
v 0.0522089 -0.1024658 0.7500000
v 0.0675953 -0.0930370 0.7500000
v 0.0411450 -0.0566312 0.7650000
v 0.0317793 -0.0623705 0.7650000
vt 0.1397848 0.2300000
vt 0.2300000 0.1868001
vt 0.0749136 0.0200000
vt 0.0200000 0.0462956
vn 0.1656882 -0.2703785 0.9483896
vn 0.1656882 -0.2703785 0.9483896
vn 0.1656882 -0.2703785 0.9483896
vn 0.1656882 -0.2703785 0.9483896
f 333/333/333 334/334/334 335/335/335
f 333/333/333 335/335/335 336/336/336
v 0.0675953 -0.0930370 0.7500000
v 0.0813173 -0.0813173 0.7500000
v 0.0494975 -0.0494975 0.7650000
v 0.0411450 -0.0566312 0.7650000
vt 0.1582686 0.2300000
vt 0.2300000 0.1734736
vt 0.0636626 0.0200000
vt 0.0200000 0.0544074
vn 0.2059448 -0.2411304 0.9483896
vn 0.2059448 -0.2411304 0.9483896
vn 0.2059448 -0.2411304 0.9483896
vn 0.2059448 -0.2411304 0.9483896
f 337/337/337 338/338/338 339/339/339
f 337/337/337 339/339/339 340/340/340
v 0.0813173 -0.0813173 0.7500000
v 0.0930370 -0.0675953 0.7500000
v 0.0566312 -0.0411450 0.7650000
v 0.0494975 -0.0494975 0.7650000
vt 0.0200000 0.0765264
vt 0.0917314 0.0200000
vt 0.2300000 0.1955926
vt 0.1863374 0.2300000
vn 0.2411304 -0.2059448 0.9483896
vn 0.2411304 -0.2059448 0.9483896
vn 0.2411304 -0.2059448 0.9483896
vn 0.2411304 -0.2059448 0.9483896
f 341/341/341 342/342/342 343/343/343
f 341/341/341 343/343/343 344/344/344
v 0.0930370 -0.0675953 0.7500000
v 0.1024658 -0.0522089 0.7500000
v 0.0623705 -0.0317793 0.7650000
v 0.0566312 -0.0411450 0.7650000
vt 0.0200000 0.0631999
vt 0.1102152 0.0200000
vt 0.2300000 0.2037044
vt 0.1750864 0.2300000
vn 0.2703785 -0.1656882 0.9483896
vn 0.2703785 -0.1656882 0.9483896
vn 0.2703785 -0.1656882 0.9483896
vn 0.2703785 -0.1656882 0.9483896
f 345/345/345 346/346/346 347/347/347
f 345/345/345 347/347/347 348/348/348
v 0.1024658 -0.0522089 0.7500000
v 0.1093715 -0.0355370 0.7500000
v 0.0665740 -0.0216312 0.7650000
v 0.0623705 -0.0317793 0.7650000
vt 0.0200000 0.0508548
vt 0.1344987 0.0200000
vt 0.2300000 0.2112188
vt 0.1603051 0.2300000
vn 0.2929690 -0.1213518 0.9483896
vn 0.2929690 -0.1213518 0.9483896
vn 0.2929690 -0.1213518 0.9483896
vn 0.2929690 -0.1213518 0.9483896
f 349/349/349 350/350/350 351/351/351
f 349/349/349 351/351/351 352/352/352
v 0.1093715 -0.0355370 0.7500000
v 0.1135842 -0.0179900 0.7500000
v 0.0691382 -0.0109504 0.7650000
v 0.0665740 -0.0216312 0.7650000
vt 0.0200000 0.0388184
vt 0.1698734 0.0200000
vt 0.2300000 0.2185453
vt 0.1387727 0.2300000
vn 0.3083457 -0.0740273 0.9483896
vn 0.3083457 -0.0740273 0.9483896
vn 0.3083457 -0.0740273 0.9483896
vn 0.3083457 -0.0740273 0.9483896
f 353/353/353 354/354/354 355/355/355
f 353/353/353 355/355/355 356/356/356
v 0.1135842 -0.0179900 0.7500000
v 0.1150000 0.0000000 0.7500000
v 0.0700000 0.0000000 0.7650000
v 0.0691382 -0.0109504 0.7650000
vt 0.0200000 0.0264831
vt 0.2300000 0.0200000
vt 0.2300000 0.2260538
vt 0.1021739 0.2300000
vn 0.3161299 -0.0248800 0.9483896
vn 0.3161299 -0.0248800 0.9483896
vn 0.3161299 -0.0248800 0.9483896
vn 0.3161299 -0.0248800 0.9483896
f 357/357/357 358/358/358 359/359/359
f 357/357/357 359/359/359 360/360/360
v 0.0700000 0.0000000 0.7650000
v 0.0691382 0.0109504 0.7650000
v 0.0665740 0.0216312 0.7650000
v 0.0623705 0.0317793 0.7650000
v 0.0566312 0.0411450 0.7650000
v 0.0494975 0.0494975 0.7650000
v 0.0411450 0.0566312 0.7650000
v 0.0317793 0.0623705 0.7650000
v 0.0216312 0.0665740 0.7650000
v 0.0109504 0.0691382 0.7650000
v 0.0000000 0.0700000 0.7650000
v -0.0109504 0.0691382 0.7650000
v -0.0216312 0.0665740 0.7650000
v -0.0317793 0.0623705 0.7650000
v -0.0411450 0.0566312 0.7650000
v -0.0494975 0.0494975 0.7650000
v -0.0566312 0.0411450 0.7650000
v -0.0623705 0.0317793 0.7650000
v -0.0665740 0.0216312 0.7650000
v -0.0691382 0.0109504 0.7650000
v -0.0700000 0.0000000 0.7650000
v -0.0691382 -0.0109504 0.7650000
v -0.0665740 -0.0216312 0.7650000
v -0.0623705 -0.0317793 0.7650000
v -0.0566312 -0.0411450 0.7650000
v -0.0494975 -0.0494975 0.7650000
v -0.0411450 -0.0566312 0.7650000
v -0.0317793 -0.0623705 0.7650000
v -0.0216312 -0.0665740 0.7650000
v -0.0109504 -0.0691382 0.7650000
v -0.0000000 -0.0700000 0.7650000
v 0.0109504 -0.0691382 0.7650000
v 0.0216312 -0.0665740 0.7650000
v 0.0317793 -0.0623705 0.7650000
v 0.0411450 -0.0566312 0.7650000
v 0.0494975 -0.0494975 0.7650000
v 0.0566312 -0.0411450 0.7650000
v 0.0623705 -0.0317793 0.7650000
v 0.0665740 -0.0216312 0.7650000
v 0.0691382 -0.0109504 0.7650000
vt 0.2300000 0.1250000
vt 0.2287073 0.1085744
vt 0.2248609 0.0925532
vt 0.2185557 0.0773310
vt 0.2099468 0.0632825
vt 0.1992462 0.0507538
vt 0.1867175 0.0400532
vt 0.1726690 0.0314443
vt 0.1574468 0.0251391
vt 0.1414256 0.0212927
vt 0.1250000 0.0200000
vt 0.1085744 0.0212927
vt 0.0925532 0.0251391
vt 0.0773310 0.0314443
vt 0.0632825 0.0400532
vt 0.0507538 0.0507538
vt 0.0400532 0.0632825
vt 0.0314443 0.0773310
vt 0.0251391 0.0925532
vt 0.0212927 0.1085744
vt 0.0200000 0.1250000
vt 0.0212927 0.1414256
vt 0.0251391 0.1574468
vt 0.0314443 0.1726690
vt 0.0400532 0.1867175
vt 0.0507538 0.1992462
vt 0.0632825 0.2099468
vt 0.0773310 0.2185557
vt 0.0925532 0.2248609
vt 0.1085744 0.2287073
vt 0.1250000 0.2300000
vt 0.1414256 0.2287073
vt 0.1574468 0.2248609
vt 0.1726690 0.2185557
vt 0.1867175 0.2099468
vt 0.1992462 0.1992462
vt 0.2099468 0.1867175
vt 0.2185557 0.1726690
vt 0.2248609 0.1574468
vt 0.2287073 0.1414256
vn 0.0000000 0.0000000 1.0000000
vn 0.0000000 0.0000000 1.0000000
vn 0.0000000 0.0000000 1.0000000
vn 0.0000000 0.0000000 1.0000000
vn 0.0000000 0.0000000 1.0000000
vn 0.0000000 0.0000000 1.0000000
vn 0.0000000 0.0000000 1.0000000
vn 0.0000000 0.0000000 1.0000000
vn 0.0000000 0.0000000 1.0000000
vn 0.0000000 0.0000000 1.0000000
vn 0.0000000 0.0000000 1.0000000
vn 0.0000000 0.0000000 1.0000000
vn 0.0000000 0.0000000 1.0000000
vn 0.0000000 0.0000000 1.0000000
vn 0.0000000 0.0000000 1.0000000
vn 0.0000000 0.0000000 1.0000000
vn 0.0000000 0.0000000 1.0000000
vn 0.0000000 0.0000000 1.0000000
vn 0.0000000 0.0000000 1.0000000
vn 0.0000000 0.0000000 1.0000000
vn 0.0000000 0.0000000 1.0000000
vn 0.0000000 0.0000000 1.0000000
vn 0.0000000 0.0000000 1.0000000
vn 0.0000000 0.0000000 1.0000000
vn 0.0000000 0.0000000 1.0000000
vn 0.0000000 0.0000000 1.0000000
vn 0.0000000 0.0000000 1.0000000
vn 0.0000000 0.0000000 1.0000000
vn 0.0000000 0.0000000 1.0000000
vn 0.0000000 0.0000000 1.0000000
vn 0.0000000 0.0000000 1.0000000
vn 0.0000000 0.0000000 1.0000000
vn 0.0000000 0.0000000 1.0000000
vn 0.0000000 0.0000000 1.0000000
vn 0.0000000 0.0000000 1.0000000
vn 0.0000000 0.0000000 1.0000000
vn 0.0000000 0.0000000 1.0000000
vn 0.0000000 0.0000000 1.0000000
vn 0.0000000 0.0000000 1.0000000
vn 0.0000000 0.0000000 1.0000000
f 361/361/361 362/362/362 363/363/363
f 361/361/361 363/363/363 364/364/364
f 361/361/361 364/364/364 365/365/365
f 361/361/361 365/365/365 366/366/366
f 361/361/361 366/366/366 367/367/367
f 361/361/361 367/367/367 368/368/368
f 361/361/361 368/368/368 369/369/369
f 361/361/361 369/369/369 370/370/370
f 361/361/361 370/370/370 371/371/371
f 361/361/361 371/371/371 372/372/372
f 361/361/361 372/372/372 373/373/373
f 361/361/361 373/373/373 374/374/374
f 361/361/361 374/374/374 375/375/375
f 361/361/361 375/375/375 376/376/376
f 361/361/361 376/376/376 377/377/377
f 361/361/361 377/377/377 378/378/378
f 361/361/361 378/378/378 379/379/379
f 361/361/361 379/379/379 380/380/380
f 361/361/361 380/380/380 381/381/381
f 361/361/361 381/381/381 382/382/382
f 361/361/361 382/382/382 383/383/383
f 361/361/361 383/383/383 384/384/384
f 361/361/361 384/384/384 385/385/385
f 361/361/361 385/385/385 386/386/386
f 361/361/361 386/386/386 387/387/387
f 361/361/361 387/387/387 388/388/388
f 361/361/361 388/388/388 389/389/389
f 361/361/361 389/389/389 390/390/390
f 361/361/361 390/390/390 391/391/391
f 361/361/361 391/391/391 392/392/392
f 361/361/361 392/392/392 393/393/393
f 361/361/361 393/393/393 394/394/394
f 361/361/361 394/394/394 395/395/395
f 361/361/361 395/395/395 396/396/396
f 361/361/361 396/396/396 397/397/397
f 361/361/361 397/397/397 398/398/398
f 361/361/361 398/398/398 399/399/399
f 361/361/361 399/399/399 400/400/400
v 0.0676742 -0.0134612 0.7660000
v 0.0637477 -0.0264052 0.7660000
v 0.0573714 -0.0383343 0.7660000
v 0.0487904 -0.0487904 0.7660000
v 0.0383343 -0.0573714 0.7660000
v 0.0264052 -0.0637477 0.7660000
v 0.0134612 -0.0676742 0.7660000
v -0.0000000 -0.0690000 0.7660000
v -0.0134612 -0.0676742 0.7660000
v -0.0264052 -0.0637477 0.7660000
v -0.0383343 -0.0573714 0.7660000
v -0.0487904 -0.0487904 0.7660000
v -0.0573714 -0.0383343 0.7660000
v -0.0637477 -0.0264052 0.7660000
v -0.0676742 -0.0134612 0.7660000
v -0.0690000 0.0000000 0.7660000
v -0.0676742 0.0134612 0.7660000
v -0.0637477 0.0264052 0.7660000
v -0.0573714 0.0383343 0.7660000
v -0.0487904 0.0487904 0.7660000
v -0.0383343 0.0573714 0.7660000
v -0.0264052 0.0637477 0.7660000
v -0.0134612 0.0676742 0.7660000
v 0.0000000 0.0690000 0.7660000
v 0.0134612 0.0676742 0.7660000
v 0.0264052 0.0637477 0.7660000
v 0.0383343 0.0573714 0.7660000
v 0.0487904 0.0487904 0.7660000
v 0.0573714 0.0383343 0.7660000
v 0.0637477 0.0264052 0.7660000
v 0.0676742 0.0134612 0.7660000
v 0.0690000 0.0000000 0.7660000
vt 0.4779825 0.1454845
vt 0.4720074 0.1651818
vt 0.4623043 0.1833349
vt 0.4492462 0.1992462
vt 0.4333349 0.2123043
vt 0.4151818 0.2220074
vt 0.3954845 0.2279825
vt 0.3750000 0.2300000
vt 0.3545155 0.2279825
vt 0.3348182 0.2220074
vt 0.3166651 0.2123043
vt 0.3007538 0.1992462
vt 0.2876957 0.1833349
vt 0.2779926 0.1651818
vt 0.2720175 0.1454845
vt 0.2700000 0.1250000
vt 0.2720175 0.1045155
vt 0.2779926 0.0848182
vt 0.2876957 0.0666651
vt 0.3007538 0.0507538
vt 0.3166651 0.0376957
vt 0.3348182 0.0279926
vt 0.3545155 0.0220175
vt 0.3750000 0.0200000
vt 0.3954845 0.0220175
vt 0.4151818 0.0279926
vt 0.4333349 0.0376957
vt 0.4492462 0.0507538
vt 0.4623043 0.0666651
vt 0.4720074 0.0848182
vt 0.4779825 0.1045155
vt 0.4800000 0.1250000
vn 0.0000000 0.0000000 -1.0000000
vn 0.0000000 0.0000000 -1.0000000
vn 0.0000000 0.0000000 -1.0000000
vn 0.0000000 0.0000000 -1.0000000
vn 0.0000000 0.0000000 -1.0000000
vn 0.0000000 0.0000000 -1.0000000
vn 0.0000000 0.0000000 -1.0000000
vn 0.0000000 0.0000000 -1.0000000
vn 0.0000000 0.0000000 -1.0000000
vn 0.0000000 0.0000000 -1.0000000
vn 0.0000000 0.0000000 -1.0000000
vn 0.0000000 0.0000000 -1.0000000
vn 0.0000000 0.0000000 -1.0000000
vn 0.0000000 0.0000000 -1.0000000
vn 0.0000000 0.0000000 -1.0000000
vn 0.0000000 0.0000000 -1.0000000
vn 0.0000000 0.0000000 -1.0000000
vn 0.0000000 0.0000000 -1.0000000
vn 0.0000000 0.0000000 -1.0000000
vn 0.0000000 0.0000000 -1.0000000
vn 0.0000000 0.0000000 -1.0000000
vn 0.0000000 0.0000000 -1.0000000
vn 0.0000000 0.0000000 -1.0000000
vn 0.0000000 0.0000000 -1.0000000
vn 0.0000000 0.0000000 -1.0000000
vn 0.0000000 0.0000000 -1.0000000
vn 0.0000000 0.0000000 -1.0000000
vn 0.0000000 0.0000000 -1.0000000
vn 0.0000000 0.0000000 -1.0000000
vn 0.0000000 0.0000000 -1.0000000
vn 0.0000000 0.0000000 -1.0000000
vn 0.0000000 0.0000000 -1.0000000
f 401/401/401 402/402/402 403/403/403
f 401/401/401 403/403/403 404/404/404
f 401/401/401 404/404/404 405/405/405
f 401/401/401 405/405/405 406/406/406
f 401/401/401 406/406/406 407/407/407
f 401/401/401 407/407/407 408/408/408
f 401/401/401 408/408/408 409/409/409
f 401/401/401 409/409/409 410/410/410
f 401/401/401 410/410/410 411/411/411
f 401/401/401 411/411/411 412/412/412
f 401/401/401 412/412/412 413/413/413
f 401/401/401 413/413/413 414/414/414
f 401/401/401 414/414/414 415/415/415
f 401/401/401 415/415/415 416/416/416
f 401/401/401 416/416/416 417/417/417
f 401/401/401 417/417/417 418/418/418
f 401/401/401 418/418/418 419/419/419
f 401/401/401 419/419/419 420/420/420
f 401/401/401 420/420/420 421/421/421
f 401/401/401 421/421/421 422/422/422
f 401/401/401 422/422/422 423/423/423
f 401/401/401 423/423/423 424/424/424
f 401/401/401 424/424/424 425/425/425
f 401/401/401 425/425/425 426/426/426
f 401/401/401 426/426/426 427/427/427
f 401/401/401 427/427/427 428/428/428
f 401/401/401 428/428/428 429/429/429
f 401/401/401 429/429/429 430/430/430
f 401/401/401 430/430/430 431/431/431
f 401/401/401 431/431/431 432/432/432
v 0.0690000 0.0000000 0.7660000
v 0.0676742 0.0134612 0.7660000
v 0.0343275 0.0068282 0.7800000
v 0.0350000 0.0000000 0.7800000
vt 0.2700000 0.0200000
vt 0.4800000 0.0280300
vt 0.3765217 0.2300000
vt 0.2700000 0.2259268
vn 0.3804824 0.0374742 0.9240286
vn 0.3804824 0.0374742 0.9240286
vn 0.3804824 0.0374742 0.9240286
vn 0.3804824 0.0374742 0.9240286
f 433/433/433 434/434/434 435/435/435
f 433/433/433 435/435/435 436/436/436
v 0.0676742 0.0134612 0.7660000
v 0.0637477 0.0264052 0.7660000
v 0.0323358 0.0133939 0.7800000
v 0.0343275 0.0068282 0.7800000
vt 0.3411521 0.0200000
vt 0.4800000 0.0433334
vt 0.3404301 0.2300000
vt 0.2700000 0.2181642
vn 0.3658606 0.1109826 0.9240286
vn 0.3658606 0.1109826 0.9240286
vn 0.3658606 0.1109826 0.9240286
vn 0.3658606 0.1109826 0.9240286
f 437/437/437 438/438/438 439/439/439
f 437/437/437 439/439/439 440/440/440
v 0.0637477 0.0264052 0.7660000
v 0.0573714 0.0383343 0.7660000
v 0.0291014 0.0194450 0.7800000
v 0.0323358 0.0133939 0.7800000
vt 0.3795555 0.0200000
vt 0.4800000 0.0586483
vt 0.3209501 0.2300000
vt 0.2700000 0.2103958
vn 0.3371791 0.1802260 0.9240286
vn 0.3371791 0.1802260 0.9240286
vn 0.3371791 0.1802260 0.9240286
vn 0.3371791 0.1802260 0.9240286
f 441/441/441 442/442/442 443/443/443
f 441/441/441 443/443/443 444/444/444
v 0.0573714 0.0383343 0.7660000
v 0.0487904 0.0487904 0.7660000
v 0.0247487 0.0247487 0.7800000
v 0.0291014 0.0194450 0.7800000
vt 0.4051752 0.0200000
vt 0.4800000 0.0752382
vt 0.3079546 0.2300000
vt 0.2700000 0.2019806
vn 0.2955400 0.2425434 0.9240286
vn 0.2955400 0.2425434 0.9240286
vn 0.2955400 0.2425434 0.9240286
vn 0.2955400 0.2425434 0.9240286
f 445/445/445 446/446/446 447/447/447
f 445/445/445 447/447/447 448/448/448
v 0.0487904 0.0487904 0.7660000
v 0.0383343 0.0573714 0.7660000
v 0.0194450 0.0291014 0.7800000
v 0.0247487 0.0247487 0.7800000
vt 0.4800000 0.0752382
vt 0.4051752 0.0200000
vt 0.2700000 0.2019806
vt 0.3079546 0.2300000
vn 0.2425434 0.2955400 0.9240286
vn 0.2425434 0.2955400 0.9240286
vn 0.2425434 0.2955400 0.9240286
vn 0.2425434 0.2955400 0.9240286
f 449/449/449 450/450/450 451/451/451
f 449/449/449 451/451/451 452/452/452
v 0.0383343 0.0573714 0.7660000
v 0.0264052 0.0637477 0.7660000
v 0.0133939 0.0323358 0.7800000
v 0.0194450 0.0291014 0.7800000
vt 0.4800000 0.0586483
vt 0.3795555 0.0200000
vt 0.2700000 0.2103958
vt 0.3209501 0.2300000
vn 0.1802260 0.3371791 0.9240286
vn 0.1802260 0.3371791 0.9240286
vn 0.1802260 0.3371791 0.9240286
vn 0.1802260 0.3371791 0.9240286
f 453/453/453 454/454/454 455/455/455
f 453/453/453 455/455/455 456/456/456
v 0.0264052 0.0637477 0.7660000
v 0.0134612 0.0676742 0.7660000
v 0.0068282 0.0343275 0.7800000
v 0.0133939 0.0323358 0.7800000
vt 0.4800000 0.0433334
vt 0.3411521 0.0200000
vt 0.2700000 0.2181642
vt 0.3404301 0.2300000
vn 0.1109826 0.3658606 0.9240286
vn 0.1109826 0.3658606 0.9240286
vn 0.1109826 0.3658606 0.9240286
vn 0.1109826 0.3658606 0.9240286
f 457/457/457 458/458/458 459/459/459
f 457/457/457 459/459/459 460/460/460
v 0.0134612 0.0676742 0.7660000
v 0.0000000 0.0690000 0.7660000
v 0.0000000 0.0350000 0.7800000
v 0.0068282 0.0343275 0.7800000
vt 0.4800000 0.0280300
vt 0.2700000 0.0200000
vt 0.2700000 0.2259268
vt 0.3765217 0.2300000
vn 0.0374742 0.3804824 0.9240286
vn 0.0374742 0.3804824 0.9240286
vn 0.0374742 0.3804824 0.9240286
vn 0.0374742 0.3804824 0.9240286
f 461/461/461 462/462/462 463/463/463
f 461/461/461 463/463/463 464/464/464
v 0.0000000 0.0690000 0.7660000
v -0.0134612 0.0676742 0.7660000
v -0.0068282 0.0343275 0.7800000
v 0.0000000 0.0350000 0.7800000
vt 0.4800000 0.0200000
vt 0.2700000 0.0280300
vt 0.3734783 0.2300000
vt 0.4800000 0.2259268
vn -0.0374742 0.3804824 0.9240286
vn -0.0374742 0.3804824 0.9240286
vn -0.0374742 0.3804824 0.9240286
vn -0.0374742 0.3804824 0.9240286
f 465/465/465 466/466/466 467/467/467
f 465/465/465 467/467/467 468/468/468
v -0.0134612 0.0676742 0.7660000
v -0.0264052 0.0637477 0.7660000
v -0.0133939 0.0323358 0.7800000
v -0.0068282 0.0343275 0.7800000
vt 0.4088479 0.0200000
vt 0.2700000 0.0433334
vt 0.4095699 0.2300000
vt 0.4800000 0.2181642
vn -0.1109826 0.3658606 0.9240286
vn -0.1109826 0.3658606 0.9240286
vn -0.1109826 0.3658606 0.9240286
vn -0.1109826 0.3658606 0.9240286
f 469/469/469 470/470/470 471/471/471
f 469/469/469 471/471/471 472/472/472
v -0.0264052 0.0637477 0.7660000
v -0.0383343 0.0573714 0.7660000
v -0.0194450 0.0291014 0.7800000
v -0.0133939 0.0323358 0.7800000
vt 0.3704445 0.0200000
vt 0.2700000 0.0586483
vt 0.4290499 0.2300000
vt 0.4800000 0.2103958
vn -0.1802260 0.3371791 0.9240286
vn -0.1802260 0.3371791 0.9240286
vn -0.1802260 0.3371791 0.9240286
vn -0.1802260 0.3371791 0.9240286
f 473/473/473 474/474/474 475/475/475
f 473/473/473 475/475/475 476/476/476
v -0.0383343 0.0573714 0.7660000
v -0.0487904 0.0487904 0.7660000
v -0.0247487 0.0247487 0.7800000
v -0.0194450 0.0291014 0.7800000
vt 0.3448248 0.0200000
vt 0.2700000 0.0752382
vt 0.4420454 0.2300000
vt 0.4800000 0.2019806
vn -0.2425434 0.2955400 0.9240286
vn -0.2425434 0.2955400 0.9240286
vn -0.2425434 0.2955400 0.9240286
vn -0.2425434 0.2955400 0.9240286
f 477/477/477 478/478/478 479/479/479
f 477/477/477 479/479/479 480/480/480
v -0.0487904 0.0487904 0.7660000
v -0.0573714 0.0383343 0.7660000
v -0.0291014 0.0194450 0.7800000
v -0.0247487 0.0247487 0.7800000
vt 0.4800000 0.1747618
vt 0.4051752 0.2300000
vt 0.2700000 0.0480194
vt 0.3079546 0.0200000
vn -0.2955400 0.2425434 0.9240286
vn -0.2955400 0.2425434 0.9240286
vn -0.2955400 0.2425434 0.9240286
vn -0.2955400 0.2425434 0.9240286
f 481/481/481 482/482/482 483/483/483
f 481/481/481 483/483/483 484/484/484
v -0.0573714 0.0383343 0.7660000
v -0.0637477 0.0264052 0.7660000
v -0.0323358 0.0133939 0.7800000
v -0.0291014 0.0194450 0.7800000
vt 0.4800000 0.1913517
vt 0.3795555 0.2300000
vt 0.2700000 0.0396042
vt 0.3209501 0.0200000
vn -0.3371791 0.1802260 0.9240286
vn -0.3371791 0.1802260 0.9240286
vn -0.3371791 0.1802260 0.9240286
vn -0.3371791 0.1802260 0.9240286
f 485/485/485 486/486/486 487/487/487
f 485/485/485 487/487/487 488/488/488
v -0.0637477 0.0264052 0.7660000
v -0.0676742 0.0134612 0.7660000
v -0.0343275 0.0068282 0.7800000
v -0.0323358 0.0133939 0.7800000
vt 0.4800000 0.2066666
vt 0.3411521 0.2300000
vt 0.2700000 0.0318358
vt 0.3404301 0.0200000
vn -0.3658606 0.1109826 0.9240286
vn -0.3658606 0.1109826 0.9240286
vn -0.3658606 0.1109826 0.9240286
vn -0.3658606 0.1109826 0.9240286
f 489/489/489 490/490/490 491/491/491
f 489/489/489 491/491/491 492/492/492
v -0.0676742 0.0134612 0.7660000
v -0.0690000 0.0000000 0.7660000
v -0.0350000 0.0000000 0.7800000
v -0.0343275 0.0068282 0.7800000
vt 0.4800000 0.2219700
vt 0.2700000 0.2300000
vt 0.2700000 0.0240732
vt 0.3765217 0.0200000
vn -0.3804824 0.0374742 0.9240286
vn -0.3804824 0.0374742 0.9240286
vn -0.3804824 0.0374742 0.9240286
vn -0.3804824 0.0374742 0.9240286
f 493/493/493 494/494/494 495/495/495
f 493/493/493 495/495/495 496/496/496
v -0.0690000 0.0000000 0.7660000
v -0.0676742 -0.0134612 0.7660000
v -0.0343275 -0.0068282 0.7800000
v -0.0350000 0.0000000 0.7800000
vt 0.4800000 0.2300000
vt 0.2700000 0.2219700
vt 0.3734783 0.0200000
vt 0.4800000 0.0240732
vn -0.3804824 -0.0374742 0.9240286
vn -0.3804824 -0.0374742 0.9240286
vn -0.3804824 -0.0374742 0.9240286
vn -0.3804824 -0.0374742 0.9240286
f 497/497/497 498/498/498 499/499/499
f 497/497/497 499/499/499 500/500/500
v -0.0676742 -0.0134612 0.7660000
v -0.0637477 -0.0264052 0.7660000
v -0.0323358 -0.0133939 0.7800000
v -0.0343275 -0.0068282 0.7800000
vt 0.4088479 0.2300000
vt 0.2700000 0.2066666
vt 0.4095699 0.0200000
vt 0.4800000 0.0318358
vn -0.3658606 -0.1109826 0.9240286
vn -0.3658606 -0.1109826 0.9240286
vn -0.3658606 -0.1109826 0.9240286
vn -0.3658606 -0.1109826 0.9240286
f 501/501/501 502/502/502 503/503/503
f 501/501/501 503/503/503 504/504/504
v -0.0637477 -0.0264052 0.7660000
v -0.0573714 -0.0383343 0.7660000
v -0.0291014 -0.0194450 0.7800000
v -0.0323358 -0.0133939 0.7800000
vt 0.3704445 0.2300000
vt 0.2700000 0.1913517
vt 0.4290499 0.0200000
vt 0.4800000 0.0396042
vn -0.3371791 -0.1802260 0.9240286
vn -0.3371791 -0.1802260 0.9240286
vn -0.3371791 -0.1802260 0.9240286
vn -0.3371791 -0.1802260 0.9240286
f 505/505/505 506/506/506 507/507/507
f 505/505/505 507/507/507 508/508/508
v -0.0573714 -0.0383343 0.7660000
v -0.0487904 -0.0487904 0.7660000
v -0.0247487 -0.0247487 0.7800000
v -0.0291014 -0.0194450 0.7800000
vt 0.3448248 0.2300000
vt 0.2700000 0.1747618
vt 0.4420454 0.0200000
vt 0.4800000 0.0480194
vn -0.2955400 -0.2425434 0.9240286
vn -0.2955400 -0.2425434 0.9240286
vn -0.2955400 -0.2425434 0.9240286
vn -0.2955400 -0.2425434 0.9240286
f 509/509/509 510/510/510 511/511/511
f 509/509/509 511/511/511 512/512/512
v -0.0487904 -0.0487904 0.7660000
v -0.0383343 -0.0573714 0.7660000
v -0.0194450 -0.0291014 0.7800000
v -0.0247487 -0.0247487 0.7800000
vt 0.2700000 0.1747618
vt 0.3448248 0.2300000
vt 0.4800000 0.0480194
vt 0.4420454 0.0200000
vn -0.2425434 -0.2955400 0.9240286
vn -0.2425434 -0.2955400 0.9240286
vn -0.2425434 -0.2955400 0.9240286
vn -0.2425434 -0.2955400 0.9240286
f 513/513/513 514/514/514 515/515/515
f 513/513/513 515/515/515 516/516/516
v -0.0383343 -0.0573714 0.7660000
v -0.0264052 -0.0637477 0.7660000
v -0.0133939 -0.0323358 0.7800000
v -0.0194450 -0.0291014 0.7800000
vt 0.2700000 0.1913517
vt 0.3704445 0.2300000
vt 0.4800000 0.0396042
vt 0.4290499 0.0200000
vn -0.1802260 -0.3371791 0.9240286
vn -0.1802260 -0.3371791 0.9240286
vn -0.1802260 -0.3371791 0.9240286
vn -0.1802260 -0.3371791 0.9240286
f 517/517/517 518/518/518 519/519/519
f 517/517/517 519/519/519 520/520/520
v -0.0264052 -0.0637477 0.7660000
v -0.0134612 -0.0676742 0.7660000
v -0.0068282 -0.0343275 0.7800000
v -0.0133939 -0.0323358 0.7800000
vt 0.2700000 0.2066666
vt 0.4088479 0.2300000
vt 0.4800000 0.0318358
vt 0.4095699 0.0200000
vn -0.1109826 -0.3658606 0.9240286
vn -0.1109826 -0.3658606 0.9240286
vn -0.1109826 -0.3658606 0.9240286
vn -0.1109826 -0.3658606 0.9240286
f 521/521/521 522/522/522 523/523/523
f 521/521/521 523/523/523 524/524/524
v -0.0134612 -0.0676742 0.7660000
v -0.0000000 -0.0690000 0.7660000
v -0.0000000 -0.0350000 0.7800000
v -0.0068282 -0.0343275 0.7800000
vt 0.2700000 0.2219700
vt 0.4800000 0.2300000
vt 0.4800000 0.0240732
vt 0.3734783 0.0200000
vn -0.0374742 -0.3804824 0.9240286
vn -0.0374742 -0.3804824 0.9240286
vn -0.0374742 -0.3804824 0.9240286
vn -0.0374742 -0.3804824 0.9240286
f 525/525/525 526/526/526 527/527/527
f 525/525/525 527/527/527 528/528/528
v -0.0000000 -0.0690000 0.7660000
v 0.0134612 -0.0676742 0.7660000
v 0.0068282 -0.0343275 0.7800000
v -0.0000000 -0.0350000 0.7800000
vt 0.2700000 0.2300000
vt 0.4800000 0.2219700
vt 0.3765217 0.0200000
vt 0.2700000 0.0240732
vn 0.0374742 -0.3804824 0.9240286
vn 0.0374742 -0.3804824 0.9240286
vn 0.0374742 -0.3804824 0.9240286
vn 0.0374742 -0.3804824 0.9240286
f 529/529/529 530/530/530 531/531/531
f 529/529/529 531/531/531 532/532/532
v 0.0134612 -0.0676742 0.7660000
v 0.0264052 -0.0637477 0.7660000
v 0.0133939 -0.0323358 0.7800000
v 0.0068282 -0.0343275 0.7800000
vt 0.3411521 0.2300000
vt 0.4800000 0.2066666
vt 0.3404301 0.0200000
vt 0.2700000 0.0318358
vn 0.1109826 -0.3658606 0.9240286
vn 0.1109826 -0.3658606 0.9240286
vn 0.1109826 -0.3658606 0.9240286
vn 0.1109826 -0.3658606 0.9240286
f 533/533/533 534/534/534 535/535/535
f 533/533/533 535/535/535 536/536/536
v 0.0264052 -0.0637477 0.7660000
v 0.0383343 -0.0573714 0.7660000
v 0.0194450 -0.0291014 0.7800000
v 0.0133939 -0.0323358 0.7800000
vt 0.3795555 0.2300000
vt 0.4800000 0.1913517
vt 0.3209501 0.0200000
vt 0.2700000 0.0396042
vn 0.1802260 -0.3371791 0.9240286
vn 0.1802260 -0.3371791 0.9240286
vn 0.1802260 -0.3371791 0.9240286
vn 0.1802260 -0.3371791 0.9240286
f 537/537/537 538/538/538 539/539/539
f 537/537/537 539/539/539 540/540/540
v 0.0383343 -0.0573714 0.7660000
v 0.0487904 -0.0487904 0.7660000
v 0.0247487 -0.0247487 0.7800000
v 0.0194450 -0.0291014 0.7800000
vt 0.4051752 0.2300000
vt 0.4800000 0.1747618
vt 0.3079546 0.0200000
vt 0.2700000 0.0480194
vn 0.2425434 -0.2955400 0.9240286
vn 0.2425434 -0.2955400 0.9240286
vn 0.2425434 -0.2955400 0.9240286
vn 0.2425434 -0.2955400 0.9240286
f 541/541/541 542/542/542 543/543/543
f 541/541/541 543/543/543 544/544/544
v 0.0487904 -0.0487904 0.7660000
v 0.0573714 -0.0383343 0.7660000
v 0.0291014 -0.0194450 0.7800000
v 0.0247487 -0.0247487 0.7800000
vt 0.2700000 0.0752382
vt 0.3448248 0.0200000
vt 0.4800000 0.2019806
vt 0.4420454 0.2300000
vn 0.2955400 -0.2425434 0.9240286
vn 0.2955400 -0.2425434 0.9240286
vn 0.2955400 -0.2425434 0.9240286
vn 0.2955400 -0.2425434 0.9240286
f 545/545/545 546/546/546 547/547/547
f 545/545/545 547/547/547 548/548/548
v 0.0573714 -0.0383343 0.7660000
v 0.0637477 -0.0264052 0.7660000
v 0.0323358 -0.0133939 0.7800000
v 0.0291014 -0.0194450 0.7800000
vt 0.2700000 0.0586483
vt 0.3704445 0.0200000
vt 0.4800000 0.2103958
vt 0.4290499 0.2300000
vn 0.3371791 -0.1802260 0.9240286
vn 0.3371791 -0.1802260 0.9240286
vn 0.3371791 -0.1802260 0.9240286
vn 0.3371791 -0.1802260 0.9240286
f 549/549/549 550/550/550 551/551/551
f 549/549/549 551/551/551 552/552/552
v 0.0637477 -0.0264052 0.7660000
v 0.0676742 -0.0134612 0.7660000
v 0.0343275 -0.0068282 0.7800000
v 0.0323358 -0.0133939 0.7800000
vt 0.2700000 0.0433334
vt 0.4088479 0.0200000
vt 0.4800000 0.2181642
vt 0.4095699 0.2300000
vn 0.3658606 -0.1109826 0.9240286
vn 0.3658606 -0.1109826 0.9240286
vn 0.3658606 -0.1109826 0.9240286
vn 0.3658606 -0.1109826 0.9240286
f 553/553/553 554/554/554 555/555/555
f 553/553/553 555/555/555 556/556/556
v 0.0676742 -0.0134612 0.7660000
v 0.0690000 0.0000000 0.7660000
v 0.0350000 0.0000000 0.7800000
v 0.0343275 -0.0068282 0.7800000
vt 0.2700000 0.0280300
vt 0.4800000 0.0200000
vt 0.4800000 0.2259268
vt 0.3734783 0.2300000
vn 0.3804824 -0.0374742 0.9240286
vn 0.3804824 -0.0374742 0.9240286
vn 0.3804824 -0.0374742 0.9240286
vn 0.3804824 -0.0374742 0.9240286
f 557/557/557 558/558/558 559/559/559
f 557/557/557 559/559/559 560/560/560
v 0.0350000 0.0000000 0.7800000
v 0.0343275 0.0068282 0.7800000
v 0.0323358 0.0133939 0.7800000
v 0.0291014 0.0194450 0.7800000
v 0.0247487 0.0247487 0.7800000
v 0.0194450 0.0291014 0.7800000
v 0.0133939 0.0323358 0.7800000
v 0.0068282 0.0343275 0.7800000
v 0.0000000 0.0350000 0.7800000
v -0.0068282 0.0343275 0.7800000
v -0.0133939 0.0323358 0.7800000
v -0.0194450 0.0291014 0.7800000
v -0.0247487 0.0247487 0.7800000
v -0.0291014 0.0194450 0.7800000
v -0.0323358 0.0133939 0.7800000
v -0.0343275 0.0068282 0.7800000
v -0.0350000 0.0000000 0.7800000
v -0.0343275 -0.0068282 0.7800000
v -0.0323358 -0.0133939 0.7800000
v -0.0291014 -0.0194450 0.7800000
v -0.0247487 -0.0247487 0.7800000
v -0.0194450 -0.0291014 0.7800000
v -0.0133939 -0.0323358 0.7800000
v -0.0068282 -0.0343275 0.7800000
v -0.0000000 -0.0350000 0.7800000
v 0.0068282 -0.0343275 0.7800000
v 0.0133939 -0.0323358 0.7800000
v 0.0194450 -0.0291014 0.7800000
v 0.0247487 -0.0247487 0.7800000
v 0.0291014 -0.0194450 0.7800000
v 0.0323358 -0.0133939 0.7800000
v 0.0343275 -0.0068282 0.7800000
vt 0.4800000 0.1250000
vt 0.4779825 0.1045155
vt 0.4720074 0.0848182
vt 0.4623043 0.0666651
vt 0.4492462 0.0507538
vt 0.4333349 0.0376957
vt 0.4151818 0.0279926
vt 0.3954845 0.0220175
vt 0.3750000 0.0200000
vt 0.3545155 0.0220175
vt 0.3348182 0.0279926
vt 0.3166651 0.0376957
vt 0.3007538 0.0507538
vt 0.2876957 0.0666651
vt 0.2779926 0.0848182
vt 0.2720175 0.1045155
vt 0.2700000 0.1250000
vt 0.2720175 0.1454845
vt 0.2779926 0.1651818
vt 0.2876957 0.1833349
vt 0.3007538 0.1992462
vt 0.3166651 0.2123043
vt 0.3348182 0.2220074
vt 0.3545155 0.2279825
vt 0.3750000 0.2300000
vt 0.3954845 0.2279825
vt 0.4151818 0.2220074
vt 0.4333349 0.2123043
vt 0.4492462 0.1992462
vt 0.4623043 0.1833349
vt 0.4720074 0.1651818
vt 0.4779825 0.1454845
vn 0.0000000 0.0000000 1.0000000
vn 0.0000000 0.0000000 1.0000000
vn 0.0000000 0.0000000 1.0000000
vn 0.0000000 0.0000000 1.0000000
vn 0.0000000 0.0000000 1.0000000
vn 0.0000000 0.0000000 1.0000000
vn 0.0000000 0.0000000 1.0000000
vn 0.0000000 0.0000000 1.0000000
vn 0.0000000 0.0000000 1.0000000
vn 0.0000000 0.0000000 1.0000000
vn 0.0000000 0.0000000 1.0000000
vn 0.0000000 0.0000000 1.0000000
vn 0.0000000 0.0000000 1.0000000
vn 0.0000000 0.0000000 1.0000000
vn 0.0000000 0.0000000 1.0000000
vn 0.0000000 0.0000000 1.0000000
vn 0.0000000 0.0000000 1.0000000
vn 0.0000000 0.0000000 1.0000000
vn 0.0000000 0.0000000 1.0000000
vn 0.0000000 0.0000000 1.0000000
vn 0.0000000 0.0000000 1.0000000
vn 0.0000000 0.0000000 1.0000000
vn 0.0000000 0.0000000 1.0000000
vn 0.0000000 0.0000000 1.0000000
vn 0.0000000 0.0000000 1.0000000
vn 0.0000000 0.0000000 1.0000000
vn 0.0000000 0.0000000 1.0000000
vn 0.0000000 0.0000000 1.0000000
vn 0.0000000 0.0000000 1.0000000
vn 0.0000000 0.0000000 1.0000000
vn 0.0000000 0.0000000 1.0000000
vn 0.0000000 0.0000000 1.0000000
f 561/561/561 562/562/562 563/563/563
f 561/561/561 563/563/563 564/564/564
f 561/561/561 564/564/564 565/565/565
f 561/561/561 565/565/565 566/566/566
f 561/561/561 566/566/566 567/567/567
f 561/561/561 567/567/567 568/568/568
f 561/561/561 568/568/568 569/569/569
f 561/561/561 569/569/569 570/570/570
f 561/561/561 570/570/570 571/571/571
f 561/561/561 571/571/571 572/572/572
f 561/561/561 572/572/572 573/573/573
f 561/561/561 573/573/573 574/574/574
f 561/561/561 574/574/574 575/575/575
f 561/561/561 575/575/575 576/576/576
f 561/561/561 576/576/576 577/577/577
f 561/561/561 577/577/577 578/578/578
f 561/561/561 578/578/578 579/579/579
f 561/561/561 579/579/579 580/580/580
f 561/561/561 580/580/580 581/581/581
f 561/561/561 581/581/581 582/582/582
f 561/561/561 582/582/582 583/583/583
f 561/561/561 583/583/583 584/584/584
f 561/561/561 584/584/584 585/585/585
f 561/561/561 585/585/585 586/586/586
f 561/561/561 586/586/586 587/587/587
f 561/561/561 587/587/587 588/588/588
f 561/561/561 588/588/588 589/589/589
f 561/561/561 589/589/589 590/590/590
f 561/561/561 590/590/590 591/591/591
f 561/561/561 591/591/591 592/592/592
v 0.0338074 -0.0090587 0.7800000
v 0.0303109 -0.0175000 0.7800000
v 0.0247487 -0.0247487 0.7800000
v 0.0175000 -0.0303109 0.7800000
v 0.0090587 -0.0338074 0.7800000
v -0.0000000 -0.0350000 0.7800000
v -0.0090587 -0.0338074 0.7800000
v -0.0175000 -0.0303109 0.7800000
v -0.0247487 -0.0247487 0.7800000
v -0.0303109 -0.0175000 0.7800000
v -0.0338074 -0.0090587 0.7800000
v -0.0350000 0.0000000 0.7800000
v -0.0338074 0.0090587 0.7800000
v -0.0303109 0.0175000 0.7800000
v -0.0247487 0.0247487 0.7800000
v -0.0175000 0.0303109 0.7800000
v -0.0090587 0.0338074 0.7800000
v 0.0000000 0.0350000 0.7800000
v 0.0090587 0.0338074 0.7800000
v 0.0175000 0.0303109 0.7800000
v 0.0247487 0.0247487 0.7800000
v 0.0303109 0.0175000 0.7800000
v 0.0338074 0.0090587 0.7800000
v 0.0350000 0.0000000 0.7800000
vt 0.7264222 0.1521760
vt 0.7159327 0.1775000
vt 0.6992462 0.1992462
vt 0.6775000 0.2159327
vt 0.6521760 0.2264222
vt 0.6250000 0.2300000
vt 0.5978240 0.2264222
vt 0.5725000 0.2159327
vt 0.5507538 0.1992462
vt 0.5340673 0.1775000
vt 0.5235778 0.1521760
vt 0.5200000 0.1250000
vt 0.5235778 0.0978240
vt 0.5340673 0.0725000
vt 0.5507538 0.0507538
vt 0.5725000 0.0340673
vt 0.5978240 0.0235778
vt 0.6250000 0.0200000
vt 0.6521760 0.0235778
vt 0.6775000 0.0340673
vt 0.6992462 0.0507538
vt 0.7159327 0.0725000
vt 0.7264222 0.0978240
vt 0.7300000 0.1250000
vn 0.0000000 0.0000000 -1.0000000
vn 0.0000000 0.0000000 -1.0000000
vn 0.0000000 0.0000000 -1.0000000
vn 0.0000000 0.0000000 -1.0000000
vn 0.0000000 0.0000000 -1.0000000
vn 0.0000000 0.0000000 -1.0000000
vn 0.0000000 0.0000000 -1.0000000
vn 0.0000000 0.0000000 -1.0000000
vn 0.0000000 0.0000000 -1.0000000
vn 0.0000000 0.0000000 -1.0000000
vn 0.0000000 0.0000000 -1.0000000
vn 0.0000000 0.0000000 -1.0000000
vn 0.0000000 0.0000000 -1.0000000
vn 0.0000000 0.0000000 -1.0000000
vn 0.0000000 0.0000000 -1.0000000
vn 0.0000000 0.0000000 -1.0000000
vn 0.0000000 0.0000000 -1.0000000
vn 0.0000000 0.0000000 -1.0000000
vn 0.0000000 0.0000000 -1.0000000
vn 0.0000000 0.0000000 -1.0000000
vn 0.0000000 0.0000000 -1.0000000
vn 0.0000000 0.0000000 -1.0000000
vn 0.0000000 0.0000000 -1.0000000
vn 0.0000000 0.0000000 -1.0000000
f 593/593/593 594/594/594 595/595/595
f 593/593/593 595/595/595 596/596/596
f 593/593/593 596/596/596 597/597/597
f 593/593/593 597/597/597 598/598/598
f 593/593/593 598/598/598 599/599/599
f 593/593/593 599/599/599 600/600/600
f 593/593/593 600/600/600 601/601/601
f 593/593/593 601/601/601 602/602/602
f 593/593/593 602/602/602 603/603/603
f 593/593/593 603/603/603 604/604/604
f 593/593/593 604/604/604 605/605/605
f 593/593/593 605/605/605 606/606/606
f 593/593/593 606/606/606 607/607/607
f 593/593/593 607/607/607 608/608/608
f 593/593/593 608/608/608 609/609/609
f 593/593/593 609/609/609 610/610/610
f 593/593/593 610/610/610 611/611/611
f 593/593/593 611/611/611 612/612/612
f 593/593/593 612/612/612 613/613/613
f 593/593/593 613/613/613 614/614/614
f 593/593/593 614/614/614 615/615/615
f 593/593/593 615/615/615 616/616/616
v 0.0350000 0.0000000 0.7800000
v 0.0338074 0.0090587 0.7800000
v 0.0289778 0.0077646 0.7850000
v 0.0300000 0.0000000 0.7850000
vt 0.5200000 0.2300000
vt 0.7300000 0.2300000
vt 0.7000000 0.0200000
vt 0.5200000 0.0200000
vn 0.7040626 0.0926916 0.7040626
vn 0.7040626 0.0926916 0.7040626
vn 0.7040626 0.0926916 0.7040626
vn 0.7040626 0.0926916 0.7040626
f 617/617/617 618/618/618 619/619/619
f 617/617/617 619/619/619 620/620/620
v 0.0338074 0.0090587 0.7800000
v 0.0303109 0.0175000 0.7800000
v 0.0259808 0.0150000 0.7850000
v 0.0289778 0.0077646 0.7850000
vt 0.5479145 0.0200000
vt 0.7300000 0.1138165
vt 0.6760733 0.2300000
vt 0.5200000 0.1495859
vn 0.6560819 0.2717580 0.7040626
vn 0.6560819 0.2717580 0.7040626
vn 0.6560819 0.2717580 0.7040626
vn 0.6560819 0.2717580 0.7040626
f 621/621/621 622/622/622 623/623/623
f 621/621/621 623/623/623 624/624/624
v 0.0303109 0.0175000 0.7800000
v 0.0247487 0.0247487 0.7800000
v 0.0212132 0.0212132 0.7850000
v 0.0259808 0.0150000 0.7850000
vt 0.5738531 0.0200000
vt 0.7300000 0.1483900
vt 0.6538402 0.2300000
vt 0.5200000 0.1199514
vn 0.5633903 0.4323046 0.7040626
vn 0.5633903 0.4323046 0.7040626
vn 0.5633903 0.4323046 0.7040626
vn 0.5633903 0.4323046 0.7040626
f 625/625/625 626/626/626 627/627/627
f 625/625/625 627/627/627 628/628/628
v 0.0247487 0.0247487 0.7800000
v 0.0175000 0.0303109 0.7800000
v 0.0150000 0.0259808 0.7850000
v 0.0212132 0.0212132 0.7850000
vt 0.7300000 0.1483900
vt 0.5738531 0.0200000
vt 0.5200000 0.1199514
vt 0.6538402 0.2300000
vn 0.4323046 0.5633903 0.7040626
vn 0.4323046 0.5633903 0.7040626
vn 0.4323046 0.5633903 0.7040626
vn 0.4323046 0.5633903 0.7040626
f 629/629/629 630/630/630 631/631/631
f 629/629/629 631/631/631 632/632/632
v 0.0175000 0.0303109 0.7800000
v 0.0090587 0.0338074 0.7800000
v 0.0077646 0.0289778 0.7850000
v 0.0150000 0.0259808 0.7850000
vt 0.7300000 0.1138165
vt 0.5479145 0.0200000
vt 0.5200000 0.1495859
vt 0.6760733 0.2300000
vn 0.2717580 0.6560819 0.7040626
vn 0.2717580 0.6560819 0.7040626
vn 0.2717580 0.6560819 0.7040626
vn 0.2717580 0.6560819 0.7040626
f 633/633/633 634/634/634 635/635/635
f 633/633/633 635/635/635 636/636/636
v 0.0090587 0.0338074 0.7800000
v 0.0000000 0.0350000 0.7800000
v 0.0000000 0.0300000 0.7850000
v 0.0077646 0.0289778 0.7850000
vt 0.7300000 0.0615868
vt 0.5200000 0.0200000
vt 0.5200000 0.1943542
vt 0.7000000 0.2300000
vn 0.0926916 0.7040626 0.7040626
vn 0.0926916 0.7040626 0.7040626
vn 0.0926916 0.7040626 0.7040626
vn 0.0926916 0.7040626 0.7040626
f 637/637/637 638/638/638 639/639/639
f 637/637/637 639/639/639 640/640/640
v 0.0000000 0.0350000 0.7800000
v -0.0090587 0.0338074 0.7800000
v -0.0077646 0.0289778 0.7850000
v 0.0000000 0.0300000 0.7850000
vt 0.7300000 0.2300000
vt 0.5200000 0.2300000
vt 0.5500000 0.0200000
vt 0.7300000 0.0200000
vn -0.0926916 0.7040626 0.7040626
vn -0.0926916 0.7040626 0.7040626
vn -0.0926916 0.7040626 0.7040626
vn -0.0926916 0.7040626 0.7040626
f 641/641/641 642/642/642 643/643/643
f 641/641/641 643/643/643 644/644/644
v -0.0090587 0.0338074 0.7800000
v -0.0175000 0.0303109 0.7800000
v -0.0150000 0.0259808 0.7850000
v -0.0077646 0.0289778 0.7850000
vt 0.7020855 0.0200000
vt 0.5200000 0.1138165
vt 0.5739267 0.2300000
vt 0.7300000 0.1495859
vn -0.2717580 0.6560819 0.7040626
vn -0.2717580 0.6560819 0.7040626
vn -0.2717580 0.6560819 0.7040626
vn -0.2717580 0.6560819 0.7040626
f 645/645/645 646/646/646 647/647/647
f 645/645/645 647/647/647 648/648/648
v -0.0175000 0.0303109 0.7800000
v -0.0247487 0.0247487 0.7800000
v -0.0212132 0.0212132 0.7850000
v -0.0150000 0.0259808 0.7850000
vt 0.6761469 0.0200000
vt 0.5200000 0.1483900
vt 0.5961598 0.2300000
vt 0.7300000 0.1199514
vn -0.4323046 0.5633903 0.7040626
vn -0.4323046 0.5633903 0.7040626
vn -0.4323046 0.5633903 0.7040626
vn -0.4323046 0.5633903 0.7040626
f 649/649/649 650/650/650 651/651/651
f 649/649/649 651/651/651 652/652/652
v -0.0247487 0.0247487 0.7800000
v -0.0303109 0.0175000 0.7800000
v -0.0259808 0.0150000 0.7850000
v -0.0212132 0.0212132 0.7850000
vt 0.7300000 0.1016100
vt 0.5738531 0.2300000
vt 0.5200000 0.1300486
vt 0.6538402 0.0200000
vn -0.5633903 0.4323046 0.7040626
vn -0.5633903 0.4323046 0.7040626
vn -0.5633903 0.4323046 0.7040626
vn -0.5633903 0.4323046 0.7040626
f 653/653/653 654/654/654 655/655/655
f 653/653/653 655/655/655 656/656/656
v -0.0303109 0.0175000 0.7800000
v -0.0338074 0.0090587 0.7800000
v -0.0289778 0.0077646 0.7850000
v -0.0259808 0.0150000 0.7850000
vt 0.7300000 0.1361835
vt 0.5479145 0.2300000
vt 0.5200000 0.1004141
vt 0.6760733 0.0200000
vn -0.6560819 0.2717580 0.7040626
vn -0.6560819 0.2717580 0.7040626
vn -0.6560819 0.2717580 0.7040626
vn -0.6560819 0.2717580 0.7040626
f 657/657/657 658/658/658 659/659/659
f 657/657/657 659/659/659 660/660/660
v -0.0338074 0.0090587 0.7800000
v -0.0350000 0.0000000 0.7800000
v -0.0300000 0.0000000 0.7850000
v -0.0289778 0.0077646 0.7850000
vt 0.7300000 0.1884132
vt 0.5200000 0.2300000
vt 0.5200000 0.0556458
vt 0.7000000 0.0200000
vn -0.7040626 0.0926916 0.7040626
vn -0.7040626 0.0926916 0.7040626
vn -0.7040626 0.0926916 0.7040626
vn -0.7040626 0.0926916 0.7040626
f 661/661/661 662/662/662 663/663/663
f 661/661/661 663/663/663 664/664/664
v -0.0350000 0.0000000 0.7800000
v -0.0338074 -0.0090587 0.7800000
v -0.0289778 -0.0077646 0.7850000
v -0.0300000 0.0000000 0.7850000
vt 0.7300000 0.2300000
vt 0.5200000 0.2300000
vt 0.5500000 0.0200000
vt 0.7300000 0.0200000
vn -0.7040626 -0.0926916 0.7040626
vn -0.7040626 -0.0926916 0.7040626
vn -0.7040626 -0.0926916 0.7040626
vn -0.7040626 -0.0926916 0.7040626
f 665/665/665 666/666/666 667/667/667
f 665/665/665 667/667/667 668/668/668
v -0.0338074 -0.0090587 0.7800000
v -0.0303109 -0.0175000 0.7800000
v -0.0259808 -0.0150000 0.7850000
v -0.0289778 -0.0077646 0.7850000
vt 0.7020855 0.2300000
vt 0.5200000 0.1361835
vt 0.5739267 0.0200000
vt 0.7300000 0.1004141
vn -0.6560819 -0.2717580 0.7040626
vn -0.6560819 -0.2717580 0.7040626
vn -0.6560819 -0.2717580 0.7040626
vn -0.6560819 -0.2717580 0.7040626
f 669/669/669 670/670/670 671/671/671
f 669/669/669 671/671/671 672/672/672
v -0.0303109 -0.0175000 0.7800000
v -0.0247487 -0.0247487 0.7800000
v -0.0212132 -0.0212132 0.7850000
v -0.0259808 -0.0150000 0.7850000
vt 0.6761469 0.2300000
vt 0.5200000 0.1016100
vt 0.5961598 0.0200000
vt 0.7300000 0.1300486
vn -0.5633903 -0.4323046 0.7040626
vn -0.5633903 -0.4323046 0.7040626
vn -0.5633903 -0.4323046 0.7040626
vn -0.5633903 -0.4323046 0.7040626
f 673/673/673 674/674/674 675/675/675
f 673/673/673 675/675/675 676/676/676
v -0.0247487 -0.0247487 0.7800000
v -0.0175000 -0.0303109 0.7800000
v -0.0150000 -0.0259808 0.7850000
v -0.0212132 -0.0212132 0.7850000
vt 0.5200000 0.1016100
vt 0.6761469 0.2300000
vt 0.7300000 0.1300486
vt 0.5961598 0.0200000
vn -0.4323046 -0.5633903 0.7040626
vn -0.4323046 -0.5633903 0.7040626
vn -0.4323046 -0.5633903 0.7040626
vn -0.4323046 -0.5633903 0.7040626
f 677/677/677 678/678/678 679/679/679
f 677/677/677 679/679/679 680/680/680
v -0.0175000 -0.0303109 0.7800000
v -0.0090587 -0.0338074 0.7800000
v -0.0077646 -0.0289778 0.7850000
v -0.0150000 -0.0259808 0.7850000
vt 0.5200000 0.1361835
vt 0.7020855 0.2300000
vt 0.7300000 0.1004141
vt 0.5739267 0.0200000
vn -0.2717580 -0.6560819 0.7040626
vn -0.2717580 -0.6560819 0.7040626
vn -0.2717580 -0.6560819 0.7040626
vn -0.2717580 -0.6560819 0.7040626
f 681/681/681 682/682/682 683/683/683
f 681/681/681 683/683/683 684/684/684
v -0.0090587 -0.0338074 0.7800000
v -0.0000000 -0.0350000 0.7800000
v -0.0000000 -0.0300000 0.7850000
v -0.0077646 -0.0289778 0.7850000
vt 0.5200000 0.1884132
vt 0.7300000 0.2300000
vt 0.7300000 0.0556458
vt 0.5500000 0.0200000
vn -0.0926916 -0.7040626 0.7040626
vn -0.0926916 -0.7040626 0.7040626
vn -0.0926916 -0.7040626 0.7040626
vn -0.0926916 -0.7040626 0.7040626
f 685/685/685 686/686/686 687/687/687
f 685/685/685 687/687/687 688/688/688
v -0.0000000 -0.0350000 0.7800000
v 0.0090587 -0.0338074 0.7800000
v 0.0077646 -0.0289778 0.7850000
v -0.0000000 -0.0300000 0.7850000
vt 0.5200000 0.2300000
vt 0.7300000 0.1884132
vt 0.7000000 0.0200000
vt 0.5200000 0.0556458
vn 0.0926916 -0.7040626 0.7040626
vn 0.0926916 -0.7040626 0.7040626
vn 0.0926916 -0.7040626 0.7040626
vn 0.0926916 -0.7040626 0.7040626
f 689/689/689 690/690/690 691/691/691
f 689/689/689 691/691/691 692/692/692
v 0.0090587 -0.0338074 0.7800000
v 0.0175000 -0.0303109 0.7800000
v 0.0150000 -0.0259808 0.7850000
v 0.0077646 -0.0289778 0.7850000
vt 0.5479145 0.2300000
vt 0.7300000 0.1361835
vt 0.6760733 0.0200000
vt 0.5200000 0.1004141
vn 0.2717580 -0.6560819 0.7040626
vn 0.2717580 -0.6560819 0.7040626
vn 0.2717580 -0.6560819 0.7040626
vn 0.2717580 -0.6560819 0.7040626
f 693/693/693 694/694/694 695/695/695
f 693/693/693 695/695/695 696/696/696
v 0.0175000 -0.0303109 0.7800000
v 0.0247487 -0.0247487 0.7800000
v 0.0212132 -0.0212132 0.7850000
v 0.0150000 -0.0259808 0.7850000
vt 0.5738531 0.2300000
vt 0.7300000 0.1016100
vt 0.6538402 0.0200000
vt 0.5200000 0.1300486
vn 0.4323046 -0.5633903 0.7040626
vn 0.4323046 -0.5633903 0.7040626
vn 0.4323046 -0.5633903 0.7040626
vn 0.4323046 -0.5633903 0.7040626
f 697/697/697 698/698/698 699/699/699
f 697/697/697 699/699/699 700/700/700
v 0.0247487 -0.0247487 0.7800000
v 0.0303109 -0.0175000 0.7800000
v 0.0259808 -0.0150000 0.7850000
v 0.0212132 -0.0212132 0.7850000
vt 0.5200000 0.1483900
vt 0.6761469 0.0200000
vt 0.7300000 0.1199514
vt 0.5961598 0.2300000
vn 0.5633903 -0.4323046 0.7040626
vn 0.5633903 -0.4323046 0.7040626
vn 0.5633903 -0.4323046 0.7040626
vn 0.5633903 -0.4323046 0.7040626
f 701/701/701 702/702/702 703/703/703
f 701/701/701 703/703/703 704/704/704
v 0.0303109 -0.0175000 0.7800000
v 0.0338074 -0.0090587 0.7800000
v 0.0289778 -0.0077646 0.7850000
v 0.0259808 -0.0150000 0.7850000
vt 0.5200000 0.1138165
vt 0.7020855 0.0200000
vt 0.7300000 0.1495859
vt 0.5739267 0.2300000
vn 0.6560819 -0.2717580 0.7040626
vn 0.6560819 -0.2717580 0.7040626
vn 0.6560819 -0.2717580 0.7040626
vn 0.6560819 -0.2717580 0.7040626
f 705/705/705 706/706/706 707/707/707
f 705/705/705 707/707/707 708/708/708
v 0.0338074 -0.0090587 0.7800000
v 0.0350000 0.0000000 0.7800000
v 0.0300000 0.0000000 0.7850000
v 0.0289778 -0.0077646 0.7850000
vt 0.5200000 0.0615868
vt 0.7300000 0.0200000
vt 0.7300000 0.1943542
vt 0.5500000 0.2300000
vn 0.7040626 -0.0926916 0.7040626
vn 0.7040626 -0.0926916 0.7040626
vn 0.7040626 -0.0926916 0.7040626
vn 0.7040626 -0.0926916 0.7040626
f 709/709/709 710/710/710 711/711/711
f 709/709/709 711/711/711 712/712/712
v 0.0300000 0.0000000 0.7850000
v 0.0289778 0.0077646 0.7850000
v 0.0259808 0.0150000 0.7850000
v 0.0212132 0.0212132 0.7850000
v 0.0150000 0.0259808 0.7850000
v 0.0077646 0.0289778 0.7850000
v 0.0000000 0.0300000 0.7850000
v -0.0077646 0.0289778 0.7850000
v -0.0150000 0.0259808 0.7850000
v -0.0212132 0.0212132 0.7850000
v -0.0259808 0.0150000 0.7850000
v -0.0289778 0.0077646 0.7850000
v -0.0300000 0.0000000 0.7850000
v -0.0289778 -0.0077646 0.7850000
v -0.0259808 -0.0150000 0.7850000
v -0.0212132 -0.0212132 0.7850000
v -0.0150000 -0.0259808 0.7850000
v -0.0077646 -0.0289778 0.7850000
v -0.0000000 -0.0300000 0.7850000
v 0.0077646 -0.0289778 0.7850000
v 0.0150000 -0.0259808 0.7850000
v 0.0212132 -0.0212132 0.7850000
v 0.0259808 -0.0150000 0.7850000
v 0.0289778 -0.0077646 0.7850000
vt 0.7300000 0.1250000
vt 0.7264222 0.0978240
vt 0.7159327 0.0725000
vt 0.6992462 0.0507538
vt 0.6775000 0.0340673
vt 0.6521760 0.0235778
vt 0.6250000 0.0200000
vt 0.5978240 0.0235778
vt 0.5725000 0.0340673
vt 0.5507538 0.0507538
vt 0.5340673 0.0725000
vt 0.5235778 0.0978240
vt 0.5200000 0.1250000
vt 0.5235778 0.1521760
vt 0.5340673 0.1775000
vt 0.5507538 0.1992462
vt 0.5725000 0.2159327
vt 0.5978240 0.2264222
vt 0.6250000 0.2300000
vt 0.6521760 0.2264222
vt 0.6775000 0.2159327
vt 0.6992462 0.1992462
vt 0.7159327 0.1775000
vt 0.7264222 0.1521760
vn 0.0000000 0.0000000 1.0000000
vn 0.0000000 0.0000000 1.0000000
vn 0.0000000 0.0000000 1.0000000
vn 0.0000000 0.0000000 1.0000000
vn 0.0000000 0.0000000 1.0000000
vn 0.0000000 0.0000000 1.0000000
vn 0.0000000 0.0000000 1.0000000
vn 0.0000000 0.0000000 1.0000000
vn 0.0000000 0.0000000 1.0000000
vn 0.0000000 0.0000000 1.0000000
vn 0.0000000 0.0000000 1.0000000
vn 0.0000000 0.0000000 1.0000000
vn 0.0000000 0.0000000 1.0000000
vn 0.0000000 0.0000000 1.0000000
vn 0.0000000 0.0000000 1.0000000
vn 0.0000000 0.0000000 1.0000000
vn 0.0000000 0.0000000 1.0000000
vn 0.0000000 0.0000000 1.0000000
vn 0.0000000 0.0000000 1.0000000
vn 0.0000000 0.0000000 1.0000000
vn 0.0000000 0.0000000 1.0000000
vn 0.0000000 0.0000000 1.0000000
vn 0.0000000 0.0000000 1.0000000
vn 0.0000000 0.0000000 1.0000000
f 713/713/713 714/714/714 715/715/715
f 713/713/713 715/715/715 716/716/716
f 713/713/713 716/716/716 717/717/717
f 713/713/713 717/717/717 718/718/718
f 713/713/713 718/718/718 719/719/719
f 713/713/713 719/719/719 720/720/720
f 713/713/713 720/720/720 721/721/721
f 713/713/713 721/721/721 722/722/722
f 713/713/713 722/722/722 723/723/723
f 713/713/713 723/723/723 724/724/724
f 713/713/713 724/724/724 725/725/725
f 713/713/713 725/725/725 726/726/726
f 713/713/713 726/726/726 727/727/727
f 713/713/713 727/727/727 728/728/728
f 713/713/713 728/728/728 729/729/729
f 713/713/713 729/729/729 730/730/730
f 713/713/713 730/730/730 731/731/731
f 713/713/713 731/731/731 732/732/732
f 713/713/713 732/732/732 733/733/733
f 713/713/713 733/733/733 734/734/734
f 713/713/713 734/734/734 735/735/735
f 713/713/713 735/735/735 736/736/736
