# Original title roadside timber stake; closed bevelled solid.
mtllib title_stake.mtl
o TitleStake
usemtl weathered_timber
v -0.0900000 0.0000000 -0.1300000
v 0.0900000 0.0000000 -0.1300000
v 0.1300000 0.0000000 -0.0900000
v 0.1300000 0.0000000 0.0900000
v 0.0900000 0.0000000 0.1300000
v -0.0900000 0.0000000 0.1300000
v -0.1300000 0.0000000 0.0900000
v -0.1300000 0.0000000 -0.0900000
v -0.0877500 1.3400000 -0.1274000
v 0.0877500 1.3400000 -0.1274000
v 0.1267500 1.3400000 -0.0882000
v 0.1267500 1.3400000 0.0882000
v 0.0877500 1.3400000 0.1274000
v -0.0877500 1.3400000 0.1274000
v -0.1267500 1.3400000 0.0882000
v -0.1267500 1.3400000 -0.0882000
v -0.0855000 1.5183000 -0.1248000
v 0.0855000 1.5417000 -0.1248000
v 0.1235000 1.5469000 -0.0864000
v 0.1235000 1.5469000 0.0864000
v 0.0855000 1.5417000 0.1248000
v -0.0855000 1.5183000 0.1248000
v -0.1235000 1.5131000 0.0864000
v -0.1235000 1.5131000 -0.0864000
v 0.0000000 0.0000000 0.0000000
v 0.0000000 1.5300000 0.0000000
vt 0.1536246 0.0000000
vt 0.1540052 0.8645161
vt 0.3459948 0.8645161
vt 0.1536246 0.0000000
vt 0.3459948 0.8645161
vt 0.3463754 0.0000000
vt 0.3463754 0.0000000
vt 0.3459948 0.8645161
vt 0.4032432 0.8645161
vt 0.3463754 0.0000000
vt 0.4032432 0.8645161
vt 0.4036246 0.0000000
vt 0.4036246 0.0000000
vt 0.4032432 0.8645161
vt 0.5967568 0.8645161
vt 0.4036246 0.0000000
vt 0.5967568 0.8645161
vt 0.5963754 0.0000000
vt 0.5963754 0.0000000
vt 0.5967568 0.8645161
vt 0.6540052 0.8645161
vt 0.5963754 0.0000000
vt 0.6540052 0.8645161
vt 0.6536246 0.0000000
vt 0.6536246 0.0000000
vt 0.6540052 0.8645161
vt 0.8459948 0.8645161
vt 0.6536246 0.0000000
vt 0.8459948 0.8645161
vt 0.8463754 0.0000000
vt 0.8463754 0.0000000
vt 0.8459948 0.8645161
vt 0.9032432 0.8645161
vt 0.8463754 0.0000000
vt 0.9032432 0.8645161
vt 0.9036246 0.0000000
vt 0.9036246 0.0000000
vt 0.9032432 0.8645161
vt 1.0967568 0.8645161
vt 0.9036246 0.0000000
vt 1.0967568 0.8645161
vt 1.0963754 0.0000000
vt 0.0963754 0.0000000
vt 0.0967568 0.8645161
vt 0.1540052 0.8645161
vt 0.0963754 0.0000000
vt 0.1540052 0.8645161
vt 0.1536246 0.0000000
vt 0.1540052 0.8645161
vt 0.1544031 0.9795484
vt 0.3455969 0.9946452
vt 0.1540052 0.8645161
vt 0.3455969 0.9946452
vt 0.3459948 0.8645161
vt 0.3459948 0.8645161
vt 0.3455969 0.9946452
vt 0.4028432 0.9980000
vt 0.3459948 0.8645161
vt 0.4028432 0.9980000
vt 0.4032432 0.8645161
vt 0.4032432 0.8645161
vt 0.4028432 0.9980000
vt 0.5971568 0.9980000
vt 0.4032432 0.8645161
vt 0.5971568 0.9980000
vt 0.5967568 0.8645161
vt 0.5967568 0.8645161
vt 0.5971568 0.9980000
vt 0.6544031 0.9946452
vt 0.5967568 0.8645161
vt 0.6544031 0.9946452
vt 0.6540052 0.8645161
vt 0.6540052 0.8645161
vt 0.6544031 0.9946452
vt 0.8455969 0.9795484
vt 0.6540052 0.8645161
vt 0.8455969 0.9795484
vt 0.8459948 0.8645161
vt 0.8459948 0.8645161
vt 0.8455969 0.9795484
vt 0.9028432 0.9761935
vt 0.8459948 0.8645161
vt 0.9028432 0.9761935
vt 0.9032432 0.8645161
vt 0.9032432 0.8645161
vt 0.9028432 0.9761935
vt 1.0971568 0.9761935
vt 0.9032432 0.8645161
vt 1.0971568 0.9761935
vt 1.0967568 0.8645161
vt 0.0967568 0.8645161
vt 0.0971568 0.9761935
vt 0.1544031 0.9795484
vt 0.0967568 0.8645161
vt 0.1544031 0.9795484
vt 0.1540052 0.8645161
vt 0.5000000 0.0000000
vt 0.1536246 0.0000000
vt 0.3463754 0.0000000
vt 0.5000000 0.9870968
vt 0.3455969 0.9946452
vt 0.1544031 0.9795484
vt 0.5000000 0.0000000
vt 0.3463754 0.0000000
vt 0.4036246 0.0000000
vt 0.5000000 0.9870968
vt 0.4028432 0.9980000
vt 0.3455969 0.9946452
vt 0.5000000 0.0000000
vt 0.4036246 0.0000000
vt 0.5963754 0.0000000
vt 0.5000000 0.9870968
vt 0.5971568 0.9980000
vt 0.4028432 0.9980000
vt 0.5000000 0.0000000
vt 0.5963754 0.0000000
vt 0.6536246 0.0000000
vt 0.5000000 0.9870968
vt 0.6544031 0.9946452
vt 0.5971568 0.9980000
vt 0.5000000 0.0000000
vt 0.6536246 0.0000000
vt 0.8463754 0.0000000
vt 0.5000000 0.9870968
vt 0.8455969 0.9795484
vt 0.6544031 0.9946452
vt 0.5000000 0.0000000
vt 0.8463754 0.0000000
vt 0.9036246 0.0000000
vt 0.5000000 0.9870968
vt 0.9028432 0.9761935
vt 0.8455969 0.9795484
vt 0.5000000 0.0000000
vt 0.9036246 0.0000000
vt 1.0963754 0.0000000
vt 0.5000000 0.9870968
vt 1.0971568 0.9761935
vt 0.9028432 0.9761935
vt 0.5000000 0.0000000
vt 0.0963754 0.0000000
vt 0.1536246 0.0000000
vt 0.5000000 0.9870968
vt 0.1544031 0.9795484
vt 0.0971568 0.9761935
vn 0.0000000 0.0019403 -0.9999981
vn 0.0000000 0.0019403 -0.9999981
vn 0.7089106 0.0025588 -0.7052937
vn 0.7071043 0.0026648 -0.7071043
vn 0.9999971 0.0024254 0.0000000
vn 0.9999971 0.0024254 -0.0000000
vn 0.7089104 0.0026668 0.7052935
vn 0.7071045 0.0025593 0.7071045
vn 0.0000000 0.0019403 0.9999981
vn 0.0000000 0.0019403 0.9999981
vn -0.7089106 0.0025588 0.7052937
vn -0.7071043 0.0026648 0.7071043
vn -0.9999971 0.0024254 0.0000000
vn -0.9999971 0.0024254 0.0000000
vn -0.7089104 0.0026668 -0.7052935
vn -0.7071045 0.0025593 -0.7071045
vn -0.0019987 0.0146058 -0.9998913
vn 0.0000000 0.0128894 -0.9999169
vn 0.7095449 0.0169958 -0.7044553
vn 0.7088072 0.0172691 -0.7051908
vn 0.9998767 0.0157061 0.0000000
vn 0.9998767 0.0157061 -0.0000000
vn 0.7095226 0.0172740 0.7044709
vn 0.7088105 0.0169972 0.7051941
vn -0.0017611 0.0128697 0.9999156
vn 0.0000000 0.0145806 0.9998937
vn -0.7119680 0.0192204 0.7019489
vn -0.7087619 0.0206397 0.7051458
vn -0.9998238 0.0187720 0.0000000
vn -0.9998238 0.0187720 0.0000000
vn -0.7120452 0.0206669 -0.7018294
vn -0.7087819 0.0192271 -0.7051656
vn 0.0000000 -1.0000000 -0.0000000
vn -0.1355786 0.9907666 0.0000000
vn 0.0000000 -1.0000000 0.0000000
vn -0.1355786 0.9907666 0.0000000
vn 0.0000000 -1.0000000 0.0000000
vn -0.1355786 0.9907666 0.0000000
vn 0.0000000 -1.0000000 0.0000000
vn -0.1355786 0.9907666 -0.0000000
vn 0.0000000 -1.0000000 0.0000000
vn -0.1355786 0.9907666 0.0000000
vn 0.0000000 -1.0000000 0.0000000
vn -0.1355786 0.9907666 0.0000000
vn -0.0000000 -1.0000000 0.0000000
vn -0.1355786 0.9907666 0.0000000
vn 0.0000000 -1.0000000 0.0000000
vn -0.1355786 0.9907666 -0.0000000
f 1/1/1 9/2/1 10/3/1
f 1/4/2 10/5/2 2/6/2
f 2/7/3 10/8/3 11/9/3
f 2/10/4 11/11/4 3/12/4
f 3/13/5 11/14/5 12/15/5
f 3/16/6 12/17/6 4/18/6
f 4/19/7 12/20/7 13/21/7
f 4/22/8 13/23/8 5/24/8
f 5/25/9 13/26/9 14/27/9
f 5/28/10 14/29/10 6/30/10
f 6/31/11 14/32/11 15/33/11
f 6/34/12 15/35/12 7/36/12
f 7/37/13 15/38/13 16/39/13
f 7/40/14 16/41/14 8/42/14
f 8/43/15 16/44/15 9/45/15
f 8/46/16 9/47/16 1/48/16
f 9/49/17 17/50/17 18/51/17
f 9/52/18 18/53/18 10/54/18
f 10/55/19 18/56/19 19/57/19
f 10/58/20 19/59/20 11/60/20
f 11/61/21 19/62/21 20/63/21
f 11/64/22 20/65/22 12/66/22
f 12/67/23 20/68/23 21/69/23
f 12/70/24 21/71/24 13/72/24
f 13/73/25 21/74/25 22/75/25
f 13/76/26 22/77/26 14/78/26
f 14/79/27 22/80/27 23/81/27
f 14/82/28 23/83/28 15/84/28
f 15/85/29 23/86/29 24/87/29
f 15/88/30 24/89/30 16/90/30
f 16/91/31 24/92/31 17/93/31
f 16/94/32 17/95/32 9/96/32
f 25/97/33 1/98/33 2/99/33
f 26/100/34 18/101/34 17/102/34
f 25/103/35 2/104/35 3/105/35
f 26/106/36 19/107/36 18/108/36
f 25/109/37 3/110/37 4/111/37
f 26/112/38 20/113/38 19/114/38
f 25/115/39 4/116/39 5/117/39
f 26/118/40 21/119/40 20/120/40
f 25/121/41 5/122/41 6/123/41
f 26/124/42 22/125/42 21/126/42
f 25/127/43 6/128/43 7/129/43
f 26/130/44 23/131/44 22/132/44
f 25/133/45 7/134/45 8/135/45
f 26/136/46 24/137/46 23/138/46
f 25/139/47 8/140/47 1/141/47
f 26/142/48 17/143/48 24/144/48
